<svg width="67" height="60" viewBox="0 0 67 60" fill="none" xmlns="http://www.w3.org/2000/svg">
<path d="M24.587 0.00216419C24.5827 0.00216419 24.5783 0.00216419 24.574 0.00216419C21.3859 0.00216419 18.7497 1.6449 17.5637 4.33086H16.5248C16.5183 4.33086 16.5118 4.33086 16.5053 4.33086C13.7544 4.33086 11.1421 5.2507 9.15086 6.92591C7.03846 8.70067 5.87404 11.1485 5.86972 13.8129C5.86755 15.9664 7.00816 18.3515 8.08817 19.8535C3.27683 21.5201 0.0065027 25.5523 9.65755e-06 30C-0.00648338 34.4283 3.26168 38.4626 8.08168 40.1443C6.98652 41.642 5.8221 44.0141 5.81994 46.1309C5.81344 51.3816 10.614 55.6605 16.527 55.6713H17.5658C18.7411 58.3508 21.3837 59.9957 24.587 60C24.5913 60 24.5956 60 24.6021 60C28.8702 60 31.8549 57.011 31.8613 52.7278V7.27437C31.8657 2.99978 28.8767 0.00865723 24.587 0.00216419ZM24.587 36.796C23.823 36.796 23.2018 36.1749 23.2018 35.4109C23.2018 34.6469 23.823 34.0257 24.587 34.0257C25.351 34.0257 25.9722 34.6469 25.9722 35.4109C25.9722 36.1749 25.351 36.796 24.587 36.796ZM30.3009 25.9743H25.3661V12.2632C26.6106 11.9191 27.5305 10.7893 27.5305 9.43871C27.5305 7.81545 26.2102 6.4952 24.587 6.4952C22.9637 6.4952 21.6435 7.81545 21.6435 9.43871C21.6435 10.7914 22.5633 11.9191 23.8078 12.2632V25.9743H20.2583H20.254C18.5268 25.9743 17.3169 27.1842 17.3148 28.9178V30.303H12.261C11.9169 29.0585 10.7871 28.1387 9.43656 28.1387C7.8133 28.1387 6.49305 29.4589 6.49305 31.0822C6.49305 32.7054 7.8133 34.0257 9.43656 34.0257C10.7893 34.0257 11.9191 33.1037 12.261 31.8613H17.3148V44.4881C16.0703 44.8323 15.1504 45.9621 15.1504 47.3148C15.1504 48.938 16.4707 50.2583 18.0939 50.2583C19.7172 50.2583 21.0375 48.938 21.0375 47.3148C21.0375 45.9621 20.1176 44.8323 18.8731 44.4881V28.9178C18.8753 28.0499 19.3904 27.5305 20.2561 27.5305H20.2583H30.3009V52.7213C30.2944 55.8726 28.3356 58.0456 25.3661 58.3702V38.2353C26.6106 37.8912 27.5305 36.7614 27.5305 35.4087C27.5305 33.7854 26.2102 32.4652 24.587 32.4652C22.9637 32.4652 21.6435 33.7854 21.6435 35.4087C21.6435 36.7614 22.5633 37.8912 23.8078 38.2353V58.3854C21.4205 58.1387 19.5852 56.7794 18.8298 54.6303C18.7194 54.3186 18.4251 54.1108 18.0939 54.1108H16.527C12.1203 54.1043 7.37177 51.0526 7.3761 46.133C7.38043 44.0423 8.92144 41.352 9.9863 40.2915C10.1854 40.0945 10.2612 39.8045 10.1876 39.5339C10.114 39.2634 9.90189 39.0535 9.63135 38.9842C4.87195 37.7592 1.55185 34.0646 1.55834 30C1.56483 25.9397 4.85247 22.2668 9.5556 21.0374H15.2695C15.6136 22.2819 16.7434 23.2018 18.0939 23.2018C19.7172 23.2018 21.0375 21.8815 21.0375 20.2583C21.0375 18.635 19.7172 17.3169 18.0939 17.3169C16.7412 17.3169 15.6136 18.2368 15.2695 19.4813H9.78718C8.75479 18.3104 7.42372 15.8214 7.42588 13.815C7.43021 11.616 8.39767 9.59455 10.1551 8.11846C11.8411 6.70082 14.157 5.88919 16.5096 5.88919C16.514 5.88919 16.5205 5.88919 16.527 5.88919H18.0939C18.4229 5.88919 18.7173 5.68141 18.8277 5.37191C19.6761 2.98463 21.8231 1.56049 24.574 1.56049C24.5783 1.56049 24.5805 1.56049 24.5848 1.56049C28.011 1.56699 30.3073 3.86119 30.3009 7.27437V25.9743ZM24.587 10.8239C23.823 10.8239 23.2018 10.2027 23.2018 9.43871C23.2018 8.6747 23.823 8.05353 24.587 8.05353C25.351 8.05353 25.9722 8.6747 25.9722 9.43871C25.9722 10.2027 25.351 10.8239 24.587 10.8239ZM18.0939 45.9296C18.858 45.9296 19.4791 46.5508 19.4791 47.3148C19.4791 48.0788 18.858 48.6999 18.0939 48.6999C17.3299 48.6999 16.7088 48.0788 16.7088 47.3148C16.7088 46.5508 17.3299 45.9296 18.0939 45.9296ZM10.8217 31.0822C10.8217 31.8462 10.2006 32.4674 9.43656 32.4674C8.67254 32.4674 8.05138 31.8462 8.05138 31.0822C8.05138 30.3182 8.67254 29.697 9.43656 29.697C10.2006 29.697 10.8217 30.3182 10.8217 31.0822ZM16.7088 20.2604C16.7088 19.4964 17.3299 18.8753 18.0939 18.8753C18.858 18.8753 19.4791 19.4964 19.4791 20.2604C19.4791 21.0245 18.858 21.6456 18.0939 21.6456C17.3299 21.6456 16.7088 21.0245 16.7088 20.2604ZM66.4887 30C66.493 25.5717 63.2249 21.5396 58.407 19.8557C59.5044 18.358 60.6666 15.9859 60.671 13.867C60.6753 11.2027 59.5022 8.74829 57.3682 6.95621C55.3835 5.28966 52.6867 4.33302 49.9639 4.32869H48.9251C47.7476 1.64923 45.1071 0.00432869 41.9061 0C41.8996 0 41.8953 0 41.8888 0C39.785 0 37.9756 0.699084 36.6554 2.01933C35.333 3.34608 34.6339 5.1598 34.6295 7.27437V52.7235C34.6231 57.0002 37.612 59.9892 41.8996 59.9978C41.9061 59.9978 41.9104 59.9978 41.9147 59.9978C45.1028 59.9978 47.7368 58.3529 48.9229 55.6691H49.9596C49.9683 55.6691 49.9748 55.6691 49.9813 55.6691C52.7321 55.6691 55.3445 54.7471 57.3357 53.0741C59.4503 51.2993 60.6147 48.8536 60.619 46.1871C60.6212 44.0336 59.4806 41.6463 58.4006 40.1465C63.2141 38.4799 66.4822 34.4477 66.4887 30ZM41.9017 23.204C42.6658 23.204 43.2869 23.8251 43.2869 24.5891C43.2869 25.3531 42.6658 25.9743 41.9017 25.9743C41.1377 25.9743 40.5166 25.3531 40.5166 24.5891C40.5166 23.8251 41.1377 23.204 41.9017 23.204ZM56.9353 38.9604H51.2193C50.8751 37.7159 49.7453 36.796 48.3926 36.796C46.7694 36.796 45.4491 38.1163 45.4491 39.7396C45.4491 41.3628 46.7694 42.6831 48.3926 42.6831C49.7432 42.6831 50.8751 41.7632 51.2193 40.5187H56.7015C57.7318 41.6896 59.0628 44.1786 59.0585 46.185C59.0564 48.384 58.0889 50.4055 56.3314 51.8794C54.6411 53.3013 52.2949 54.0654 49.9618 54.1087H48.3948C48.0658 54.1087 47.7715 54.3186 47.6611 54.6259C46.8105 57.0154 44.6635 58.4373 41.9147 58.4373C41.9104 58.4373 41.9039 58.4373 41.9039 58.4373C40.2136 58.4352 38.7764 57.8919 37.7505 56.8682C36.7246 55.8445 36.1835 54.4138 36.1879 52.7256V34.0257H41.1204V47.7346C39.8759 48.0788 38.9561 49.2086 38.9561 50.5613C38.9561 52.1845 40.2763 53.5048 41.8996 53.5048C43.5228 53.5048 44.8431 52.1845 44.8431 50.5613C44.8431 49.2107 43.9232 48.0788 42.6787 47.7346V34.0257H46.2261H46.2326C47.9619 34.0257 49.1675 32.8158 49.1718 31.0822V29.697H54.2234C54.5675 30.9415 55.6973 31.8613 57.05 31.8613C58.6733 31.8613 59.9935 30.5411 59.9935 28.9178C59.9935 27.2946 58.6733 25.9743 57.05 25.9743C55.6973 25.9743 54.5675 26.8942 54.2234 28.1387H49.174V15.5097C50.4184 15.1656 51.3383 14.0358 51.3383 12.6852C51.3383 11.062 50.018 9.74172 48.3948 9.74172C46.7715 9.74172 45.4513 11.062 45.4513 12.6852C45.4513 14.0358 46.3711 15.1656 47.6156 15.5097V31.0822C47.6156 31.9501 47.1005 32.4695 46.2348 32.4695H46.2304H36.1879V7.27437C36.19 5.58401 36.7333 4.14689 37.757 3.12315C38.6163 2.26174 39.7764 1.76611 41.1226 1.62326V21.7625C39.8781 22.1066 38.9582 23.2364 38.9582 24.587C38.9582 26.2102 40.2785 27.5305 41.9017 27.5305C43.525 27.5305 44.8453 26.2102 44.8453 24.587C44.8453 23.2364 43.9254 22.1066 42.6809 21.7625V1.61244C45.0682 1.86134 46.9035 3.21838 47.6589 5.36974C47.7693 5.68141 48.0658 5.88919 48.3948 5.88919H49.9618C52.3252 5.89135 54.6584 6.71813 56.3661 8.15093C58.1408 9.64216 59.117 11.6702 59.1126 13.867C59.1105 15.9577 57.5673 18.648 56.5046 19.7085C56.3055 19.9055 56.2297 20.1955 56.3011 20.4661C56.3747 20.7366 56.589 20.9465 56.8595 21.0158C61.6168 22.243 64.9369 25.9375 64.9304 30C64.9261 34.056 61.6406 37.7267 56.9353 38.9604ZM49.78 39.7396C49.78 40.5036 49.1588 41.1247 48.3948 41.1247C47.6308 41.1247 47.0096 40.5036 47.0096 39.7396C47.0096 38.9755 47.6308 38.3544 48.3948 38.3544C49.1588 38.3544 49.78 38.9755 49.78 39.7396ZM41.9017 49.1761C42.6658 49.1761 43.2869 49.7973 43.2869 50.5613C43.2869 51.3253 42.6658 51.9465 41.9017 51.9465C41.1377 51.9465 40.5166 51.3253 40.5166 50.5613C40.5166 49.7973 41.1377 49.1761 41.9017 49.1761ZM48.3948 14.0704C47.6308 14.0704 47.0096 13.4492 47.0096 12.6852C47.0096 11.9212 47.6308 11.3001 48.3948 11.3001C49.1588 11.3001 49.78 11.9212 49.78 12.6852C49.78 13.4492 49.1588 14.0704 48.3948 14.0704ZM55.667 28.9178C55.667 28.1538 56.2882 27.5326 57.0522 27.5326C57.8162 27.5326 58.4374 28.1538 58.4374 28.9178C58.4374 29.6818 57.8162 30.303 57.0522 30.303C56.2882 30.303 55.667 29.6818 55.667 28.9178Z" fill="black"/>
</svg>
