<svg width="35" height="35" viewBox="0 0 35 35" fill="none" xmlns="http://www.w3.org/2000/svg">
<path d="M24.8333 8.33333V6.86667C24.8333 4.81315 24.8333 3.78637 24.4337 3.00204C24.0822 2.3121 23.5212 1.75117 22.8313 1.39965C22.047 1 21.0202 1 18.9667 1H16.0333C13.9798 1 12.953 1 12.1687 1.39965C11.4788 1.75117 10.9178 2.3121 10.5663 3.00204C10.1667 3.78637 10.1667 4.81315 10.1667 6.86667V8.33333M1.04988 13.8816C1.71089 14.5152 8.85715 21.1667 17.5 21.1667C26.1429 21.1667 33.289 14.5152 33.9501 13.8816M1.04988 13.8816C1 14.7372 1 15.7886 1 17.1333V25.2C1 28.2804 1 29.8204 1.59946 30.997C2.12677 32.0319 2.96816 32.8732 4.00306 33.4005C5.17956 34 6.71971 34 9.8 34H25.2C28.2804 34 29.8204 34 30.997 33.4005C32.0319 32.8732 32.8732 32.0319 33.4005 30.997C34 29.8204 34 28.2804 34 25.2V17.1333C34 15.7886 34 14.7372 33.9501 13.8816M1.04988 13.8816C1.11427 12.7775 1.26173 11.9992 1.59946 11.3364C2.12677 10.3015 2.96816 9.4601 4.00306 8.9328C5.17956 8.33333 6.71971 8.33333 9.8 8.33333H25.2C28.2804 8.33333 29.8204 8.33333 30.997 8.9328C32.0319 9.4601 32.8732 10.3015 33.4005 11.3364C33.7382 11.9992 33.8858 12.7775 33.9501 13.8816" stroke="#077FC8" stroke-width="2" stroke-linecap="round" stroke-linejoin="round"/>
</svg>
