<svg width="33" height="32" viewBox="0 0 33 32" fill="none" xmlns="http://www.w3.org/2000/svg">
<path d="M30.6776 26.0238V10.6532C30.6776 10.1975 30.3083 9.82826 29.8526 9.82826H25.1889V6.29357C25.1889 5.83784 24.8196 5.46858 24.3639 5.46858H20.8084V4.30897C20.8084 1.933 18.8757 0 16.5 0C14.1243 0 12.1916 1.933 12.1916 4.30897V5.46858H8.6362C8.18048 5.46858 7.81122 5.83784 7.81122 6.29357V9.82826H3.14739C2.69177 9.82826 2.3224 10.1975 2.3224 10.6532V26.0238C1.03817 26.0468 0 27.0969 0 28.3867V28.791C0 30.0951 1.06094 31.156 2.36497 31.156H30.635C31.9391 31.156 33 30.0951 33 28.791V28.3867C33 27.0969 31.9618 26.0468 30.6776 26.0238ZM8.6362 22.9426H24.3638C24.8195 22.9426 25.1888 22.5733 25.1888 22.1176V14.2955H26.444V25.8536H6.55613V14.2954H7.81122V22.1175C7.81122 22.5732 8.18048 22.9426 8.6362 22.9426ZM29.0276 11.4782V25.8536H28.0941V13.4704C28.0941 13.0147 27.7248 12.6454 27.2691 12.6454H25.1889V11.4782H29.0276ZM13.8416 4.30897C13.8416 2.8428 15.0342 1.64998 16.5 1.64998C17.9658 1.64998 19.1584 2.8428 19.1584 4.30897V5.46858H13.8416V4.30897ZM9.46119 7.11856H12.1916V8.53127C12.1916 8.98699 12.5608 9.35626 13.0166 9.35626C13.4723 9.35626 13.8416 8.98699 13.8416 8.53127V7.11856H19.1584V8.53127C19.1584 8.98699 19.5277 9.35626 19.9834 9.35626C20.4392 9.35626 20.8084 8.98699 20.8084 8.53127V7.11856H23.5388V21.2925H9.46119V7.11856ZM3.97238 11.4782H7.81122V12.6454H5.73114C5.27542 12.6454 4.90615 13.0147 4.90615 13.4704V25.8535H3.97249L3.97238 11.4782ZM31.35 28.791C31.35 29.1853 31.0293 29.506 30.635 29.506H2.36497C1.97073 29.506 1.64998 29.1853 1.64998 28.791V28.3867C1.64998 27.9924 1.97073 27.6717 2.36497 27.6717H30.635C31.0293 27.6717 31.35 27.9924 31.35 28.3867V28.791Z" fill="#077FC8"/>
<path d="M18.9073 15.9739L13.5552 13.8276L15.6956 19.1931L16.2175 17.5703L18.3751 19.7326L19.445 18.6598L17.288 16.4972L18.9073 15.9739Z" fill="#077FC8"/>
</svg>
