<svg width="45" height="60" viewBox="0 0 45 60" fill="none" xmlns="http://www.w3.org/2000/svg">
<path d="M24.5346 53.7897H20.1493C19.8701 53.7897 19.6024 53.9006 19.405 54.098C19.2076 54.2954 19.0967 54.5631 19.0967 54.8423C19.0967 55.1215 19.2076 55.3892 19.405 55.5866C19.6024 55.784 19.8701 55.8949 20.1493 55.8949H24.5346C24.8137 55.8949 25.0815 55.784 25.2789 55.5866C25.4763 55.3892 25.5872 55.1215 25.5872 54.8423C25.5872 54.5631 25.4763 54.2954 25.2789 54.098C25.0815 53.9006 24.8137 53.7897 24.5346 53.7897Z" fill="black"/>
<path d="M44.3895 12.1158C44.3899 11.9937 44.3685 11.8725 44.3263 11.7579C44.3102 11.7309 44.2961 11.7028 44.2842 11.6737C44.2632 11.6316 44.2526 11.6 44.2316 11.5579L37.4842 0.957897C37.2995 0.664216 37.0433 0.422257 36.7395 0.254711C36.4357 0.0871648 36.0943 -0.000477956 35.7474 1.96038e-06H8.65263C8.3057 -0.000477956 7.96433 0.0871648 7.66054 0.254711C7.35675 0.422257 7.10049 0.664216 6.91579 0.957897L0.168421 11.5579C0.147368 11.6 0.136843 11.6316 0.11579 11.6737C0.103906 11.7028 0.0898295 11.7309 0.0736839 11.7579C0.0314867 11.8725 0.0100987 11.9937 0.0105266 12.1158L0 12.1263V16.9789C0.00535804 18.0996 0.368806 19.1893 1.03728 20.0888C1.70576 20.9883 2.64427 21.6506 3.71579 21.9789V53.9158C3.71886 55.5303 4.3623 57.0777 5.50492 58.2183C6.64754 59.359 8.19601 59.9997 9.81053 60H34.5895C36.204 59.9997 37.7525 59.359 38.8951 58.2183C40.0377 57.0777 40.6811 55.5303 40.6842 53.9158V21.9789C41.7557 21.6506 42.6942 20.9883 43.3627 20.0888C44.0312 19.1893 44.3946 18.0996 44.4 16.9789V12.1263L44.3895 12.1158ZM35.7053 2.08421L41.4211 11.0737H35.5895L31.8316 2.08421H35.7053ZM29.5474 2.08421L33.3053 11.0737H27.3684L26.3895 2.09474L29.5474 2.08421ZM33.8316 13.179V16.9789C33.8316 17.8165 33.4989 18.6197 32.9067 19.2119C32.3144 19.8041 31.5112 20.1368 30.6737 20.1368H30.6421C29.8046 20.1368 29.0014 19.8041 28.4091 19.2119C27.8169 18.6197 27.4842 17.8165 27.4842 16.9789V13.179H33.8316ZM20.1263 2.09474H24.2737L25.2526 11.0737H19.1474L20.1263 2.09474ZM19.0211 13.179H25.3789V16.9789C25.3789 17.8165 25.0462 18.6197 24.454 19.2119C23.8618 19.8041 23.0586 20.1368 22.2211 20.1368H22.1789C21.3414 20.1368 20.5382 19.8041 19.946 19.2119C19.3538 18.6197 19.0211 17.8165 19.0211 16.9789V13.179ZM18.0105 2.09474L17.0316 11.0737H11.0947L14.8526 2.10527L18.0105 2.09474ZM16.9158 13.179V16.9789C16.9158 17.8165 16.5831 18.6197 15.9909 19.2119C15.3986 19.8041 14.5954 20.1368 13.7579 20.1368H13.7263C12.8888 20.1368 12.0856 19.8041 11.4933 19.2119C10.9011 18.6197 10.5684 17.8165 10.5684 16.9789V13.179H16.9158ZM8.65263 2.10527H12.5684L8.81053 11.0737H2.96842L8.65263 2.10527ZM5.30526 20.1368H5.26316C4.42563 20.1368 3.62241 19.8041 3.03019 19.2119C2.43797 18.6197 2.10526 17.8165 2.10526 16.9789V13.179H8.46316V16.9789C8.46316 17.8165 8.13045 18.6197 7.53823 19.2119C6.94601 19.8041 6.14279 20.1368 5.30526 20.1368ZM38.5789 53.9158C38.5756 54.9719 38.1539 55.9836 37.4061 56.7294C36.6584 57.4751 35.6456 57.8942 34.5895 57.8947H9.81053C8.75444 57.8942 7.74162 57.4751 6.99387 56.7294C6.24612 55.9836 5.8244 54.9719 5.82105 53.9158V51.8H38.5789V53.9158ZM38.5789 49.6947H5.82105V22.1895C6.54848 22.12 7.25323 21.8986 7.88968 21.5396C8.52614 21.1806 9.08013 20.6919 9.51579 20.1053C10.0007 20.7668 10.6346 21.305 11.366 21.6762C12.0975 22.0474 12.9061 22.2413 13.7263 22.2421H13.7579C14.5782 22.2413 15.3867 22.0474 16.1182 21.6762C16.8496 21.305 17.4835 20.7668 17.9684 20.1053C18.4534 20.7668 19.0872 21.305 19.8187 21.6762C20.5501 22.0474 21.3587 22.2413 22.1789 22.2421H22.2211C23.0413 22.2413 23.8499 22.0474 24.5813 21.6762C25.3128 21.305 25.9466 20.7668 26.4316 20.1053C26.9165 20.7668 27.5504 21.305 28.2818 21.6762C29.0133 22.0474 29.8218 22.2413 30.6421 22.2421H30.6737C31.4939 22.2413 32.3025 22.0474 33.034 21.6762C33.7654 21.305 34.3993 20.7668 34.8842 20.1053C35.3199 20.6919 35.8739 21.1806 36.5103 21.5396C37.1468 21.8986 37.8515 22.12 38.5789 22.1895V49.6947ZM42.2947 16.9789C42.2947 17.8165 41.962 18.6197 41.3698 19.2119C40.7776 19.8041 39.9744 20.1368 39.1368 20.1368H39.0947C38.2572 20.1368 37.454 19.8041 36.8618 19.2119C36.2696 18.6197 35.9368 17.8165 35.9368 16.9789V13.179H42.2947V16.9789Z" fill="black"/>
<path d="M32.9896 42.6948L27.3581 37.0632C28.3056 35.1823 28.5522 33.0254 28.0535 30.9791C27.5549 28.9329 26.3436 27.1312 24.6369 25.8972C22.9302 24.6631 20.8397 24.0774 18.7402 24.245C16.6408 24.4127 14.6697 25.3227 13.1805 26.812C11.6912 28.3012 10.7812 30.2723 10.6136 32.3717C10.4459 34.4711 11.0317 36.5616 12.2657 38.2683C13.4998 39.975 15.3014 41.1863 17.3477 41.685C19.3939 42.1837 21.5508 41.9371 23.4317 40.9895L29.0633 46.6211C29.5873 47.1253 30.2882 47.4038 31.0154 47.3968C31.7425 47.3897 32.4379 47.0978 32.9521 46.5836C33.4663 46.0694 33.7583 45.374 33.7653 44.6468C33.7723 43.9197 33.4938 43.2188 32.9896 42.6948ZM19.4528 39.8316C17.8903 39.8334 16.3755 39.2932 15.1667 38.3032C13.9578 37.3132 13.1297 35.9346 12.8235 34.4023C12.5173 32.8701 12.752 31.2791 13.4874 29.9005C14.2229 28.522 15.4137 27.4411 16.8569 26.8421C18.3 26.2432 19.9062 26.1633 21.4017 26.616C22.8972 27.0687 24.1894 28.0261 25.0581 29.3249C25.9268 30.6236 26.3182 32.1835 26.1656 33.7385C26.013 35.2936 25.3258 36.7476 24.2212 37.8527C23.5964 38.481 22.8533 38.9793 22.0349 39.319C21.2165 39.6587 20.3389 39.8329 19.4528 39.8316ZM31.5054 45.1264C31.3803 45.2517 31.211 45.3231 31.0339 45.325C30.8568 45.327 30.6859 45.2595 30.5581 45.1369L25.2107 39.7895C25.3888 39.6499 25.5576 39.4987 25.716 39.3369C25.8717 39.1797 26.0193 39.0145 26.1581 38.8422L31.5054 44.179C31.5679 44.241 31.6175 44.3148 31.6514 44.3961C31.6853 44.4774 31.7027 44.5646 31.7027 44.6527C31.7027 44.7407 31.6853 44.8279 31.6514 44.9092C31.6175 44.9905 31.5679 45.0643 31.5054 45.1264Z" fill="black"/>
</svg>
