<svg width="32" height="35" viewBox="0 0 32 35" fill="none" xmlns="http://www.w3.org/2000/svg">
<path d="M30.3334 8.33325H13.2223C11.1446 8.33325 9.55566 9.92214 9.55566 11.9999C9.55566 14.0777 11.1446 15.6666 13.2223 15.6666H30.3334V33.9999" stroke="#077FC8" stroke-width="2" stroke-miterlimit="10" stroke-linecap="round" stroke-linejoin="round"/>
<path d="M30.3334 34H13.2223C11.1446 34 9.55566 32.4111 9.55566 30.3333V12" stroke="#077FC8" stroke-width="2" stroke-miterlimit="10" stroke-linecap="round" stroke-linejoin="round"/>
<path d="M30.3333 12H13.2222" stroke="#077FC8" stroke-width="2" stroke-miterlimit="10" stroke-linecap="round" stroke-linejoin="round"/>
<path d="M21.7778 1H4.66667C2.58889 1 1 2.58889 1 4.66667C1 6.74444 2.58889 8.33333 4.66667 8.33333H14.4444" stroke="#077FC8" stroke-width="2" stroke-miterlimit="10" stroke-linecap="round" stroke-linejoin="round"/>
<path d="M9.55556 26.6667H4.66667C2.58889 26.6667 1 25.0779 1 23.0001V4.66675" stroke="#077FC8" stroke-width="2" stroke-miterlimit="10" stroke-linecap="round" stroke-linejoin="round"/>
<path d="M21.7776 4.66675H4.6665" stroke="#077FC8" stroke-width="2" stroke-miterlimit="10" stroke-linecap="round" stroke-linejoin="round"/>
</svg>
