<svg width="33" height="33" viewBox="0 0 33 33" fill="none" xmlns="http://www.w3.org/2000/svg">
<path d="M30.9375 19.5938H26.8125V15.4688H24.75V24.75H8.25V8.25L17.5312 8.24907V6.1875H13.4062V2.0625H11.3438V6.1875H8.25C7.70316 6.18805 7.17887 6.40552 6.7922 6.7922C6.40552 7.17887 6.18805 7.70316 6.1875 8.25V11.3438H2.0625V13.4062H6.1875V19.5938H2.0625V21.6562H6.1875V24.75C6.18813 25.2968 6.40563 25.8211 6.79229 26.2077C7.17894 26.5944 7.70318 26.8119 8.25 26.8125H11.3438V30.9375H13.4062V26.8125H19.5938V30.9375H21.6562V26.8125H24.75C25.2968 26.8118 25.821 26.5942 26.2076 26.2076C26.5942 25.821 26.8118 25.2968 26.8125 24.75V21.6562H30.9375V19.5938Z" fill="#077FC8"/>
<path d="M26.8125 2.0625C25.7188 2.06365 24.6703 2.49861 23.8969 3.27195C23.1236 4.04529 22.6886 5.09383 22.6875 6.1875C22.6914 6.92155 22.8934 7.64094 23.272 8.2698L20.198 11.3438H11.3438V21.6562H21.6562V12.802L24.7302 9.72809C25.3591 10.1067 26.0785 10.3086 26.8125 10.3125C27.9065 10.3125 28.9557 9.8779 29.7293 9.10432C30.5029 8.33073 30.9375 7.28152 30.9375 6.1875C30.9375 5.09348 30.5029 4.04427 29.7293 3.27068C28.9557 2.4971 27.9065 2.0625 26.8125 2.0625ZM19.5938 19.5938H13.4062V13.4062H19.5938V19.5938ZM26.8125 8.25C26.4046 8.25 26.0058 8.12904 25.6666 7.90241C25.3275 7.67578 25.0631 7.35366 24.907 6.97678C24.7509 6.59991 24.71 6.18521 24.7896 5.78513C24.8692 5.38504 25.0656 5.01754 25.3541 4.72909C25.6425 4.44065 26.01 4.24421 26.4101 4.16463C26.8102 4.08505 27.2249 4.12589 27.6018 4.282C27.9787 4.4381 28.3008 4.70246 28.5274 5.04164C28.754 5.38081 28.875 5.77958 28.875 6.1875C28.8744 6.73432 28.6569 7.25856 28.2702 7.64521C27.8836 8.03187 27.3593 8.24937 26.8125 8.25Z" fill="#077FC8"/>
</svg>
