<svg width="33" height="33" viewBox="0 0 33 33" fill="none" xmlns="http://www.w3.org/2000/svg">
<path d="M31.6795 14.7121C30.8404 14.0394 29.7574 13.7877 28.707 14.022L21.6935 15.5862V13.4706C21.6935 12.3168 20.8454 11.3574 19.7399 11.1825C20.2984 10.3175 20.6241 9.28876 20.6241 8.18474C20.6241 5.12817 18.1374 2.64149 15.0809 2.64149C14.2158 2.64149 13.3966 2.84091 12.6663 3.19579C11.414 1.20934 9.24693 0 6.86383 0C3.07913 6.44534e-05 0 3.07926 0 6.86403C0 8.80762 0.813273 10.5637 2.11581 11.8137C1.68455 12.2347 1.41604 12.8218 1.41604 13.4706V27.8655C1.41604 29.143 2.45535 30.1824 3.73288 30.1824H7.17953C7.06377 30.3755 6.99596 30.6008 6.99596 30.8423C6.99596 31.5532 7.57224 32.1294 8.2831 32.1294H14.5894C15.3003 32.1294 15.8765 31.5532 15.8765 30.8423C15.8765 30.6007 15.8087 30.3755 15.693 30.1824H19.3766C20.6541 30.1824 21.6934 29.143 21.6934 27.8655V25.7497L28.6494 27.4239C28.9258 27.4905 29.2049 27.5232 29.4817 27.5232C30.263 27.5232 31.0257 27.2624 31.6563 26.7655C32.5102 26.0927 33 25.0833 33 23.9962V17.4629C33.0001 16.3875 32.5189 15.3848 31.6795 14.7121ZM15.0809 5.21576C16.718 5.21576 18.0499 6.54763 18.0499 8.18474C18.0499 9.82186 16.718 11.1537 15.0809 11.1537C13.4438 11.1537 12.1119 9.82186 12.1119 8.18474C12.1119 6.54763 13.4437 5.21576 15.0809 5.21576ZM2.57427 6.86403C2.57427 4.49865 4.49859 2.57433 6.86396 2.57433C8.46266 2.57433 9.9059 3.44529 10.6538 4.85321C9.95366 5.78134 9.53775 6.93525 9.53775 8.18474C9.53775 8.81219 9.64409 9.4149 9.83707 9.97771C9.79105 10.0088 9.74599 10.042 9.70326 10.0797C8.91964 10.7723 7.91133 11.1537 6.86403 11.1537C4.49859 11.1537 2.57427 9.2294 2.57427 6.86403ZM19.1193 18.1286V23.1954V27.608H3.99037V13.728H19.1193V18.1286ZM30.4259 23.9962C30.4259 24.3979 30.1987 24.6367 30.0632 24.7435C29.9278 24.8503 29.6422 25.015 29.2518 24.9212L21.6936 23.102V18.2236L29.2675 16.5344C29.6556 16.4479 29.9365 16.614 30.0696 16.7206C30.2028 16.8273 30.426 17.0656 30.426 17.4629L30.4259 23.9962Z" fill="#077FC8"/>
</svg>
