<svg width="33" height="33" viewBox="0 0 33 33" fill="none" xmlns="http://www.w3.org/2000/svg">
<path fill-rule="evenodd" clip-rule="evenodd" d="M8.38455 16.5988C8.36066 16.6523 8.34017 16.708 8.32424 16.766C8.32424 16.766 6.41748 23.7605 5.45387 27.2907C4.97832 29.0348 5.94422 30.8482 7.65757 31.4239C13.8192 33.5286 18.6794 33.5274 24.8411 31.4079C26.5396 30.8357 27.5021 29.0313 27.0288 27.2941C26.08 23.7628 24.1721 16.766 24.1721 16.766C24.1459 16.6693 24.1072 16.5795 24.0595 16.4964C24.2551 16.1562 24.3951 15.7785 24.4656 15.3735L24.9013 12.8672C26.2392 14.1232 28.3417 14.097 29.6478 12.791L31.3827 11.056C32.6398 9.79889 32.7206 7.78748 31.5693 6.43251C30.2189 4.84317 28.2018 2.46997 27.1642 1.2481C26.5237 0.494958 25.5896 0.0569441 24.6021 0.0455673C23.13 0.0285021 20.6112 6.78217e-05 20.6112 6.78217e-05C20.0878 -0.00562057 19.6271 0.34706 19.4963 0.853327C19.1174 2.32548 17.7795 3.4131 16.1913 3.4131C14.602 3.4131 13.2652 2.32548 12.8852 0.853327C12.7544 0.34706 12.2947 -0.00562057 11.7714 6.78217e-05C11.7714 6.78217e-05 9.25145 0.0285021 7.78044 0.0455673C6.79179 0.0569441 5.85774 0.494958 5.21837 1.2481C4.17967 2.46997 2.16372 4.84317 0.812156 6.43251C-0.339174 7.78748 -0.257287 9.79889 0.999848 11.056L2.73369 12.791C4.04088 14.097 6.14332 14.1232 7.48123 12.8672L7.91695 15.3735C7.99431 15.8206 8.15588 16.2336 8.38455 16.5988ZM10.2913 18.2029H22.205C22.7398 20.1654 24.0834 25.1029 24.832 27.8891C24.832 27.8891 24.8331 27.8914 24.8331 27.8937C24.9901 28.4671 24.6715 29.0644 24.1072 29.2532C24.105 29.2543 24.1027 29.2555 24.1004 29.2566C18.4678 31.1941 14.0252 31.1941 8.3891 29.2691C8.38682 29.2691 8.38568 29.268 8.3834 29.268C7.81229 29.0757 7.4903 28.4716 7.64958 27.8903L10.2913 18.2029ZM21.4007 2.28452L24.576 2.32092C24.9048 2.32434 25.2165 2.4711 25.4304 2.72139L29.8355 7.9058C30.22 8.35746 30.1927 9.02868 29.7729 9.44735L28.0391 11.1812C27.5942 11.626 26.8741 11.626 26.4304 11.1812L24.9594 9.71129C24.659 9.41094 24.2165 9.30287 23.8115 9.43029C23.4065 9.55884 23.1061 9.90243 23.0333 10.3211C23.0333 10.3211 22.56 13.0492 22.2233 14.9844C22.1288 15.5294 21.6556 15.9276 21.1026 15.9276H11.2788C10.7259 15.9276 10.2526 15.5294 10.1582 14.9844C9.82256 13.0492 9.34815 10.3211 9.34815 10.3211C9.27533 9.90243 8.97614 9.55884 8.57113 9.43029C8.16612 9.30287 7.72356 9.41094 7.42321 9.71129L5.95219 11.1812C5.50736 11.626 4.78721 11.626 4.34351 11.1812L2.60853 9.44735C2.18986 9.02868 2.16256 8.35746 2.54596 7.9058L6.95221 2.72139C7.16496 2.4711 7.47668 2.32434 7.80547 2.32092L10.9807 2.28452C11.8613 4.28797 13.8636 5.68846 16.1913 5.68846C18.5179 5.68846 20.5201 4.28797 21.4007 2.28452Z" fill="#077FC8"/>
</svg>
