<svg width="33" height="33" viewBox="0 0 33 33" fill="none" xmlns="http://www.w3.org/2000/svg">
<path d="M31.9659 9.72801L31.2244 8.98648L31.4997 8.71117C32.8727 7.33866 32.8727 5.10428 31.4997 3.73058L28.7663 0.998275C27.4359 -0.33158 25.1168 -0.333937 23.7863 0.998275L23.5113 1.27334L23.3364 1.09845C22.0013 -0.236001 19.673 -0.237179 18.3368 1.09845L17.057 2.37881C16.3895 3.04633 16.0212 3.93423 16.0212 4.87859C16.0212 5.82295 16.3895 6.71085 17.057 7.37837L19.1197 9.44104L9.46588 19.0949L7.31341 16.9424C5.93464 15.5636 3.6926 15.5636 2.31384 16.9424L1.03407 18.2222C-0.344691 19.6009 -0.344691 21.8435 1.03407 23.2223L1.77561 23.9638L1.5003 24.2391C0.127311 25.6117 0.127311 27.846 1.5003 29.2197L4.23367 31.952C4.89895 32.6173 5.78285 32.9839 6.72426 32.9839C7.66461 32.9839 8.54851 32.6173 9.21367 31.952L9.48874 31.677L9.66363 31.8519C10.3312 32.5194 11.2185 32.8871 12.1634 32.8871C13.1072 32.8871 13.9957 32.5194 14.6632 31.8519L15.943 30.5715C16.6105 29.904 16.9788 29.0161 16.9788 28.0717C16.9788 27.1274 16.6105 26.2395 15.943 25.572L13.8803 23.5093L23.5341 13.8555L25.6866 16.0079C26.376 16.6974 27.2806 17.042 28.1864 17.042C29.0922 17.042 29.9967 16.6973 30.6862 16.0079L31.9659 14.7282C33.3447 13.3494 33.3447 11.1068 31.9659 9.72801ZM25.4529 2.66484C25.8925 2.22289 26.6602 2.22407 27.0999 2.66484L29.8333 5.39714C30.2868 5.85123 30.2868 6.59064 29.8333 7.04461L29.558 7.31992L25.1778 2.93979L25.4529 2.66484ZM7.54711 30.2856C7.10634 30.727 6.33864 30.7247 5.90011 30.2856L3.16674 27.5533C2.71324 27.0992 2.71324 26.3598 3.16674 25.9058L3.44205 25.6305L7.82218 30.0107L7.54711 30.2856ZM14.6217 28.0719C14.6217 28.3866 14.4997 28.6824 14.2764 28.9045L12.9966 30.1848C12.5523 30.632 11.7744 30.6302 11.3301 30.1854L2.70052 21.5559C2.24136 21.0961 2.24136 20.3486 2.70052 19.8887L3.98028 18.6089C4.21045 18.3794 4.51204 18.2642 4.81351 18.2642C5.11497 18.2642 5.41656 18.3794 5.64673 18.6089L14.2763 27.2391C14.4996 27.4613 14.6217 27.7572 14.6217 28.0719ZM12.2137 21.8428L11.1324 20.7615L20.7863 11.1077L21.8676 12.189L12.2137 21.8428ZM30.2994 13.0617L29.0196 14.3415C28.5593 14.8006 27.8135 14.8006 27.353 14.3415L18.7235 5.71134C18.5001 5.48919 18.3782 5.19338 18.3782 4.87871C18.3782 4.56404 18.5001 4.26811 18.7235 4.04608L20.0032 2.76572C20.2254 2.54298 20.5223 2.42041 20.8365 2.42041C21.1518 2.42041 21.4477 2.54239 21.6697 2.76513L30.2992 11.3947C30.7584 11.8544 30.7585 12.6019 30.2994 13.0617Z" fill="#077FC8"/>
</svg>
