<svg width="35" height="28" viewBox="0 0 35 28" fill="none" xmlns="http://www.w3.org/2000/svg">
<path d="M21.1667 17.5H26.6667M21.1667 10.1667H26.6667M12 9.25V7.41667M12 9.25H15.6669M12 9.25C8.70213 9.24993 8.33673 10.0424 8.33352 11.6929C8.33029 13.3435 8.3335 13.8333 12.0002 13.8333C15.6668 13.8333 15.6669 14.2101 15.6669 15.9723C15.6669 17.2965 15.6668 18.4167 12.0002 18.4167M12.0002 18.4167L12 20.25M12.0002 18.4167H8.33352M6.86667 26.6667H28.1333C30.1868 26.6667 31.2137 26.6667 31.998 26.267C32.6879 25.9155 33.2489 25.3546 33.6003 24.6647C34 23.8804 34 22.8535 34 20.8V6.86667C34 4.81315 34 3.78637 33.6003 3.00204C33.2489 2.3121 32.6879 1.75117 31.998 1.39965C31.2137 1 30.1868 1 28.1333 1H6.86667C4.81315 1 3.78637 1 3.00204 1.39965C2.3121 1.75117 1.75117 2.3121 1.39965 3.00204C1 3.78637 1 4.81313 1 6.86667V20.8C1 22.8535 1 23.8804 1.39965 24.6647C1.75117 25.3546 2.3121 25.9155 3.00204 26.267C3.78637 26.6667 4.81313 26.6667 6.86667 26.6667Z" stroke="#077FC8" stroke-width="2" stroke-linecap="round" stroke-linejoin="round"/>
</svg>
