<svg width="35" height="35" viewBox="0 0 35 35" fill="none" xmlns="http://www.w3.org/2000/svg">
<path d="M3.76187 13.5441C0.328725 10.111 0.328725 4.69718 3.76187 1.26404L18.4188 15.9209L23.3044 20.8066L30.8309 28.3331C32.1514 29.6535 32.1514 31.6342 30.8309 32.9546C29.5105 34.2751 27.1337 34.2751 25.9453 32.6905L20.5315 25.9563C19.211 24.2397 16.8342 23.7115 14.7215 24.5038L3.76187 13.5441Z" stroke="#077FC8" stroke-width="2" stroke-miterlimit="10" stroke-linecap="round" stroke-linejoin="round"/>
<path d="M23.3042 11.6956L30.4346 4.56519" stroke="#077FC8" stroke-width="2" stroke-miterlimit="10" stroke-linecap="round" stroke-linejoin="round"/>
<path d="M20.3994 17.9015C20.9276 17.7695 21.3237 17.7695 21.8519 17.6374C23.5685 17.5054 25.5491 16.5811 27.5298 14.6004L34 8.13025" stroke="#077FC8" stroke-width="2" stroke-miterlimit="10" stroke-linecap="round" stroke-linejoin="round"/>
<path d="M11.4203 21.2028L2.17719 28.7293C0.724706 29.7856 0.592661 31.8983 1.9131 33.0867C3.23354 34.4072 5.21421 34.1431 6.27056 32.8226L13.7971 23.4475" stroke="#077FC8" stroke-width="2" stroke-miterlimit="10" stroke-linecap="round" stroke-linejoin="round"/>
<path d="M26.8696 1L20.2674 7.47016C18.2867 9.45082 17.2304 11.4315 17.2304 13.1481C17.2304 13.6762 17.0984 14.0724 16.9663 14.6005" stroke="#077FC8" stroke-width="2" stroke-miterlimit="10" stroke-linecap="round" stroke-linejoin="round"/>
</svg>
