<svg width="30" height="33" viewBox="0 0 30 33" fill="none" xmlns="http://www.w3.org/2000/svg">
<path d="M14.85 0L13.9219 0.663867L12.9712 1.27939L11.9851 1.85303L10.9796 2.38154L9.94834 2.86172L8.89453 3.29355L7.82461 3.68027L6.73857 4.01543L5.63965 4.29902L4.52461 4.53428L3.3999 4.71475L2.27197 4.84365L1.1376 4.92422L0 4.95L0.0257813 6.32607L0.10957 7.69893L0.248145 9.06855L0.444727 10.4317L0.696094 11.7853L0.999023 13.1259L1.35674 14.4536L1.76924 15.7652L2.2333 17.0607L2.75215 18.3369L3.32256 19.5905L3.94131 20.8184L4.6084 22.0236L5.32383 23.1967L6.0876 24.3407L6.89971 25.4558L7.75371 26.5354L8.64961 27.5763L9.5874 28.5817L10.5671 29.5518L11.5855 30.4767L12.6393 31.3629L13.7285 32.204L14.85 33L15.9715 32.204L17.0607 31.3629L18.1146 30.4767L19.1329 29.5518L20.1126 28.5817L21.0504 27.5763L21.9463 26.5354L22.8003 25.4558L23.6092 24.3407L24.373 23.1967L25.0916 22.0236L25.7587 20.8184L26.3774 19.5905L26.9479 18.3369L27.4635 17.0607L27.9275 15.7652L28.34 14.4536L28.701 13.1259L29.0071 11.7853L29.2553 10.4317L29.4519 9.06855L29.5904 7.69893L29.6742 6.32607L29.7 4.95L28.5624 4.92422L27.428 4.84365L26.3001 4.71475L25.1754 4.53428L24.0604 4.29902L22.9614 4.01543L21.8754 3.68027L20.8022 3.29355L19.7517 2.86172L18.7204 2.38154L17.7117 1.85303L16.7288 1.27939L15.7749 0.663867L14.85 0ZM14.85 2.02705L15.8361 2.66514L16.848 3.25811L17.8825 3.80918L18.946 4.31191L20.0256 4.76309L21.1277 5.16914L22.246 5.52686L23.3804 5.82978L24.5244 6.0876L25.6781 6.29063L26.8415 6.44531L28.0113 6.54844L27.9211 7.84717L27.7761 9.14268L27.5827 10.435L27.3346 11.7144L27.0349 12.9841L26.6836 14.2409L26.284 15.4784L25.836 16.703L25.3333 17.9083L24.7887 19.091L24.1925 20.2512L23.5512 21.3855L22.8615 22.4941L22.1332 23.577L21.3598 24.6243L20.5444 25.6427L19.6872 26.6256L18.7913 27.573L17.86 28.4851L16.8899 29.3552L15.8845 30.1898L14.85 30.9826L13.8155 30.1898L12.8101 29.3552L11.8433 28.4851L10.9087 27.573L10.0128 26.6256L9.15557 25.6427L8.34346 24.6243L7.5668 23.577L6.83848 22.4941L6.14883 21.3855L5.50752 20.2512L4.91455 19.091L4.36348 17.9083L3.86719 16.703L3.41602 15.4784L3.01641 14.2409L2.66514 12.9841L2.36543 11.7144L2.11729 10.435L1.92393 9.14268L1.77891 7.84717L1.68867 6.54844L2.85527 6.44531L4.01865 6.29063L5.17559 6.0876L6.32285 5.82978L7.454 5.52686L8.57227 5.16914L9.67441 4.76309L10.754 4.31191L11.8175 3.80918L12.8552 3.25811L13.8639 2.66514L14.85 2.02705ZM21.4629 10.7186C21.2488 10.7245 21.0454 10.8135 20.8957 10.9667L13.229 18.6334L10.5123 15.9167C9.73473 15.1069 8.53587 16.3057 9.3457 17.0833L12.6457 20.3833C12.9679 20.7054 13.4901 20.7054 13.8123 20.3833L22.0623 12.1333C22.599 11.6086 22.2132 10.698 21.4629 10.7186Z" fill="#077FC8"/>
</svg>
