<svg width="77" height="60" viewBox="0 0 77 60" fill="none" xmlns="http://www.w3.org/2000/svg">
<path d="M72.6861 0.000149875H44.6615C43.9833 0.000149875 43.4337 0.549891 43.4337 1.228C43.4337 1.9061 43.9833 2.45584 44.6615 2.45584H72.6861C73.5882 2.45584 74.3221 3.18988 74.3221 4.09202V11.6597H29.1914V4.09187C29.1914 3.18973 29.9252 2.45569 30.8274 2.45569H39.7504C40.4287 2.45569 40.9783 1.90595 40.9783 1.22785C40.9783 0.549741 40.4287 0 39.7504 0H30.8275C28.5713 0 26.7358 1.83562 26.7358 4.09187V12.8873V18.4988H4.09187C1.83562 18.4987 0 20.3343 0 22.5907V55.9083C0 58.1642 1.83562 60 4.09187 60H45.9504C48.2066 60 50.0423 58.1644 50.0423 55.9081V41.5012H72.6862C74.9425 41.5012 76.7779 39.6657 76.7779 37.4093V4.09187C76.7778 1.83577 74.9423 0.000149875 72.6861 0.000149875ZM29.1914 14.115H32.4654V18.4987H29.1914V14.115ZM2.45554 22.5907C2.45554 21.6884 3.18943 20.9545 4.09172 20.9545H45.9502C46.8291 20.9545 47.5858 21.7138 47.5864 22.5907V30.1584H2.45554V22.5907ZM47.5869 34.5436V40.2733V55.9081C47.5869 56.8103 46.853 57.5443 45.9507 57.5443H4.09187C3.18958 57.5443 2.45569 56.8103 2.45569 55.9081V32.6138H5.72985V39.8268C5.72985 40.5049 6.27944 41.0546 6.9577 41.0546C7.63595 41.0546 8.18555 40.5049 8.18555 39.8268V32.6138H41.8573V51.8146H8.18525V44.6873C8.18525 44.0092 7.63566 43.4595 6.9574 43.4595C6.27915 43.4595 5.72955 44.0092 5.72955 44.6873V53.0425C5.72955 53.7206 6.27915 54.2703 6.9574 54.2703H43.0847C43.763 54.2703 44.3126 53.7206 44.3126 53.0425V32.6138H47.5867V34.5436H47.5869ZM74.3224 37.4093C74.3224 38.3114 73.5885 39.0455 72.6864 39.0455H50.0424V35.7713H60.1591C60.8374 35.7713 61.387 35.2216 61.387 34.5435C61.387 33.8654 60.8374 33.3156 60.1591 33.3156H50.0424C50.0424 33.3156 50.0424 22.591 50.0424 22.5898C50.0342 22.0459 49.9313 21.4939 49.7184 20.9925C49.2286 19.8387 48.211 18.9802 47.0256 18.6494C46.6757 18.5516 46.3143 18.4988 45.9508 18.4988H34.9214V14.115H68.5928V33.3158H65.0703C64.3921 33.3158 63.8425 33.8655 63.8425 34.5436C63.8425 35.2217 64.3921 35.7715 65.0703 35.7715H69.8207C70.4989 35.7715 71.0485 35.2217 71.0485 34.5436V14.115H74.3227V37.4093H74.3224Z" fill="black"/>
</svg>
