<svg width="15" height="33" viewBox="0 0 15 33" fill="none" xmlns="http://www.w3.org/2000/svg">
<path d="M11.7028 8.59353C11.6724 8.41643 11.6143 8.2468 11.5439 8.08144L14.4969 3.27205C14.9029 2.6138 14.9205 1.77792 14.5439 1.1026C14.1667 0.427276 13.4541 0.0053344 12.6811 0.0053344L2.1342 0C1.36073 0 0.648072 0.418208 0.270939 1.09353C-0.106195 1.76885 -0.088592 2.59459 0.317347 3.25338L3.27094 8.08144C3.20106 8.2468 3.14238 8.41696 3.11198 8.59406L0.0308965 26.6053C-0.106728 27.4054 0.222396 28.2525 0.879046 28.7299L6.15252 32.5823C6.52645 32.8544 6.96706 33 7.40714 33C7.84722 33 8.2873 32.8682 8.66177 32.5962L13.9352 28.7656C14.5919 28.2877 14.9215 27.4795 14.7839 26.6794L11.7028 8.59353ZM12.6806 2.18866L9.90732 6.70519C9.8065 6.68759 9.70462 6.67212 9.60006 6.67212H5.21528C5.11073 6.67212 5.00938 6.68706 4.9091 6.70466L2.1342 2.16945L12.6806 2.18866ZM7.37407 30.8124L2.11767 26.8613L5.1246 9.33393C5.15501 9.33499 5.18435 9.34033 5.21475 9.34033H9.55312L12.6145 26.9163L7.37407 30.8124Z" fill="#077FC8"/>
<path d="M5.83797 13.6009C5.54512 13.5502 5.27147 13.7455 5.22186 14.0362L3.85308 22.0035C3.80294 22.2936 3.99764 22.5694 4.28836 22.619C4.3193 22.6244 4.34917 22.627 4.37904 22.627C4.63402 22.627 4.85966 22.4435 4.90394 22.1838L6.27271 14.2165C6.32286 13.9268 6.12815 13.651 5.83797 13.6009Z" fill="#077FC8"/>
<path d="M4.04015 24.0604C3.7505 24.0092 3.47418 24.2049 3.42458 24.4957L3.20694 25.7631C3.15733 26.0533 3.35203 26.3296 3.64275 26.3787C3.67315 26.384 3.70356 26.3867 3.73343 26.3867C3.98841 26.3867 4.21405 26.2032 4.25832 25.9434L4.47596 24.676C4.5261 24.3858 4.33087 24.1095 4.04015 24.0604Z" fill="#077FC8"/>
</svg>
