<svg width="33" height="33" viewBox="0 0 33 33" fill="none" xmlns="http://www.w3.org/2000/svg">
<path d="M32.9684 15.9991C32.9675 15.9881 32.9671 15.9772 32.9659 15.9663C32.9638 15.9476 32.9606 15.929 32.9574 15.9104C32.9553 15.8979 32.9535 15.8854 32.951 15.8732C32.9477 15.8579 32.9433 15.8427 32.9392 15.8275C32.9352 15.8123 32.9314 15.797 32.9266 15.7821C32.9227 15.7702 32.918 15.7584 32.9136 15.7466C32.907 15.7289 32.9006 15.7111 32.893 15.6939C32.8886 15.684 32.8835 15.6743 32.8788 15.6644C32.8699 15.646 32.8609 15.6277 32.8509 15.6099C32.8492 15.607 32.848 15.604 32.8463 15.6011L30.0434 10.7462C29.7845 10.2977 29.2108 10.1437 28.7623 10.4029C28.3138 10.6619 28.1601 11.2354 28.4191 11.684L30.4098 15.1321H22.4467L26.9697 7.29814H32.0621C32.5801 7.29814 33 6.87817 33 6.36029C33 5.84241 32.5802 5.42243 32.0621 5.42243H20.0351C19.6994 4.15812 18.7021 3.16084 17.4378 2.82517V0.937856C17.4378 0.419976 17.0179 0 16.4999 0C15.982 0 15.562 0.419976 15.562 0.937856V3.64082C15.562 4.1587 15.9819 4.57868 16.4999 4.57868C16.5005 4.57868 16.5011 4.57861 16.5017 4.57861C17.4835 4.57964 18.2818 5.37847 18.2818 6.36042C18.2818 7.34268 17.483 8.14177 16.5009 8.14228C16.5006 8.14228 16.5003 8.14222 16.4999 8.14222C16.4995 8.14222 16.4993 8.14228 16.4989 8.14228C15.5169 8.1417 14.718 7.34268 14.718 6.36042C14.718 5.84254 14.2981 5.42256 13.7801 5.42256H0.937856C0.419847 5.4225 0 5.84241 0 6.36029C0 6.87817 0.419847 7.29814 0.937856 7.29814H4.94741L0.15372 15.6011C0.152045 15.604 0.15082 15.607 0.149209 15.6099C0.139154 15.6277 0.130195 15.646 0.121236 15.6644C0.116531 15.6743 0.111375 15.684 0.107056 15.6939C0.099451 15.7111 0.0930057 15.7289 0.0864959 15.7466C0.0821131 15.7585 0.0774081 15.7702 0.0734764 15.7821C0.0687069 15.797 0.0648397 15.8123 0.0608436 15.8275C0.0567186 15.8427 0.0524003 15.8578 0.0491132 15.8732C0.0464706 15.8855 0.0447304 15.898 0.0426679 15.9104C0.0395097 15.929 0.0362226 15.9475 0.0341601 15.9663C0.0329355 15.9771 0.0325488 15.9881 0.0317109 15.9991C0.0302285 16.0195 0.0288105 16.0398 0.0286171 16.0601C0.0286171 16.0634 0.028166 16.0665 0.028166 16.0699V17.3124C0.028166 20.4814 2.60635 23.0597 5.77531 23.0597H7.36833C10.5374 23.0597 13.1156 20.4815 13.1156 17.3124V16.0699C13.1156 16.0666 13.1152 16.0634 13.1152 16.0601C13.115 16.0397 13.1135 16.0193 13.1121 15.9991C13.1112 15.9881 13.1108 15.9772 13.1096 15.9663C13.1075 15.9476 13.1043 15.929 13.1011 15.9104C13.099 15.8979 13.0972 15.8853 13.0947 15.8732C13.0914 15.8579 13.087 15.8427 13.0829 15.8275C13.0789 15.8123 13.0751 15.797 13.0703 15.7821C13.0664 15.7702 13.0617 15.7584 13.0573 15.7466C13.0507 15.7289 13.0443 15.7111 13.0367 15.6939C13.0323 15.684 13.0272 15.6743 13.0225 15.6644C13.0136 15.646 13.0046 15.6277 12.9946 15.6099C12.993 15.607 12.9917 15.604 12.9901 15.6011L10.0711 10.5454C9.8122 10.0968 9.2385 9.94297 8.79004 10.2021C8.34144 10.4612 8.18779 11.0347 8.44676 11.4832L10.5535 15.1321H2.5903L7.11329 7.29814H12.9649C13.3007 8.56245 14.2979 9.55973 15.5622 9.8954V25.6966H7.35622C6.83827 25.6966 6.41836 26.1166 6.41836 26.6345V31.2299C6.41836 31.7477 6.83821 32.1677 7.35622 32.1677H25.644C26.162 32.1677 26.5819 31.7477 26.5819 31.2299V26.6345C26.5819 26.1166 26.1621 25.6966 25.644 25.6966H21.0329C20.515 25.6966 20.0951 26.1166 20.0951 26.6345C20.0951 27.1524 20.5149 27.5724 21.0329 27.5724H24.7062V30.2921H8.29407V27.5724H16.5002C17.0181 27.5724 17.438 27.1524 17.438 26.6345V9.8954C18.7023 9.55973 19.6996 8.56245 20.0353 7.29814H24.804L20.0103 15.6011C20.0086 15.604 20.0074 15.607 20.0058 15.6099C19.9957 15.6277 19.9867 15.646 19.9778 15.6644C19.9731 15.6743 19.9679 15.684 19.9636 15.6939C19.956 15.7111 19.9496 15.7289 19.9431 15.7466C19.9387 15.7585 19.934 15.7702 19.93 15.7821C19.9253 15.797 19.9214 15.8123 19.9174 15.8275C19.9133 15.8427 19.909 15.8578 19.9057 15.8732C19.903 15.8855 19.9013 15.898 19.8992 15.9104C19.8961 15.929 19.8928 15.9475 19.8907 15.9663C19.8895 15.9771 19.8891 15.9881 19.8883 15.9991C19.8868 16.0195 19.8854 16.0398 19.8852 16.0601C19.8852 16.0634 19.8847 16.0665 19.8847 16.0699V17.3124C19.8847 20.4814 22.4629 23.0597 25.632 23.0597H27.2249C30.394 23.0597 32.9721 20.4815 32.9721 17.3124V16.0699C32.9721 16.0666 32.9716 16.0634 32.9716 16.0601C32.9711 16.0398 32.9698 16.0195 32.9684 15.9991ZM11.2399 17.3125C11.2399 19.4473 9.50314 21.184 7.36833 21.184H5.77531C3.6405 21.184 1.90381 19.4471 1.90381 17.3125V17.0079H11.2399V17.3125ZM31.0963 17.3125C31.0963 19.4473 29.3595 21.184 27.2248 21.184H25.6317C23.4969 21.184 21.7602 19.4471 21.7602 17.3125V17.0079H31.0963V17.3125Z" fill="#077FC8"/>
</svg>
