<svg width="60" height="60" viewBox="0 0 60 60" fill="none" xmlns="http://www.w3.org/2000/svg">
<path d="M14.7364 5.87372C14.7302 6.2887 14.6014 6.69258 14.3664 7.03461C14.1313 7.37664 13.8004 7.64156 13.4152 7.79607C13.03 7.95058 12.6077 7.98779 12.2014 7.90303C11.7951 7.81827 11.423 7.61531 11.1317 7.31966C10.8404 7.02402 10.643 6.64888 10.5643 6.24138C10.4856 5.83389 10.5291 5.41222 10.6893 5.02937C10.8496 4.64652 11.1194 4.31957 11.4649 4.0896C11.8104 3.85964 12.2161 3.73692 12.6312 3.73688C13.1932 3.74271 13.73 3.97072 14.1245 4.37109C14.519 4.77147 14.7389 5.31168 14.7364 5.87372Z" fill="black"/>
<path d="M8.4205 5.87372C8.41427 6.2887 8.28553 6.69258 8.05045 7.03461C7.81536 7.37664 7.48443 7.64156 7.09924 7.79607C6.71405 7.95058 6.29178 7.98779 5.8855 7.90303C5.47922 7.81827 5.10706 7.61531 4.81578 7.31966C4.52451 7.02402 4.32711 6.64888 4.24841 6.24138C4.1697 5.83389 4.2132 5.41222 4.37343 5.02937C4.53365 4.64652 4.80347 4.31957 5.14896 4.0896C5.49445 3.85964 5.90021 3.73692 6.31523 3.73688C6.87725 3.74271 7.41412 3.97072 7.80858 4.37109C8.20304 4.77147 8.42303 5.31168 8.4205 5.87372Z" fill="black"/>
<path d="M21.0523 5.87372C21.0461 6.2887 20.9174 6.69258 20.6823 7.03461C20.4472 7.37664 20.1163 7.64156 19.7311 7.79607C19.3459 7.95058 18.9236 7.98779 18.5173 7.90303C18.1111 7.81827 17.7389 7.61531 17.4476 7.31966C17.1563 7.02402 16.9589 6.64888 16.8802 6.24138C16.8015 5.83389 16.845 5.41222 17.0053 5.02937C17.1655 4.64652 17.4353 4.31957 17.7808 4.0896C18.1263 3.85964 18.532 3.73692 18.9471 3.73688C19.5091 3.74271 20.046 3.97072 20.4404 4.37109C20.8349 4.77147 21.0549 5.31168 21.0523 5.87372Z" fill="black"/>
<path d="M57.8947 0H2.10526C1.54743 0.00166603 1.01291 0.224005 0.618458 0.618458C0.224005 1.01291 0.00166603 1.54743 0 2.10526V57.8947C0.00166603 58.4526 0.224005 58.9871 0.618458 59.3815C1.01291 59.776 1.54743 59.9983 2.10526 60H57.8947C58.4526 59.9983 58.9871 59.776 59.3815 59.3815C59.776 58.9871 59.9983 58.4526 60 57.8947V2.10526C59.9983 1.54743 59.776 1.01291 59.3815 0.618458C58.9871 0.224005 58.4526 0.00166603 57.8947 0ZM57.8947 57.8947H2.10526V11.7579H57.8947V57.8947ZM57.8947 9.65263H2.10526V2.10526H57.8947V9.65263Z" fill="black"/>
<path d="M55.4838 6.74748C55.6785 6.94609 55.7867 7.21366 55.7847 7.49175C55.7827 7.76985 55.6708 8.03586 55.4733 8.23169C55.3776 8.3299 55.263 8.40761 55.1363 8.46009C55.0096 8.51257 54.8736 8.53872 54.7365 8.53695C54.597 8.53781 54.4588 8.51025 54.3303 8.45596C54.2018 8.40167 54.0857 8.32178 53.9891 8.22116L53.1575 7.37906L52.326 8.22116C52.2293 8.32178 52.1133 8.40167 51.9848 8.45596C51.8563 8.51025 51.7181 8.53781 51.5786 8.53695C51.4415 8.53872 51.3054 8.51257 51.1788 8.46009C51.0521 8.40761 50.9374 8.3299 50.8417 8.23169C50.6443 8.03586 50.5323 7.76985 50.5304 7.49175C50.5284 7.21366 50.6366 6.94609 50.8312 6.74748L51.6838 5.87379L50.8312 5.01064C50.6354 4.81051 50.5266 4.54109 50.5286 4.2611C50.5306 3.98111 50.6431 3.71325 50.8417 3.5159C51.0404 3.32124 51.3079 3.21308 51.586 3.21505C51.8641 3.21703 52.1301 3.32897 52.326 3.52643L53.1575 4.37906L53.9891 3.52643C54.1849 3.32897 54.451 3.21703 54.729 3.21505C55.0071 3.21308 55.2747 3.32124 55.4733 3.5159C55.6719 3.71325 55.7845 3.98111 55.7865 4.2611C55.7884 4.54109 55.6797 4.81051 55.4838 5.01064L54.6312 5.87379L55.4838 6.74748Z" fill="black"/>
<path d="M48.4215 5.8738C48.4215 6.15297 48.3106 6.42071 48.1132 6.61812C47.9158 6.81553 47.648 6.92643 47.3689 6.92643H43.1583C42.8792 6.92643 42.6114 6.81553 42.414 6.61812C42.2166 6.42071 42.1057 6.15297 42.1057 5.8738C42.1057 5.59462 42.2166 5.32688 42.414 5.12948C42.6114 4.93207 42.8792 4.82117 43.1583 4.82117H47.3689C47.648 4.82117 47.9158 4.93207 48.1132 5.12948C48.3106 5.32688 48.4215 5.59462 48.4215 5.8738Z" fill="black"/>
<path d="M17.5266 41.4632L21.3477 39.2632H39.9477C40.5023 39.2603 41.0456 39.1058 41.5187 38.8163C41.9918 38.5269 42.3767 38.1136 42.6319 37.6211L48.6003 26.3474C48.8779 25.816 49.0033 25.2182 48.9624 24.6201C48.9215 24.0219 48.7161 23.4467 48.3687 22.958L47.6108 21.8843C47.3307 21.491 46.9615 21.1697 46.5334 20.9465C46.1053 20.7233 45.6304 20.6046 45.1477 20.6001H45.1371L20.3266 20.6632L20.1687 19.0422C20.0974 18.2419 19.7318 17.4964 19.1427 16.95C18.5535 16.4037 17.7827 16.0952 16.9792 16.0843H11.0319C10.7527 16.0843 10.485 16.1952 10.2876 16.3926C10.0902 16.59 9.97925 16.8577 9.97925 17.1369C9.97925 17.4161 10.0902 17.6838 10.2876 17.8812C10.485 18.0786 10.7527 18.1896 11.0319 18.1896H16.9792C17.262 18.202 17.5302 18.3185 17.7323 18.5167C17.9344 18.7149 18.0561 18.9808 18.074 19.2632L19.9477 37.6422L16.4003 39.6948C15.9619 40.0034 15.6047 40.4135 15.3591 40.8901C15.1135 41.3666 14.9868 41.8955 14.9898 42.4317V42.7264C14.9819 43.5493 15.2839 44.3451 15.8358 44.9555C16.3878 45.5659 17.1492 45.9464 17.9687 46.0211C17.4311 46.8286 17.1453 47.7774 17.1477 48.7474C17.1247 49.3708 17.2276 49.9923 17.4502 50.575C17.6729 51.1576 18.0107 51.6894 18.4436 52.1385C18.8764 52.5876 19.3954 52.9448 19.9694 53.1888C20.5434 53.4328 21.1608 53.5586 21.7845 53.5586C22.4083 53.5586 23.0256 53.4328 23.5996 53.1888C24.1737 52.9448 24.6926 52.5876 25.1255 52.1385C25.5583 51.6894 25.8961 51.1576 26.1188 50.575C26.3415 49.9923 26.4444 49.3708 26.4214 48.7474C26.4207 47.786 26.139 46.8456 25.6108 46.0422H35.1582C34.6252 46.8434 34.343 47.7852 34.3477 48.7474C34.3247 49.3708 34.4276 49.9923 34.6502 50.575C34.8729 51.1576 35.2107 51.6894 35.6436 52.1385C36.0764 52.5876 36.5954 52.9448 37.1694 53.1888C37.7434 53.4328 38.3608 53.5586 38.9845 53.5586C39.6083 53.5586 40.2256 53.4328 40.7996 53.1888C41.3737 52.9448 41.8926 52.5876 42.3255 52.1385C42.7583 51.6894 43.0961 51.1576 43.3188 50.575C43.5415 49.9923 43.6444 49.3708 43.6213 48.7474C43.6207 47.786 43.339 46.8456 42.8108 46.0422H44.7161C44.9953 46.0422 45.263 45.9313 45.4604 45.7339C45.6578 45.5365 45.7687 45.2687 45.7687 44.9896C45.7687 44.7104 45.6578 44.4426 45.4604 44.2452C45.263 44.0478 44.9953 43.9369 44.7161 43.9369H18.2003C17.8938 43.9214 17.6058 43.7855 17.3988 43.5589C17.1919 43.3322 17.0827 43.0331 17.095 42.7264V42.4317C17.0933 42.2487 17.1309 42.0676 17.2054 41.9004C17.2798 41.7333 17.3894 41.5842 17.5266 41.4632ZM40.7792 36.6317C40.7008 36.786 40.5821 36.9164 40.4358 37.009C40.2894 37.1017 40.1208 37.1531 39.9477 37.158H22.0108L20.9266 26.4843L46.1477 26.4738L40.7792 36.6317ZM45.1371 22.7053H45.1477C45.2953 22.7069 45.4403 22.744 45.5704 22.8137C45.7005 22.8833 45.8119 22.9834 45.895 23.1053L46.6635 24.179C46.695 24.2317 46.7266 24.2948 46.7582 24.358L20.7056 24.379L20.5477 22.7685L45.1371 22.7053ZM38.9792 46.0422C39.5236 46.0039 40.0668 46.1304 40.5382 46.4053C41.0096 46.6801 41.3873 47.0906 41.6222 47.5831C41.857 48.0757 41.9381 48.6275 41.8548 49.1668C41.7716 49.7061 41.5278 50.2078 41.1554 50.6066C40.783 51.0055 40.2991 51.2829 39.7668 51.4028C39.2344 51.5227 38.6783 51.4795 38.1709 51.2789C37.6634 51.0783 37.2281 50.7295 36.9217 50.278C36.6153 49.8264 36.452 49.2931 36.4529 48.7474C36.4313 48.0543 36.6849 47.3807 37.1582 46.8738C37.6315 46.367 38.2862 46.068 38.9792 46.0422ZM21.7792 46.0422C22.3236 46.0039 22.8668 46.1304 23.3382 46.4053C23.8096 46.6801 24.1873 47.0906 24.4222 47.5831C24.657 48.0757 24.7381 48.6275 24.6548 49.1668C24.5716 49.7061 24.3278 50.2078 23.9554 50.6066C23.583 51.0055 23.0991 51.2829 22.5668 51.4028C22.0344 51.5227 21.4783 51.4795 20.9709 51.2789C20.4634 51.0783 20.0281 50.7295 19.7217 50.278C19.4153 49.8264 19.252 49.2931 19.2529 48.7474C19.2313 48.0543 19.4849 47.3807 19.9582 46.8738C20.4315 46.367 21.0862 46.068 21.7792 46.0422Z" fill="black"/>
</svg>
