<svg width="44" height="64" viewBox="0 0 44 64" fill="none" xmlns="http://www.w3.org/2000/svg">
<path d="M15.3333 32.5557L19.436 37L28.6667 27M12.6667 62H31.3333C35.067 62 36.934 62 38.36 61.2733C39.6143 60.6343 40.6343 59.6143 41.2733 58.36C42 56.934 42 55.067 42 51.3333V12.6667C42 8.933 42 7.06613 41.2733 5.64007C40.6343 4.38563 39.6143 3.36577 38.36 2.72663C36.934 2 35.067 2 31.3333 2H12.6667C8.933 2 7.06613 2 5.64007 2.72663C4.38563 3.36577 3.36577 4.38563 2.72663 5.64007C2 7.06613 2 8.93297 2 12.6667V51.3333C2 55.067 2 56.934 2.72663 58.36C3.36577 59.6143 4.38563 60.6343 5.64007 61.2733C7.06613 62 8.93297 62 12.6667 62Z" stroke="black" stroke-width="3" stroke-linecap="round" stroke-linejoin="round"/>
</svg>
