<svg width="52" height="58" viewBox="0 0 52 58" fill="none" xmlns="http://www.w3.org/2000/svg">
<path d="M31.6255 2.24763L46.3563 10.7524C49.8371 12.7621 51.9813 16.476 51.9813 20.4952V37.5048C51.9813 41.5241 49.8371 45.238 46.3563 47.2476L31.6255 55.7524C28.1448 57.7621 23.8563 57.7621 20.3755 55.7524L5.64477 47.2476C2.16401 45.238 0.0197754 41.5241 0.0197754 37.5048V20.4952C0.0197754 16.476 2.16401 12.7621 5.64477 10.7524L20.3755 2.24763C23.8563 0.238013 28.1448 0.238013 31.6255 2.24763ZM22.6421 5.28434L22.2505 5.49523L7.51977 14C5.3214 15.2693 3.92272 17.5583 3.78158 20.074L3.76977 20.4952V37.5048C3.76977 40.0433 5.05275 42.3991 7.16086 43.7792L7.51977 44L22.2505 52.5049C24.4421 53.7702 27.114 53.8405 29.359 52.7157L29.7505 52.5049L44.4813 44C46.6797 42.7308 48.0784 40.4418 48.2195 37.9261L48.2313 37.5048V20.4952C48.2313 17.9568 46.9483 15.601 44.8402 14.2209L44.4813 14L29.7505 5.49523C27.5589 4.22991 24.887 4.15962 22.6421 5.28434ZM39.1636 20.6701C39.6498 21.5844 39.3027 22.7198 38.3884 23.2059L27.8539 28.8063L27.854 41.498C27.854 42.5335 27.0146 43.373 25.979 43.373C24.9435 43.373 24.104 42.5335 24.104 41.498L24.1039 28.8063L13.5697 23.2059C12.6554 22.7198 12.3083 21.5844 12.7944 20.6701C13.2806 19.7558 14.4159 19.4087 15.3302 19.8949L25.9789 25.555L36.6278 19.8949C37.5422 19.4087 38.6775 19.7558 39.1636 20.6701Z" fill="black"/>
</svg>
