<svg width="81" height="64" viewBox="0 0 81 64" fill="none" xmlns="http://www.w3.org/2000/svg">
<path d="M2 15.7143C2 10.9138 2 8.5136 2.93424 6.68009C3.75599 5.06724 5.06724 3.75599 6.68009 2.93424C8.5136 2 10.9139 2 15.7143 2H65.4286C70.229 2 72.6294 2 74.4629 2.93424C76.0756 3.75599 77.387 5.06724 78.2086 6.68009C79.1429 8.5136 79.1429 10.9138 79.1429 15.7143V48.2857C79.1429 53.0861 79.1429 55.4866 78.2086 57.32C77.387 58.9327 76.0756 60.2441 74.4629 61.0657C72.6294 62 70.229 62 65.4286 62H15.7143C10.9138 62 8.5136 62 6.68009 61.0657C5.06724 60.2441 3.75599 58.9327 2.93424 57.32C2 55.4866 2 53.0861 2 48.2857V15.7143Z" stroke="black" stroke-width="3" stroke-linecap="round" stroke-linejoin="round"/>
<path d="M32.0002 19.1426L19.1431 31.9997L32.0002 44.8569M49.1431 19.1426L62.0002 31.9997L49.1431 44.8569" stroke="black" stroke-width="3" stroke-linecap="round" stroke-linejoin="round"/>
</svg>
