<svg width="36" height="37" viewBox="0 0 36 37" fill="none" xmlns="http://www.w3.org/2000/svg">
<path d="M7.73913 24.2391C10.9088 24.2391 13.4783 21.6696 13.4783 18.5C13.4783 15.3304 10.9088 12.7609 7.73913 12.7609C4.5695 12.7609 2 15.3304 2 18.5C2 21.6696 4.5695 24.2391 7.73913 24.2391Z" stroke="#077FC8" stroke-width="3" stroke-linecap="round" stroke-linejoin="round"/>
<path d="M28.5433 13.4783C31.713 13.4783 34.2825 10.9088 34.2825 7.73913C34.2825 4.5695 31.713 2 28.5433 2C25.3737 2 22.8042 4.5695 22.8042 7.73913C22.8042 10.9088 25.3737 13.4783 28.5433 13.4783Z" stroke="#077FC8" stroke-width="3" stroke-linecap="round" stroke-linejoin="round"/>
<path d="M28.5433 35C31.713 35 34.2825 32.4305 34.2825 29.2609C34.2825 26.0912 31.713 23.5217 28.5433 23.5217C25.3737 23.5217 22.8042 26.0912 22.8042 29.2609C22.8042 32.4305 25.3737 35 28.5433 35Z" stroke="#077FC8" stroke-width="3" stroke-linecap="round" stroke-linejoin="round"/>
<path d="M22.8042 10.6086L12.7607 15.6304" stroke="#077FC8" stroke-width="3" stroke-linecap="round" stroke-linejoin="round"/>
<path d="M22.7254 28.0055L12.9976 22.3883" stroke="#077FC8" stroke-width="3" stroke-linecap="round" stroke-linejoin="round"/>
</svg>
