<svg width="33" height="31" viewBox="0 0 33 31" fill="none" xmlns="http://www.w3.org/2000/svg">
<path d="M13.7957 13.4429C13.6585 13.3057 13.3842 13.1686 13.247 13.0314L11.4638 11.111C10.9151 10.5623 10.2292 10.4251 9.68049 10.5623L9.13179 10.6995C8.72027 10.8367 8.30875 11.111 8.17157 11.5225C8.03439 11.934 8.17157 12.3456 8.30875 12.7571L11.4637 17.5581C12.0124 18.244 12.8355 18.7927 13.7957 18.7927H14.2072L14.893 18.6555L17.9108 17.8325L16.5391 21.2618C16.4019 21.8105 16.4019 22.222 16.6763 22.6335C16.9506 22.9079 17.225 23.045 17.4993 23.045H17.9108L19.1454 22.6335C19.8313 22.4963 20.6543 21.8105 21.0658 21.1246L23.8093 16.3236L28.7475 14.9519C29.5705 14.6775 30.1192 13.8545 29.8449 13.0314C29.2962 11.111 27.3757 10.0136 25.4553 10.4251L22.849 10.9739L19.6941 8.91626C19.1454 8.50474 18.3223 8.36755 17.6365 8.36755C17.3621 8.36755 17.0878 8.50474 16.8134 8.50474H16.5391C15.9904 8.64192 15.7161 8.91626 15.5789 9.32778C15.4417 9.73929 15.5789 10.288 15.9904 10.5623L17.4993 12.2084L14.3443 13.0314C14.07 13.443 13.9328 13.443 13.7956 13.443L13.7957 13.4429ZM19.9685 20.1644C19.8313 20.4388 19.2826 20.8503 19.0083 20.9875L18.1852 21.2618L19.6941 17.2838L22.0261 16.5979L19.9685 20.1644ZM17.0879 10.0136C17.3622 9.87641 17.4994 9.87641 17.7737 9.87641C18.1852 9.87641 18.5968 9.87641 18.8711 10.1507L20.9287 11.5225L19.0083 12.0712L17.0879 10.0136ZM26.0041 11.6597C27.1015 11.3853 28.336 12.0712 28.6104 13.1686C28.6104 13.1686 28.6104 13.3057 28.4732 13.3057L13.9329 17.1466C13.3842 17.1466 12.9726 17.0094 12.6983 16.5979L9.54334 12.0712L9.95486 11.934C10.092 11.934 10.2292 11.934 10.3664 12.0712L12.2868 14.1288C12.5611 14.4031 12.8355 14.5403 13.1098 14.8146C13.1098 14.8146 13.247 14.9518 13.5213 14.9518H13.7957C14.2072 14.9518 14.4815 14.8146 14.7559 14.8146L26.0041 11.6597Z" fill="#077FC8"/>
<path d="M17.911 0C10.6409 0 4.46811 5.21256 3.09637 12.2084C0.901592 13.5801 -0.332964 15.5005 0.0785546 16.8723C0.35289 18.1068 1.58745 18.9299 3.37071 19.2042C3.91941 19.3414 4.60526 19.3414 5.15396 19.3414C6.38852 19.3414 7.76026 19.2042 9.13197 18.7927C9.54349 18.6555 9.68067 18.244 9.68067 17.9696C9.54349 17.5581 9.13197 17.4209 8.85763 17.4209C6.93722 17.9696 5.15396 18.1068 3.78222 17.8325C2.54767 17.5581 1.72463 17.1466 1.58745 16.4607C1.45026 15.912 1.86178 14.9518 2.95919 14.1288V15.089C2.95919 15.6377 2.95919 16.3236 3.09637 16.8723C3.09637 17.2838 3.50789 17.5581 3.91941 17.5581C4.33093 17.5581 4.60526 17.1466 4.60526 16.7351C4.60526 16.1864 4.46808 15.6377 4.46808 15.089C4.33089 7.54449 10.3665 1.37171 17.911 1.37171C25.4555 1.37171 31.4911 7.54449 31.4911 14.9518C31.4911 22.4964 25.3184 28.532 17.911 28.532C12.4241 28.532 7.48586 25.2398 5.42827 20.3016C5.29108 19.8901 4.87957 19.7529 4.46805 19.8901C4.05653 20.0272 3.91934 20.4388 4.05653 20.8503C6.38846 26.3372 11.8754 30.0409 17.911 30.0409C26.1414 30.0409 33 23.3194 33 14.9519C33 6.58433 26.1414 0 17.911 0H17.911Z" fill="#077FC8"/>
</svg>
