<svg width="35" height="30" viewBox="0 0 35 30" fill="none" xmlns="http://www.w3.org/2000/svg">
<path d="M28.7895 25.3158C28.7895 27.2343 27.2343 28.7895 25.3158 28.7895C23.3973 28.7895 21.8421 27.2343 21.8421 25.3158M28.7895 25.3158C28.7895 23.3973 27.2343 21.8421 25.3158 21.8421C23.3973 21.8421 21.8421 23.3973 21.8421 25.3158M28.7895 25.3158H34M21.8421 25.3158H20.1053M20.1053 25.3158H11.4211M20.1053 25.3158V6.55789C20.1053 4.61246 20.1053 3.63972 19.7266 2.89667C19.3937 2.24304 18.8622 1.71164 18.2086 1.37861C17.4656 1 16.4928 1 14.5474 1H6.55789C4.61246 1 3.63972 1 2.89667 1.37861C2.24304 1.71164 1.71164 2.24304 1.37861 2.89667C1 3.63972 1 4.61246 1 6.55789V21.8421C1 23.7606 2.55522 25.3158 4.47368 25.3158M20.1053 25.3158V7.94737H27.0526L32.2632 14.8947M11.4211 25.3158C11.4211 27.2343 9.86583 28.7895 7.94737 28.7895C6.0289 28.7895 4.47368 27.2343 4.47368 25.3158M11.4211 25.3158C11.4211 23.3973 9.86583 21.8421 7.94737 21.8421C6.0289 21.8421 4.47368 23.3973 4.47368 25.3158M32.2632 14.8947V25.3158M32.2632 14.8947H20.1053" stroke="#077FC8" stroke-width="2" stroke-linecap="round" stroke-linejoin="round"/>
</svg>
