<svg width="61" height="60" viewBox="0 0 61 60" fill="none" xmlns="http://www.w3.org/2000/svg">
<path d="M0 29.0261V28.9419C0.763077 19.098 4.32863 11.7143 10.5229 7.04623C16.6329 2.29397 23.2535 0.00202229 30.4661 0.00202229C38.0181 -0.0821606 45.0623 2.46234 51.3434 7.55404C57.7087 12.5616 60.8479 20.0294 60.8479 29.7023V30.297C60.8479 40.0568 57.7087 47.3536 51.3434 52.3611C44.9781 57.4528 37.9339 60 30.3819 60H30.0424C22.6588 59.9158 15.8698 57.3686 9.59142 52.2769C3.31029 47.2694 0.0868985 39.5463 0.00271558 29.0234L0 29.0261ZM28.5977 15.7035V2.29397H26.5611C26.1374 2.8045 25.798 3.3965 25.4585 3.90702C25.1191 4.41755 24.7796 4.92536 24.4402 5.52008C24.1007 6.0306 23.6771 6.7095 23.4219 7.21731C23.0824 7.72784 22.8271 8.23565 22.5719 8.83037C22.0614 9.68034 21.6377 10.5276 21.2983 11.2907C20.8746 12.0538 20.5352 12.8195 20.2799 13.4984C20.7905 13.8379 21.3825 14.2615 22.0614 14.5168C22.8244 14.772 23.5902 15.0273 24.3533 15.1957C25.2033 15.3668 25.9664 15.4509 26.6452 15.5351C27.4083 15.6193 28.0872 15.7062 28.5977 15.7062V15.7035ZM32.1633 2.29669V15.6193C32.5869 15.6193 33.0975 15.7035 33.6053 15.6193C34.1158 15.6193 34.7078 15.5351 35.2183 15.4482C36.1525 15.2771 37.255 15.0246 38.105 14.7693C39.0391 14.4299 39.8864 14.0063 40.4811 13.4957C39.4628 11.0354 38.3602 9.08291 37.255 7.2146C36.1498 5.34628 34.8789 3.73594 33.5211 2.37815V2.29397H32.1633V2.29669ZM22.9982 3.05976V2.97558C22.4035 3.23084 21.8088 3.65447 21.1299 3.90974C20.5352 4.165 19.7721 4.50445 19.1774 4.8439C17.988 5.43861 16.8013 6.1175 15.6119 6.88058C14.5093 7.64366 13.4041 8.49363 12.4726 9.34089C12.8121 9.68034 13.2357 10.0198 13.5752 10.2751C13.9146 10.5303 14.3382 10.8698 14.7646 11.2092C15.104 11.3803 15.5277 11.6328 15.954 11.9723C16.3776 12.2276 16.8882 12.567 17.396 12.9064C18.0749 11.3776 18.7538 9.76724 19.6038 8.32255C20.4537 6.79368 21.3852 5.35171 22.3193 4.0781C22.4035 3.90702 22.4904 3.73866 22.6588 3.56758C22.743 3.48339 22.8299 3.23084 22.9982 3.05976ZM48.9646 9.33818V9.25399C46.8437 7.64094 44.9754 6.28315 43.1098 5.43589C41.2442 4.58863 39.3759 3.73866 37.6786 3.05976C39.0364 4.41755 40.2259 6.11479 40.9889 7.72784C41.8389 9.42508 42.6862 11.2065 43.3651 12.9037C43.7045 12.7327 44.1281 12.5643 44.6387 12.2248C45.0623 11.9696 45.657 11.7143 46.1675 11.4618C46.6781 11.1223 47.1017 10.7829 47.6095 10.4434C48.12 10.0198 48.6278 9.68034 48.9673 9.34089L48.9646 9.33818ZM47.5226 28.263H57.2824C57.2824 25.1238 56.6035 22.153 55.3299 19.098C54.1405 16.1271 52.4432 13.6668 50.3224 11.5459V11.4618C49.8987 12.1407 49.304 12.7354 48.7093 13.159C48.0304 13.5826 47.4357 13.9221 46.7568 14.2615C46.3332 14.5168 45.9068 14.8562 45.4832 15.0246C45.0596 15.2799 44.4649 15.4482 44.0412 15.7035C44.3807 16.3824 44.7201 17.1455 45.0596 17.8244C45.3148 18.5874 45.7385 19.4374 45.9096 20.2005C46.4201 21.5583 46.7595 23.0002 47.099 24.4449C47.3542 25.7185 47.5226 27.0763 47.5226 28.263ZM16.804 15.7035V15.6193C16.1251 15.2799 15.362 15.0246 14.7673 14.6852C14.1726 14.2615 13.5779 13.8352 13.0701 13.4957C12.5595 13.2405 12.0517 12.901 11.6281 12.5616C11.2045 12.2221 10.865 11.8827 10.5256 11.5432C8.31781 13.6641 6.70748 16.0402 5.68914 18.8427C4.58661 21.6425 3.82082 24.7844 3.48137 28.1789H13.92C13.92 25.8027 14.2595 23.5108 14.8542 21.2188C15.3647 18.8427 16.1251 17.0613 16.804 15.7035ZM28.5977 28.1789V18.4191C27.9189 18.5033 27.0689 18.5033 26.3058 18.4191C25.4558 18.3349 24.6086 18.0796 23.8455 17.8244C23.1666 17.6533 22.3166 17.4849 21.6377 17.2296C20.8746 17.0586 20.1089 16.7191 19.5169 16.3797C19.0063 17.2296 18.5827 18.248 18.2432 19.3505C17.8196 20.3689 17.5644 21.4714 17.3091 22.4897C17.138 23.5081 17.0538 24.6106 16.9696 25.5447C16.8855 26.4789 16.7986 27.4131 16.7986 28.1761H28.595L28.5977 28.1789ZM32.1633 18.5902V28.1789H44.7229C44.7229 27.6683 44.7228 27.0763 44.6387 26.3974C44.4676 25.8027 44.3834 25.0396 44.2992 24.3608C44.044 23.3424 43.7887 22.2399 43.4492 21.2215C43.1098 20.2874 42.7703 19.3532 42.3467 18.5902C42.1756 18.1665 42.0073 17.656 41.8362 17.3165C41.5809 16.8929 41.3257 16.6377 41.1573 16.3824C40.2231 17.0613 38.9495 17.4849 37.4234 17.8244C35.9814 18.1638 34.2842 18.5033 32.7553 18.5874H32.1606L32.1633 18.5902ZM13.9173 30.9786H3.47865C3.47865 32.4206 3.73392 34.0336 4.15755 35.9861C4.58118 38.0228 5.43116 39.8911 6.36531 41.9278C6.78894 42.9462 7.29947 43.9645 7.80729 44.9828C8.402 45.917 9.08089 46.9354 9.75979 47.8695C10.2703 47.5301 10.7781 47.2748 11.2018 47.0195C11.7123 46.7643 12.3043 46.4248 12.8148 46.1696C13.4095 45.9143 14.0042 45.659 14.6831 45.3196C15.2778 45.0643 16.0409 44.7249 16.804 44.3854C16.1251 42.2646 15.362 40.2279 14.8515 37.9359C14.2568 35.7282 13.9173 33.5231 13.9173 31.0628V30.9786ZM28.5977 40.9068V30.9786H16.8013C16.8013 31.6575 16.8855 32.6758 17.0565 33.6942C17.1407 34.7125 17.396 35.8151 17.5671 36.9203C17.9065 38.1097 18.1618 39.2964 18.5012 40.3148C18.8407 41.3331 19.1801 42.1831 19.5196 42.9462C21.0484 42.3515 22.5746 41.9278 23.5929 41.6726C24.6955 41.3331 25.7138 41.0779 26.7321 40.9937H27.6663C28.0058 40.9095 28.3452 40.9095 28.6005 40.9095L28.5977 40.9068ZM32.1633 30.9786V40.8226C32.758 40.9068 33.4369 40.9937 34.1158 41.0779C34.8789 41.162 35.813 41.3331 36.5761 41.5015L37.8497 41.7567C38.2733 41.9278 38.7839 42.012 39.2075 42.0962C39.718 42.2673 40.2258 42.3515 40.7364 42.5198C41.16 42.6909 41.5864 42.7751 41.9258 42.9435C43.0283 40.1437 43.7072 37.8517 44.1336 35.8992C44.5572 34.0309 44.7283 32.4206 44.7283 31.0628V30.9786H32.1687H32.1633ZM57.2824 31.0628V30.9786H47.5226V31.4891C47.4384 33.1022 47.1832 34.9678 46.8437 36.9203C46.5043 38.7886 45.7412 40.9937 44.7229 43.7092C46.0806 44.3881 47.3542 45.067 48.3726 45.7459C49.3909 46.4248 50.3251 47.1879 51.004 47.8668C52.446 46.4248 53.7196 44.4723 54.8221 41.9251C55.9246 39.4648 56.6904 36.9176 57.114 34.202C57.1982 33.6915 57.1982 33.1837 57.2851 32.6731V31.0601L57.2824 31.0628ZM28.5977 56.8608V43.6223C26.4769 43.9618 24.6927 44.3854 23.335 44.7249C21.9772 45.0643 20.9588 45.4038 20.2799 45.7432C20.7905 47.0168 21.2983 48.1193 21.8088 49.1377C22.3193 50.0718 22.9113 51.0902 23.4219 51.9374C23.5929 52.2769 23.9324 52.6163 24.1849 53.04C24.4402 53.3794 24.6086 53.803 24.8638 54.1425C25.1191 54.5661 25.3744 55.0767 25.6269 55.5845C25.9664 56.0081 26.2216 56.5186 26.5611 56.8581L28.5977 56.8608ZM32.1633 56.8608H34.1158C34.8789 56.2661 35.6447 55.4188 36.2367 54.4847C36.9156 53.5505 37.6786 52.448 38.1892 51.5138C38.7839 50.4113 39.3786 49.393 39.8864 48.3746C40.3942 47.3563 40.8206 46.4221 41.16 45.7432C40.2259 45.4038 38.9522 45.0643 37.6814 44.7249C36.4105 44.3854 34.6263 44.046 32.166 43.7065V56.8608H32.1633ZM48.9646 49.9035V49.8193C48.7935 49.564 48.4541 49.2246 48.2015 48.9693C47.949 48.7141 47.5226 48.3746 47.099 48.1193C46.7595 47.8641 46.3359 47.6088 45.8254 47.3563C45.3148 47.1037 44.6359 46.7616 44.044 46.4221C43.7045 47.101 43.1098 48.2904 42.2625 49.9008C41.4995 51.5138 40.1417 53.4663 38.4444 55.5872C40.5653 55.2477 42.4336 54.4847 44.1309 53.4663C45.9992 52.5322 47.6095 51.2586 48.9673 49.9008L48.9646 49.9035ZM17.396 47.1879V47.1037C16.8013 47.4432 15.8671 47.8668 14.9357 48.2931C13.9173 48.7168 12.8148 49.2273 11.7965 49.9062C12.3912 50.4167 12.9859 50.9245 13.4937 51.264C14.0042 51.6876 14.5962 52.0271 15.1068 52.3665C16.0409 52.9612 17.1434 53.5559 18.246 54.0637C19.3485 54.5716 20.7063 55.0821 22.4035 55.5926C21.8088 54.9137 21.3852 54.0637 20.9615 53.3848C20.5379 52.706 20.0274 52.0271 19.6038 51.3482C19.1801 50.6693 18.8407 49.9062 18.5012 49.2273C18.0776 48.5484 17.7382 47.8695 17.3987 47.1906L17.396 47.1879Z" fill="black"/>
</svg>
