<svg width="29" height="20" viewBox="0 0 29 20" fill="none" xmlns="http://www.w3.org/2000/svg">
<path d="M27.8911 3.13867C27.7328 2.52867 27.4155 1.97163 26.9714 1.52446C26.5273 1.07729 25.9726 0.756006 25.3637 0.593452C21.6722 0.158081 17.9564 -0.0381126 14.2396 0.006099C10.5228 -0.0381126 6.80697 0.158081 3.11548 0.593452C2.50662 0.756006 1.95182 1.07729 1.50778 1.52446C1.06373 1.97163 0.746362 2.52867 0.588079 3.13867C0.183714 5.4061 -0.0128894 7.70574 0.000726529 10.0089C-0.0135657 12.3239 0.183037 14.6354 0.588079 16.9147C0.754567 17.5149 1.07558 18.0608 1.51909 18.4981C1.96257 18.9354 2.51303 19.2487 3.11548 19.4065C6.80697 19.8419 10.5228 20.0382 14.2396 19.9939C17.9564 20.0382 21.6722 19.8419 25.3637 19.4065C25.9662 19.2487 26.5167 18.9354 26.96 18.4981C27.4036 18.0608 27.7247 17.5149 27.8911 16.9147C28.2962 14.6354 28.4927 12.3239 28.4784 10.0089C28.4921 7.70574 28.2955 5.4061 27.8911 3.13867ZM11.3206 14.2627V5.79063L18.7782 10.0089L11.3206 14.2449V14.2627Z" fill="white"/>
</svg>
