<svg width="20" height="20" viewBox="0 0 20 20" fill="none" xmlns="http://www.w3.org/2000/svg">
<path fill-rule="evenodd" clip-rule="evenodd" d="M4.9816 6.25781V20H0.000375V6.25781H4.9816ZM12.4905 6.23242V7.04218C13.2176 6.57284 14.0562 6.3 15.3278 6.3C19.4692 6.3 19.9999 9.51527 19.9999 12.3163V19.9996H14.9936V12.6993C14.9936 11.4715 14.5543 11.2387 13.7421 11.2387C12.9698 11.2387 12.4905 11.484 12.4905 12.6993V19.9996H7.48424V6.23242H12.4905ZM2.49061 0C3.86483 0 4.98123 1.11765 4.98123 2.49061C4.98123 3.86358 3.86483 4.98123 2.4906 4.98123C1.11766 4.98123 0 3.86358 0 2.4906C0 1.11766 1.11765 0 2.49061 0Z" fill="white"/>
</svg>
