<svg width="24" height="24" viewBox="0 0 24 24" fill="none" xmlns="http://www.w3.org/2000/svg">
<path d="M8.875 1.00078C8.87344 1.00078 8.87188 1.00078 8.87031 1.00078C7.71953 1.00078 6.76797 1.59375 6.33985 2.56328H5.96485C5.9625 2.56328 5.96016 2.56328 5.95781 2.56328C4.96485 2.56328 4.02188 2.89531 3.30313 3.5C2.54063 4.14062 2.12032 5.02422 2.11875 5.98594C2.11797 6.76328 2.52969 7.62422 2.91953 8.1664C1.18282 8.76797 0.00234724 10.2234 3.48602e-06 11.8289C-0.00234026 13.4273 1.17735 14.8836 2.91719 15.4906C2.52188 16.0312 2.10157 16.8875 2.10078 17.6516C2.09844 19.5469 3.83125 21.0914 5.96563 21.0953H6.34063C6.76485 22.0625 7.71875 22.6562 8.875 22.6578C8.87656 22.6578 8.87813 22.6578 8.88047 22.6578C10.4211 22.6578 11.4984 21.5789 11.5008 20.0328V3.62578C11.5023 2.08281 10.4234 1.00312 8.875 1.00078ZM8.875 14.282C8.59922 14.282 8.375 14.0578 8.375 13.782C8.375 13.5062 8.59922 13.282 8.875 13.282C9.15078 13.282 9.375 13.5062 9.375 13.782C9.375 14.0578 9.15078 14.282 8.875 14.282ZM10.9375 10.3758H9.15625V5.42656C9.60547 5.30234 9.9375 4.89453 9.9375 4.40703C9.9375 3.82109 9.46094 3.34453 8.875 3.34453C8.28906 3.34453 7.8125 3.82109 7.8125 4.40703C7.8125 4.89531 8.14453 5.30234 8.59375 5.42656V10.3758H7.3125H7.31094C6.6875 10.3758 6.25078 10.8125 6.25 11.4383V11.9383H4.42578C4.30156 11.4891 3.89375 11.157 3.40625 11.157C2.82032 11.157 2.34375 11.6336 2.34375 12.2195C2.34375 12.8055 2.82032 13.282 3.40625 13.282C3.89453 13.282 4.30235 12.9492 4.42578 12.5008H6.25V17.0586C5.80078 17.1828 5.46875 17.5906 5.46875 18.0789C5.46875 18.6648 5.94531 19.1414 6.53125 19.1414C7.11719 19.1414 7.59375 18.6648 7.59375 18.0789C7.59375 17.5906 7.26172 17.1828 6.8125 17.0586V11.4383C6.81328 11.125 6.99922 10.9375 7.31172 10.9375H7.3125H10.9375V20.0305C10.9352 21.168 10.2281 21.9523 9.15625 22.0695V14.8016C9.60547 14.6773 9.9375 14.2695 9.9375 13.7812C9.9375 13.1953 9.46094 12.7187 8.875 12.7187C8.28906 12.7187 7.8125 13.1953 7.8125 13.7812C7.8125 14.2695 8.14453 14.6773 8.59375 14.8016V22.075C7.73203 21.9859 7.06953 21.4953 6.79688 20.7195C6.75703 20.607 6.65078 20.532 6.53125 20.532H5.96563C4.375 20.5297 2.66094 19.4281 2.6625 17.6523C2.66407 16.8977 3.22032 15.9266 3.60469 15.5437C3.67657 15.4727 3.70391 15.368 3.67735 15.2703C3.65078 15.1727 3.57422 15.0969 3.47657 15.0719C1.7586 14.6297 0.56016 13.2961 0.562503 11.8289C0.564847 10.3633 1.75157 9.0375 3.44922 8.59375H5.51172C5.63594 9.04297 6.04375 9.375 6.53125 9.375C7.11719 9.375 7.59375 8.89844 7.59375 8.3125C7.59375 7.72656 7.11719 7.25078 6.53125 7.25078C6.04297 7.25078 5.63594 7.58281 5.51172 8.03203H3.53282C3.16016 7.60937 2.67969 6.71094 2.68047 5.98672C2.68203 5.19297 3.03125 4.46328 3.66563 3.93047C4.27422 3.41875 5.11016 3.12578 5.95938 3.12578C5.96094 3.12578 5.96328 3.12578 5.96563 3.12578H6.53125C6.65 3.12578 6.75625 3.05078 6.7961 2.93906C7.10235 2.07734 7.87735 1.56328 8.87031 1.56328C8.87188 1.56328 8.87266 1.56328 8.87422 1.56328C10.1109 1.56562 10.9398 2.39375 10.9375 3.62578V10.3758ZM8.875 4.90703C8.59922 4.90703 8.375 4.68281 8.375 4.40703C8.375 4.13125 8.59922 3.90703 8.875 3.90703C9.15078 3.90703 9.375 4.13125 9.375 4.40703C9.375 4.68281 9.15078 4.90703 8.875 4.90703ZM6.53125 17.5789C6.80703 17.5789 7.03125 17.8031 7.03125 18.0789C7.03125 18.3547 6.80703 18.5789 6.53125 18.5789C6.25547 18.5789 6.03125 18.3547 6.03125 18.0789C6.03125 17.8031 6.25547 17.5789 6.53125 17.5789ZM3.90625 12.2195C3.90625 12.4953 3.68203 12.7195 3.40625 12.7195C3.13047 12.7195 2.90625 12.4953 2.90625 12.2195C2.90625 11.9437 3.13047 11.7195 3.40625 11.7195C3.68203 11.7195 3.90625 11.9437 3.90625 12.2195ZM6.03125 8.31328C6.03125 8.0375 6.25547 7.81328 6.53125 7.81328C6.80703 7.81328 7.03125 8.0375 7.03125 8.31328C7.03125 8.58906 6.80703 8.81328 6.53125 8.81328C6.25547 8.81328 6.03125 8.58906 6.03125 8.31328ZM24 11.8289C24.0016 10.2305 22.8219 8.775 21.0828 8.16719C21.4789 7.62656 21.8984 6.77031 21.9 6.00547C21.9016 5.04375 21.4781 4.15781 20.7078 3.51094C19.9914 2.90937 19.018 2.56406 18.0352 2.5625H17.6602C17.2352 1.59531 16.282 1.00156 15.1266 1C15.1242 1 15.1227 1 15.1203 1C14.3609 1 13.7078 1.25234 13.2313 1.72891C12.7539 2.20781 12.5016 2.8625 12.5 3.62578V20.0312C12.4977 21.575 13.5766 22.6539 15.1242 22.657C15.1266 22.657 15.1281 22.657 15.1297 22.657C16.2805 22.657 17.2312 22.0633 17.6594 21.0945H18.0336C18.0367 21.0945 18.0391 21.0945 18.0414 21.0945C19.0344 21.0945 19.9773 20.7617 20.6961 20.1578C21.4594 19.5172 21.8797 18.6344 21.8812 17.6719C21.882 16.8945 21.4703 16.0328 21.0805 15.4914C22.818 14.8898 23.9977 13.4344 24 11.8289ZM15.125 9.37578C15.4008 9.37578 15.625 9.6 15.625 9.87578C15.625 10.1516 15.4008 10.3758 15.125 10.3758C14.8492 10.3758 14.625 10.1516 14.625 9.87578C14.625 9.6 14.8492 9.37578 15.125 9.37578ZM20.5516 15.0633H18.4883C18.3641 14.6141 17.9562 14.282 17.468 14.282C16.882 14.282 16.4055 14.7586 16.4055 15.3445C16.4055 15.9305 16.882 16.407 17.468 16.407C17.9555 16.407 18.3641 16.075 18.4883 15.6258H20.4672C20.8391 16.0484 21.3195 16.9469 21.318 17.6711C21.3172 18.4648 20.968 19.1945 20.3336 19.7266C19.7234 20.2398 18.8766 20.5156 18.0344 20.5312H17.4687C17.35 20.5312 17.2437 20.607 17.2039 20.718C16.8969 21.5805 16.1219 22.0937 15.1297 22.0937C15.1281 22.0937 15.1258 22.0937 15.1258 22.0937C14.5156 22.093 13.9969 21.8969 13.6266 21.5273C13.2563 21.1578 13.0609 20.6414 13.0625 20.032V13.282H14.843V18.2305C14.3938 18.3547 14.0617 18.7625 14.0617 19.2508C14.0617 19.8367 14.5383 20.3133 15.1242 20.3133C15.7102 20.3133 16.1867 19.8367 16.1867 19.2508C16.1867 18.7633 15.8547 18.3547 15.4055 18.2305V13.282H16.6859H16.6883C17.3125 13.282 17.7477 12.8453 17.7492 12.2195V11.7195H19.5727C19.6969 12.1687 20.1047 12.5008 20.593 12.5008C21.1789 12.5008 21.6555 12.0242 21.6555 11.4383C21.6555 10.8523 21.1789 10.3758 20.593 10.3758C20.1047 10.3758 19.6969 10.7078 19.5727 11.157H17.75V6.59844C18.1992 6.47422 18.5312 6.06641 18.5312 5.57891C18.5312 4.99297 18.0547 4.51641 17.4687 4.51641C16.8828 4.51641 16.4062 4.99297 16.4062 5.57891C16.4062 6.06641 16.7383 6.47422 17.1875 6.59844V12.2195C17.1875 12.5328 17.0016 12.7203 16.6891 12.7203H16.6875H13.0625V3.62578C13.0633 3.01562 13.2594 2.49687 13.6289 2.12734C13.9391 1.81641 14.3578 1.6375 14.8437 1.58594V8.85547C14.3945 8.97969 14.0625 9.3875 14.0625 9.875C14.0625 10.4609 14.5391 10.9375 15.125 10.9375C15.7109 10.9375 16.1875 10.4609 16.1875 9.875C16.1875 9.3875 15.8555 8.97969 15.4063 8.85547V1.58203C16.268 1.67187 16.9305 2.16172 17.2031 2.93828C17.243 3.05078 17.35 3.12578 17.4687 3.12578H18.0344C18.8875 3.12656 19.7297 3.425 20.3461 3.94219C20.9867 4.48047 21.3391 5.2125 21.3375 6.00547C21.3367 6.76015 20.7797 7.73125 20.3961 8.11406C20.3242 8.18515 20.2969 8.28984 20.3227 8.3875C20.3492 8.48515 20.4266 8.56094 20.5242 8.58594C22.2414 9.0289 23.4398 10.3625 23.4375 11.8289C23.4359 13.293 22.25 14.618 20.5516 15.0633ZM17.9687 15.3445C17.9687 15.6203 17.7445 15.8445 17.4687 15.8445C17.193 15.8445 16.9688 15.6203 16.9688 15.3445C16.9688 15.0687 17.193 14.8445 17.4687 14.8445C17.7445 14.8445 17.9687 15.0687 17.9687 15.3445ZM15.125 18.7508C15.4008 18.7508 15.625 18.975 15.625 19.2508C15.625 19.5266 15.4008 19.7508 15.125 19.7508C14.8492 19.7508 14.625 19.5266 14.625 19.2508C14.625 18.975 14.8492 18.7508 15.125 18.7508ZM17.4687 6.07891C17.193 6.07891 16.9688 5.85469 16.9688 5.57891C16.9688 5.30312 17.193 5.07891 17.4687 5.07891C17.7445 5.07891 17.9687 5.30312 17.9687 5.57891C17.9687 5.85469 17.7445 6.07891 17.4687 6.07891ZM20.0937 11.4383C20.0937 11.1625 20.318 10.9383 20.5937 10.9383C20.8695 10.9383 21.0937 11.1625 21.0937 11.4383C21.0937 11.7141 20.8695 11.9383 20.5937 11.9383C20.318 11.9383 20.0937 11.7141 20.0937 11.4383Z" fill="#077FC8"/>
</svg>
