<svg width="24" height="24" viewBox="0 0 24 24" fill="none" xmlns="http://www.w3.org/2000/svg">
<path fill-rule="evenodd" clip-rule="evenodd" d="M6.2757 0.1189C6.59758 -0.0971003 7.03804 -0.0109753 7.25545 0.313725L8.43425 2.07699C9.18249 1.75229 9.98153 1.51936 10.8328 1.44452C12.1709 1.32836 13.5173 1.53509 14.7589 2.04735L15.9137 0.315137C16.1283 -0.0109878 16.5659 -0.0971003 16.892 0.1189C17.2167 0.3349 17.3043 0.77395 17.0883 1.09724L16.0167 2.70522C16.3824 2.94097 16.7339 3.19791 17.0558 3.49297C18.5367 4.84966 19.3527 6.65953 19.3527 8.58798V17.7643C19.3527 18.8669 18.4026 19.7648 17.2351 19.7648H15.1175V24H13.7057V19.7648H9.47048V24H8.05873V19.7648H5.94113C4.77361 19.7648 3.8235 18.8669 3.8235 17.7643V8.86608C3.8235 6.36023 5.16466 4.11272 7.18911 2.75462L6.08229 1.09865C5.86488 0.775362 5.95241 0.336312 6.2757 0.1189ZM11.581 2.8238C11.3735 2.8238 11.1646 2.83369 10.9556 2.85205C7.74814 3.13297 5.23524 5.77435 5.23524 8.86608V17.7643C5.23524 18.0876 5.55148 18.353 5.94111 18.353H17.2351C17.6247 18.353 17.941 18.0876 17.941 17.7643V8.58796C17.941 7.05905 17.2887 5.61906 16.1014 4.53342C14.9 3.43086 13.2794 2.8238 11.581 2.8238ZM1 16.2354H2.41175V9.17666H1V16.2354ZM20.7645 16.2354H22.1762V9.17666H20.7645V16.2354ZM8.7646 5.92992C8.14061 5.92992 7.63521 6.43534 7.63521 7.05932C7.63521 7.68191 8.14061 8.18873 8.7646 8.18873C9.3886 8.18873 9.894 7.68191 9.894 7.05932C9.894 6.43532 9.3886 5.92992 8.7646 5.92992ZM14.4116 5.92992C13.7876 5.92992 13.2822 6.43534 13.2822 7.05932C13.2822 7.68191 13.7876 8.18873 14.4116 8.18873C15.0356 8.18873 15.541 7.68191 15.541 7.05932C15.541 6.43532 15.0356 5.92992 14.4116 5.92992Z" fill="#077FC8"/>
</svg>
