<svg width="220" height="45" viewBox="0 0 220 45" fill="none" xmlns="http://www.w3.org/2000/svg">
<g clip-path="url(#clip0_2_9)">
<path fill-rule="evenodd" clip-rule="evenodd" d="M29.9995 15.9892H51.7095V10.0671H29.9995V15.9892ZM29.9995 27.2381H51.7095V21.1103H29.9995V27.2381ZM72.6316 13.6212L82.5017 0.19696H74.2117L68.4865 8.07557L64.3415 13.8007L71.2484 23.0756L74.4086 27.2206H82.6987L72.6316 13.6212ZM66.1186 4.53894L62.9584 0.19696H54.6727L61.9735 10.2641L66.1186 4.53894ZM29.9995 6.1278H51.7095V0.19696H29.9995V6.1278ZM54.6727 27.2469H62.9584L66.1186 22.9049L61.9735 17.1797L54.6727 27.2469Z" fill="#077FC8"/>
<path d="M166.979 32.7663H166.388V44.8074H166.979V32.7663Z" fill="#01012C"/>
<path fill-rule="evenodd" clip-rule="evenodd" d="M169.937 39.0823V44.803H169.347V37.5022H169.937V37.8961C170.51 37.294 171.296 36.9404 172.126 36.9113C172.525 36.8887 172.924 36.9469 173.3 37.0822C173.677 37.2176 174.021 37.4274 174.314 37.6992C174.581 37.9517 174.789 38.259 174.925 38.5998C175.061 38.9405 175.121 39.3068 175.102 39.6732V44.6061H174.511V39.6732C174.508 39.2363 174.376 38.8102 174.133 38.4473C173.889 38.0845 173.545 37.8008 173.142 37.6313C172.74 37.4619 172.296 37.4141 171.867 37.4938C171.437 37.5735 171.04 37.7773 170.725 38.08C170.403 38.3578 170.136 38.6933 169.937 39.0692" fill="#01012C"/>
<path fill-rule="evenodd" clip-rule="evenodd" d="M178.424 38.08V44.7899H177.816V38.08H177.023V37.4891H177.816V35.515C177.827 34.995 178.038 34.4994 178.406 34.1315C178.774 33.7637 179.27 33.5522 179.79 33.541C180.067 33.5119 180.346 33.5817 180.578 33.738L180.381 34.3289C180.184 34.3289 179.987 34.1319 179.79 34.1319C179.422 34.1379 179.07 34.2798 178.801 34.5302C178.554 34.7998 178.414 35.1499 178.407 35.515V37.4891H180.004V38.08H178.424Z" fill="#01012C"/>
<path fill-rule="evenodd" clip-rule="evenodd" d="M182.373 38.2901C181.89 38.7928 181.567 39.4262 181.441 40.1115C181.316 40.7968 181.395 41.5038 181.668 42.1446C181.942 42.7854 182.397 43.3317 182.978 43.7157C183.56 44.0997 184.241 44.3045 184.938 44.3045C185.634 44.3045 186.315 44.0997 186.897 43.7157C187.478 43.3317 187.934 42.7854 188.207 42.1446C188.48 41.5038 188.559 40.7968 188.434 40.1115C188.309 39.4262 187.985 38.7928 187.502 38.2901C186.859 37.6852 186.017 37.3351 185.135 37.3052C184.122 37.2704 183.135 37.6225 182.373 38.2901ZM184.938 36.7143C185.869 36.7375 186.763 37.0814 187.47 37.6879C188.177 38.2943 188.653 39.1263 188.818 40.0431C188.982 40.9599 188.825 41.9054 188.373 42.7199C187.921 43.5343 187.202 44.1678 186.337 44.5133C185.472 44.8588 184.514 44.8951 183.626 44.6161C182.737 44.3371 181.972 43.7599 181.459 42.982C180.947 42.2042 180.719 41.2733 180.814 40.3466C180.908 39.42 181.32 38.5544 181.979 37.8961C182.366 37.5082 182.828 37.2033 183.336 37.0001C183.845 36.7969 184.39 36.6997 184.938 36.7143Z" fill="#01012C"/>
<path fill-rule="evenodd" clip-rule="evenodd" d="M191.848 37.3052V34.145H192.439V37.3052H194.019V37.8961H192.439V44.6061H191.848V37.8961H190.268V37.3052H191.848Z" fill="#01012C"/>
<path fill-rule="evenodd" clip-rule="evenodd" d="M213.559 32.7663H214.145V37.6992C214.398 37.433 214.705 37.2247 215.046 37.0887C215.387 36.9527 215.753 36.8922 216.119 36.9113C216.518 36.8887 216.918 36.9469 217.294 37.0822C217.67 37.2176 218.015 37.4274 218.308 37.6992C218.574 37.9517 218.782 38.259 218.918 38.5998C219.054 38.9405 219.115 39.3068 219.096 39.6732V44.6061H218.505V39.6732C218.492 39.2443 218.357 38.8281 218.114 38.4742C217.872 38.1202 217.533 37.8435 217.137 37.6769C216.742 37.5104 216.307 37.461 215.884 37.5348C215.462 37.6086 215.069 37.8024 214.754 38.0931C214.557 38.2901 214.36 38.487 214.36 38.684V44.6061H213.769L213.559 32.7663Z" fill="#01012C"/>
<path fill-rule="evenodd" clip-rule="evenodd" d="M213.16 18.7511C213.16 16.5626 210.792 16.3831 210.004 16.3831H207.816C209.199 14.803 210.578 13.026 211.961 11.4502L212.552 10.855C212.737 10.9513 212.937 11.0178 213.143 11.0519C216.106 11.8442 218.671 14.2121 219.27 17.368C219.494 18.5209 219.487 19.7065 219.252 20.857C219.017 22.0076 218.558 23.1005 217.9 24.0735C217.235 25.1691 216.277 26.0573 215.134 26.6385C213.755 27.2293 212.372 27.2294 210.989 27.2294H195.201V21.513H210.004C210.398 21.316 213.16 21.316 213.16 18.7511ZM156.911 27.0411H149.803V10.0671H156.907L156.911 27.0411ZM109.342 18.1602C109.565 19.8937 109.144 21.6487 108.16 23.0931C106.974 25.0671 104.803 26.0563 102.632 26.6472C100.461 27.2381 98.0931 27.2381 95.9221 27.2381H84.0779V21.316H100.273C100.864 21.316 101.656 21.316 102.05 20.9221C102.342 20.6791 102.58 20.3782 102.749 20.0384C102.919 19.6986 103.016 19.3273 103.035 18.9481C103.035 16.1862 101.061 16.1862 100.273 16.1862H84.2792V10.0671H99.2792C100.264 10.0671 101.468 10.0671 102.041 9.67319C102.615 9.27926 103.026 8.68398 102.632 7.10825C102.435 6.31602 101.253 6.31602 100.658 6.31602H84.0779V0.393928H97.1082C99.1589 0.327068 101.211 0.460471 103.236 0.792237C105.21 1.18617 107.175 2.36796 108.173 4.14503C108.924 5.6026 109.2 7.25877 108.961 8.88095C108.719 10.4836 108.036 11.9871 106.987 13.2229C108.173 14.6061 109.176 16.1862 109.355 17.9632L109.342 18.1602ZM117.435 15.7922C117.041 15.5953 116.844 15.3939 116.45 15.197C114.708 13.9875 113.504 12.1479 113.093 10.0671C112.699 7.50219 112.896 4.93288 112.896 2.56492V0.196971H119.602V7.30522C119.57 7.96935 119.636 8.63455 119.799 9.27926C119.919 9.59365 120.104 9.87903 120.343 10.1167C120.581 10.3543 120.867 10.5388 121.182 10.658H127.104V16.3831H121.58C120.178 16.3799 118.783 16.181 117.435 15.7922ZM135.989 24.0735C135.433 24.825 134.768 25.4889 134.015 26.0432C132.041 27.2294 129.87 27.2294 127.502 27.2294C123.16 27.2294 118.818 27.2294 114.476 27.0324C114.082 27.0324 113.29 27.0324 113.093 26.8354C112.896 26.4415 113.093 25.6493 113.093 25.2553C113.061 23.9392 113.127 22.6224 113.29 21.316H128.487C129.279 21.316 130.067 21.316 130.461 20.5282C130.622 20.1545 130.689 19.7475 130.658 19.342V0H137.569C137.569 4.73592 137.766 9.67319 137.766 14.4091C137.766 16.5976 137.766 18.7511 137.372 20.7251C137.372 22.1083 136.777 23.0931 135.989 24.0735ZM157.682 5.72512H142.108V0H165.201V5.72512H157.682ZM168.952 0H190.662V5.72512H168.952V0ZM168.952 10.0671H190.662V15.7922H168.952V10.0671ZM168.952 21.316H190.662V27.0411H168.952V21.316ZM200.533 7.87861C200.533 9.45871 201.123 10.0671 201.714 10.4435C202.088 10.6044 202.495 10.672 202.9 10.6405H206.84C205.658 12.2206 202.104 16.3656 202.104 16.3656C202.104 16.3656 197.565 15.5778 195.394 12.4263C194.208 10.6493 194.011 8.28129 194.606 6.1103C195.038 4.35426 196.089 2.81277 197.565 1.76831C199.933 0.188215 202.896 0.188208 205.658 0.188208H218.487V5.71637H202.699C202.141 5.76377 201.618 6.00668 201.221 6.40227C200.825 6.79785 200.581 7.32071 200.533 7.87861Z" fill="#01012C"/>
<path fill-rule="evenodd" clip-rule="evenodd" d="M1.37876 4.53892H0V3.16016H1.37876V4.53892ZM0 5.92205H1.37876V7.30519H0V5.92205ZM0 10.0671V8.68394H1.37876V10.0671H0ZM0 13.0259V11.6472H1.37876V13.0259H0ZM0 15.7922V14.4091H1.37876V15.7922H0ZM0 18.7511V17.3679H1.37876V18.7511H0ZM0 24.4762V23.0931H1.37876V24.4762H0ZM0 27.2381V25.8549H1.37876V27.2381H0ZM2.76189 27.2381V25.8549H4.34199V27.2381H2.76189ZM2.76189 23.0931H4.34199V24.4762H2.76189V23.0931ZM2.76189 25.8549H1.37876V24.4762H2.76189V25.8549ZM2.76189 18.7511V17.3679H4.34199V18.7511H2.76189ZM2.76189 15.7922V14.4091H4.34199V15.7922H2.76189ZM2.76189 13.0259V11.6472H4.34199V13.0259H2.76189ZM2.76189 10.0671V8.68394H4.34199V10.0671H2.76189ZM2.76189 20.3312H1.37876V18.7511H2.76189V20.3312ZM2.76189 17.3679H1.37876V15.7922H2.76189V17.3679ZM2.76189 14.4091H1.37876V13.0259H2.76189V14.4091ZM2.76189 11.6472H1.37876V10.0671H2.76189V11.6472ZM1.37876 8.68394V7.30519H2.76189V8.68394H1.37876ZM5.72075 3.16016H4.34199V4.53892H5.72075V3.16016ZM4.34199 1.77703H2.76189V3.16016H4.34199V1.77703ZM26.0519 18.5541C25.8754 19.2433 25.6106 19.9068 25.2641 20.5281C23.9254 23.2588 21.5964 25.3765 18.7511 26.4502C17.0285 27.0003 15.2279 27.2664 13.4199 27.2381H5.72075V25.8549H4.34199V24.4762H5.72075V23.0931H4.34199V21.7099H2.76189V23.0931H1.37876V21.7099H0V20.3312H1.37876V21.7099H2.76189V20.3312H4.34199V21.7099H11.0519C13.4199 21.7099 15.5909 21.513 17.368 20.3312C18.3753 19.7008 19.2095 18.8291 19.7949 17.795C20.3803 16.761 20.6986 15.5972 20.7207 14.4091C20.6828 11.9939 19.7717 9.67405 18.1558 7.87857C17.368 7.09071 16.3788 6.29848 15.197 6.10151C14.4188 5.93835 13.6234 5.87218 12.829 5.90454H4.34199V7.28768H2.76189V5.90454H4.34199V4.5214H2.76189V5.90454H1.37876V4.5214H2.76189V3.14265H1.37876V1.75951H0V0.39389H1.37876V1.77703H2.76189V0.39389H12.0368C15.197 0.39389 18.3528 0.792198 20.9221 2.58239C23.8809 4.55642 25.658 8.11055 26.2489 11.6647C26.8398 13.8182 26.6428 16.1949 26.0519 18.5541Z" fill="#077FC8"/>
<path fill-rule="evenodd" clip-rule="evenodd" d="M199.543 37.1082C200.388 37.1594 201.204 37.431 201.911 37.8961L196.781 42.829C196.313 42.1904 196.038 41.4308 195.989 40.6405C195.987 40.1735 196.078 39.7107 196.256 39.279C196.434 38.8472 196.696 38.455 197.026 38.125C197.357 37.795 197.749 37.5337 198.181 37.3561C198.613 37.1786 199.076 37.0884 199.543 37.0907M202.327 43.0259C202.006 43.4558 201.59 43.8047 201.11 44.0449C200.63 44.285 200.101 44.4098 199.565 44.4091C199.124 44.4127 198.688 44.3274 198.281 44.1582C197.874 43.9889 197.505 43.7393 197.197 43.4243L202.327 38.487L202.725 38.0931C202.338 37.6387 201.852 37.2784 201.304 37.0396C200.757 36.8007 200.162 36.6895 199.565 36.7143C199.01 36.6963 198.456 36.79 197.938 36.9901C197.42 37.1902 196.947 37.4924 196.547 37.8789C196.148 38.2654 195.831 38.7282 195.614 39.2399C195.397 39.7515 195.285 40.3015 195.285 40.8571C195.285 41.4128 195.397 41.9628 195.614 42.4744C195.831 42.9861 196.148 43.4489 196.547 43.8354C196.947 44.2218 197.42 44.5241 197.938 44.7242C198.456 44.9242 199.01 45.018 199.565 45C200.226 44.9969 200.877 44.8341 201.461 44.5255C202.046 44.2168 202.547 43.7715 202.922 43.2273L202.327 43.0259Z" fill="#01012C"/>
<path fill-rule="evenodd" clip-rule="evenodd" d="M211.19 43.026C210.868 43.4557 210.451 43.8044 209.971 44.0445C209.49 44.2846 208.961 44.4094 208.424 44.4091C206.45 44.4091 205.071 42.632 205.071 40.855C205.058 39.9432 205.401 39.0622 206.027 38.3993C206.653 37.7364 207.513 37.3439 208.424 37.3052C209.61 37.3052 210.398 37.8961 211.19 38.684L211.978 38.487C211.587 37.9584 211.083 37.5246 210.502 37.2177C209.92 36.9109 209.278 36.7388 208.621 36.7143C208.066 36.6963 207.512 36.7901 206.994 36.9901C206.475 37.1902 206.003 37.4925 205.603 37.8789C205.204 38.2654 204.887 38.7282 204.67 39.2399C204.453 39.7515 204.341 40.3015 204.341 40.8572C204.341 41.4128 204.453 41.9628 204.67 42.4744C204.887 42.9861 205.204 43.4489 205.603 43.8354C206.003 44.2218 206.475 44.5241 206.994 44.7242C207.512 44.9243 208.066 45.018 208.621 45C209.278 44.9755 209.92 44.8034 210.502 44.4966C211.083 44.1897 211.587 43.7559 211.978 43.2273L211.19 43.026Z" fill="#01012C"/>
</g>
<defs>
<clipPath id="clip0_2_9">
<rect width="219.428" height="45" fill="white"/>
</clipPath>
</defs>
</svg>
