<svg width="24" height="24" viewBox="0 0 24 24" fill="none" xmlns="http://www.w3.org/2000/svg">
<path d="M12.732 21.3365H10.9925C10.8818 21.3365 10.7756 21.3805 10.6972 21.4588C10.6189 21.5371 10.575 21.6433 10.575 21.754C10.575 21.8648 10.6189 21.971 10.6972 22.0493C10.7756 22.1276 10.8818 22.1716 10.9925 22.1716H12.732C12.8427 22.1716 12.9489 22.1276 13.0272 22.0493C13.1055 21.971 13.1495 21.8648 13.1495 21.754C13.1495 21.6433 13.1055 21.5371 13.0272 21.4588C12.9489 21.3805 12.8427 21.3365 12.732 21.3365Z" fill="#077FC8"/>
<path d="M20.6078 4.80593C20.608 4.75749 20.5995 4.70942 20.5828 4.66397C20.5764 4.65327 20.5708 4.6421 20.5661 4.63056C20.5577 4.61386 20.5535 4.60133 20.5452 4.58463L17.8687 0.379966C17.7955 0.263472 17.6938 0.167495 17.5733 0.101035C17.4528 0.0345754 17.3174 -0.000189589 17.1798 7.77618e-07H6.43221C6.29459 -0.000189589 6.15919 0.0345754 6.03868 0.101035C5.91818 0.167495 5.81653 0.263472 5.74326 0.379966L3.06681 4.58463C3.05846 4.60133 3.05428 4.61386 3.04593 4.63056C3.04122 4.6421 3.03563 4.65327 3.02923 4.66397C3.01249 4.70942 3.00401 4.75749 3.00418 4.80593L3 4.81011V6.73498C3.00213 7.17952 3.14629 7.61175 3.41146 7.96855C3.67662 8.32536 4.04889 8.58806 4.47393 8.71832V21.3866C4.47515 22.027 4.73038 22.6408 5.18362 23.0933C5.63686 23.5457 6.25108 23.7999 6.89151 23.8H16.7205C17.3609 23.7999 17.9751 23.5457 18.4284 23.0933C18.8816 22.6408 19.1369 22.027 19.1381 21.3866V8.71832C19.5631 8.58806 19.9354 8.32536 20.2005 7.96855C20.4657 7.61175 20.6099 7.17952 20.612 6.73498V4.81011L20.6078 4.80593ZM17.1631 0.826738L19.4304 4.39256H17.1172L15.6265 0.826738H17.1631ZM14.7205 0.826738L16.2111 4.39256H13.8561L13.4678 0.830913L14.7205 0.826738ZM16.4199 5.22765V6.73498C16.4199 7.0672 16.2879 7.38581 16.053 7.62073C15.8181 7.85564 15.4994 7.98761 15.1672 7.98761H15.1547C14.8225 7.98761 14.5039 7.85564 14.269 7.62073C14.034 7.38581 13.9021 7.0672 13.9021 6.73498V5.22765H16.4199ZM10.9834 0.830913H12.6286L13.0169 4.39256H10.5951L10.9834 0.830913ZM10.545 5.22765H13.067V6.73498C13.067 7.0672 12.935 7.38581 12.7001 7.62073C12.4652 7.85564 12.1466 7.98761 11.8144 7.98761H11.7976C11.4654 7.98761 11.1468 7.85564 10.9119 7.62073C10.677 7.38581 10.545 7.0672 10.545 6.73498V5.22765ZM10.1442 0.830913L9.75586 4.39256H7.40091L8.89154 0.835089L10.1442 0.830913ZM9.70993 5.22765V6.73498C9.70993 7.0672 9.57796 7.38581 9.34304 7.62073C9.10813 7.85564 8.78952 7.98761 8.4573 7.98761H8.44477C8.11255 7.98761 7.79394 7.85564 7.55903 7.62073C7.32411 7.38581 7.19214 7.0672 7.19214 6.73498V5.22765H9.70993ZM6.43221 0.835089H7.98547L6.49484 4.39256H4.17747L6.43221 0.835089ZM5.10442 7.98761H5.08772C4.7555 7.98761 4.43689 7.85564 4.20198 7.62073C3.96706 7.38581 3.83509 7.0672 3.83509 6.73498V5.22765H6.35705V6.73498C6.35705 7.0672 6.22508 7.38581 5.99017 7.62073C5.75525 7.85564 5.43664 7.98761 5.10442 7.98761ZM18.303 21.3866C18.3017 21.8055 18.1344 22.2068 17.8378 22.5026C17.5412 22.7985 17.1394 22.9647 16.7205 22.9649H6.89151C6.4726 22.9647 6.07084 22.7985 5.77424 22.5026C5.47763 22.2068 5.31034 21.8055 5.30902 21.3866V20.5473H18.303V21.3866ZM18.303 19.7122H5.30902V8.80183C5.59756 8.77428 5.87711 8.68646 6.12957 8.54404C6.38204 8.40163 6.60178 8.2078 6.7746 7.97509C6.96696 8.2375 7.21838 8.45097 7.50853 8.59822C7.79868 8.74546 8.1194 8.82237 8.44477 8.8227H8.4573C8.78267 8.82237 9.1034 8.74546 9.39354 8.59822C9.68369 8.45097 9.93511 8.2375 10.1275 7.97509C10.3198 8.2375 10.5713 8.45097 10.8614 8.59822C11.1516 8.74546 11.4723 8.82237 11.7976 8.8227H11.8144C12.1397 8.82237 12.4604 8.74546 12.7506 8.59822C13.0407 8.45097 13.2922 8.2375 13.4845 7.97509C13.6769 8.2375 13.9283 8.45097 14.2185 8.59822C14.5086 8.74546 14.8293 8.82237 15.1547 8.8227H15.1672C15.4926 8.82237 15.8133 8.74546 16.1035 8.59822C16.3936 8.45097 16.645 8.2375 16.8374 7.97509C17.0102 8.2078 17.23 8.40163 17.4824 8.54404C17.7349 8.68646 18.0144 8.77428 18.303 8.80183V19.7122ZM19.7769 6.73498C19.7769 7.0672 19.6449 7.38581 19.41 7.62073C19.1751 7.85564 18.8565 7.98761 18.5243 7.98761H18.5076C18.1754 7.98761 17.8567 7.85564 17.6218 7.62073C17.3869 7.38581 17.2549 7.0672 17.2549 6.73498V5.22765H19.7769V6.73498Z" fill="#077FC8"/>
<path d="M16.0857 16.9356L13.8519 14.7017C14.2277 13.9556 14.3255 13.1 14.1277 12.2884C13.9299 11.4767 13.4495 10.762 12.7725 10.2725C12.0955 9.78301 11.2662 9.55068 10.4335 9.61717C9.60069 9.68367 8.81883 10.0447 8.2281 10.6354C7.63736 11.2261 7.27638 12.008 7.20989 12.8407C7.14339 13.6735 7.37572 14.5028 7.86523 15.1797C8.35474 15.8567 9.0694 16.3372 9.88107 16.535C10.6927 16.7328 11.5483 16.635 12.2944 16.2592L14.5283 18.493C14.7361 18.693 15.0142 18.8035 15.3026 18.8007C15.591 18.7979 15.8669 18.6821 16.0708 18.4781C16.2748 18.2742 16.3906 17.9983 16.3934 17.7099C16.3962 17.4215 16.2857 17.1434 16.0857 16.9356ZM10.7161 15.7999C10.0963 15.8005 9.49546 15.5863 9.01595 15.1936C8.53645 14.8009 8.20797 14.254 8.08651 13.6462C7.96504 13.0385 8.05811 12.4074 8.34985 11.8605C8.64159 11.3137 9.11394 10.8849 9.68639 10.6474C10.2588 10.4098 10.896 10.3781 11.4892 10.5577C12.0824 10.7372 12.595 11.117 12.9396 11.6322C13.2841 12.1473 13.4394 12.7661 13.3788 13.3829C13.3183 13.9998 13.0457 14.5765 12.6076 15.0149C12.3597 15.2641 12.065 15.4618 11.7403 15.5965C11.4157 15.7312 11.0676 15.8004 10.7161 15.7999ZM15.497 17.9001C15.4474 17.9498 15.3802 17.9781 15.3099 17.9789C15.2397 17.9797 15.1719 17.9529 15.1212 17.9043L13.0001 15.7832C13.0707 15.7278 13.1377 15.6678 13.2005 15.6036C13.2623 15.5412 13.3208 15.4757 13.3759 15.4074L15.497 17.5243C15.5218 17.5489 15.5415 17.5782 15.5549 17.6104C15.5683 17.6427 15.5752 17.6773 15.5752 17.7122C15.5752 17.7471 15.5683 17.7817 15.5549 17.814C15.5415 17.8462 15.5218 17.8755 15.497 17.9001Z" fill="#077FC8"/>
</svg>
