<svg width="24" height="24" viewBox="0 0 24 24" fill="none" xmlns="http://www.w3.org/2000/svg">
<path fill-rule="evenodd" clip-rule="evenodd" d="M16.9708 0L17.0401 0.660813C17.2142 2.30789 16.6468 4.14456 15.5247 5.57514C15.5077 5.59495 15.4879 5.6091 15.4723 5.62891C15.6591 5.62184 15.8459 5.60769 16.0397 5.62609C16.8859 5.66146 19.1103 5.98409 20.5649 8.15329L20.9597 8.74335L20.3682 9.13672C19.8588 9.45935 18.2953 10.6211 18.3165 12.8002C18.3405 15.5595 20.5649 16.5712 20.8182 16.6773L21.4253 16.932L21.2215 17.5603C21.0531 18.1037 20.5678 19.4946 19.6197 20.9096C18.7155 22.2567 17.592 23.9349 15.6916 23.9703C14.7945 23.9929 14.2214 23.7227 13.6965 23.492C13.197 23.2713 12.7682 23.0817 12.0579 23.0817C11.3065 23.0817 10.8523 23.2783 10.3259 23.5076C9.83208 23.7227 9.27173 23.966 8.49489 23.9986C8.45952 24 8.42414 24 8.39159 24C6.55067 24 5.27149 22.1138 4.41965 20.8587L4.35482 20.762C2.22464 17.5507 1.03357 12.3221 2.99899 8.83958C4.08147 6.9194 6.05117 5.70674 8.13972 5.67561C8.95334 5.66429 9.70189 5.91899 10.3471 6.17369C10.4575 4.67519 11.1707 3.27716 11.9107 2.37439C12.9861 1.0556 14.7931 0.0905625 16.3072 0.0283L16.9708 0ZM15.9364 7.03685C15.0153 6.93923 14.1323 7.30287 13.347 7.61984C12.7541 7.85896 12.2433 8.06415 11.7692 8.06415C11.3645 8.06415 10.94 7.9269 10.4985 7.75426L10.4306 7.7486L10.4278 7.72738C10.3344 7.68918 10.241 7.65237 10.1448 7.61417C9.525 7.3623 8.84438 7.0326 8.16378 7.09063C6.57472 7.11468 5.06773 8.05141 4.23145 9.53575C2.42024 12.7436 3.93573 17.624 5.59129 20.0634C6.47142 21.361 7.40533 22.643 8.43829 22.585C8.95052 22.5638 9.3071 22.4081 9.76133 22.2114C10.3471 21.9553 11.0122 21.6667 12.0579 21.6667C13.0668 21.6667 13.705 21.9482 14.2681 22.1973C14.7337 22.4039 15.12 22.5779 15.6648 22.5553C16.7444 22.5355 17.4986 21.5336 18.4438 20.1214C19.0636 19.1974 19.4598 18.2876 19.6848 17.6806C18.7268 17.1061 16.9269 15.65 16.9015 12.8129C16.8802 10.5616 18.117 9.12965 18.9716 8.41083C17.9047 7.25335 16.5293 7.06233 15.9364 7.03685ZM15.6478 1.55793C14.6912 1.81405 13.6639 2.46354 13.0074 3.26867L13.0059 3.27009C12.4244 3.98042 11.806 5.15489 11.7423 6.3633C12.8008 6.20483 13.8083 5.46619 14.4125 4.70067C15.1426 3.771 15.5798 2.64041 15.6478 1.55793Z" fill="#077FC8"/>
</svg>
