<svg width="24" height="24" viewBox="0 0 24 24" fill="none" xmlns="http://www.w3.org/2000/svg">
<path d="M9.24824 11.0276C9.63762 11.0276 9.95328 10.712 9.95328 10.3226C9.95328 9.93321 9.63762 9.61755 9.24824 9.61755C8.85887 9.61755 8.54321 9.93321 8.54321 10.3226C8.54321 10.712 8.85887 11.0276 9.24824 11.0276Z" fill="black"/>
<path d="M11.2382 11.0276C11.6276 11.0276 11.9433 10.712 11.9433 10.3226C11.9433 9.93321 11.6276 9.61755 11.2382 9.61755C10.8489 9.61755 10.5332 9.93321 10.5332 10.3226C10.5332 10.712 10.8489 11.0276 11.2382 11.0276Z" fill="black"/>
<path d="M13.2277 11.0276C13.6171 11.0276 13.9328 10.712 13.9328 10.3226C13.9328 9.93321 13.6171 9.61755 13.2277 9.61755C12.8384 9.61755 12.5227 9.93321 12.5227 10.3226C12.5227 10.712 12.8384 11.0276 13.2277 11.0276Z" fill="black"/>
<path d="M16.9094 5.72757C17.2988 5.72757 17.6144 5.41191 17.6144 5.02254C17.6144 4.63316 17.2988 4.3175 16.9094 4.3175C16.52 4.3175 16.2043 4.63316 16.2043 5.02254C16.2043 5.41191 16.52 5.72757 16.9094 5.72757Z" fill="black"/>
<path d="M18.8989 5.72757C19.2883 5.72757 19.6039 5.41191 19.6039 5.02254C19.6039 4.63316 19.2883 4.3175 18.8989 4.3175C18.5095 4.3175 18.1938 4.63316 18.1938 5.02254C18.1938 5.41191 18.5095 5.72757 18.8989 5.72757Z" fill="black"/>
<path d="M20.8891 5.72757C21.2785 5.72757 21.5941 5.41191 21.5941 5.02254C21.5941 4.63316 21.2785 4.3175 20.8891 4.3175C20.4997 4.3175 20.1841 4.63316 20.1841 5.02254C20.1841 5.41191 20.4997 5.72757 20.8891 5.72757Z" fill="black"/>
<path d="M21.8275 3.00004H13.7973C13.603 3.00004 13.4455 3.15757 13.4455 3.35187C13.4455 3.54618 13.603 3.7037 13.7973 3.7037H21.8275C22.086 3.7037 22.2963 3.91403 22.2963 4.17253V6.34099H9.36451V4.17249C9.36451 3.91399 9.5748 3.70366 9.8333 3.70366H12.3901C12.5845 3.70366 12.7419 3.54613 12.7419 3.35183C12.7419 3.15752 12.5845 3 12.3901 3H9.83334C9.18684 3 8.6609 3.52598 8.6609 4.17249V6.69273V8.30067H2.17249C1.52598 8.30062 1 8.8266 1 9.47316V19.02C1 19.6664 1.52598 20.1924 2.17249 20.1924H14.1667C14.8132 20.1924 15.3391 19.6665 15.3391 19.02V14.8918H21.8276C22.4741 14.8918 23 14.3658 23 13.7193V4.17249C23 3.52602 22.474 3.00004 21.8275 3.00004ZM9.36451 7.04452H10.3026V8.30062H9.36451V7.04452ZM1.70361 9.47316C1.70361 9.21461 1.9139 9.00432 2.17245 9.00432H14.1666C14.4185 9.00432 14.6353 9.22187 14.6354 9.47316V11.6416H1.70361V9.47316ZM14.6356 12.8982V14.5399V19.02C14.6356 19.2785 14.4253 19.4888 14.1667 19.4888H2.17249C1.91395 19.4888 1.70366 19.2785 1.70366 19.02V12.3452H2.64184V14.412C2.64184 14.6063 2.79932 14.7638 2.99366 14.7638C3.18801 14.7638 3.34549 14.6063 3.34549 14.412V12.3452H12.9938V17.847H3.34541V15.8047C3.34541 15.6104 3.18793 15.4529 2.99358 15.4529C2.79923 15.4529 2.64175 15.6104 2.64175 15.8047V18.1988C2.64175 18.3931 2.79923 18.5506 2.99358 18.5506H13.3455C13.5399 18.5506 13.6974 18.3931 13.6974 18.1988V12.3452H14.6355V12.8982H14.6356ZM22.2964 13.7193C22.2964 13.9778 22.0861 14.1881 21.8276 14.1881H15.3392V13.2499H18.238C18.4324 13.2499 18.5899 13.0924 18.5899 12.8981C18.5899 12.7038 18.4324 12.5463 18.238 12.5463H15.3392C15.3392 12.5463 15.3392 9.47324 15.3392 9.4729C15.3368 9.31705 15.3073 9.15888 15.2463 9.0152C15.106 8.68459 14.8144 8.4386 14.4747 8.34381C14.3745 8.31579 14.2709 8.30067 14.1668 8.30067H11.0064V7.04452H20.6546V12.5463H19.6453C19.451 12.5463 19.2935 12.7038 19.2935 12.8982C19.2935 13.0925 19.451 13.25 19.6453 13.25H21.0065C21.2008 13.25 21.3583 13.0925 21.3583 12.8982V7.04452H22.2965V13.7193H22.2964Z" fill="black"/>
</svg>
