<svg width="24" height="25" viewBox="0 0 24 25" fill="none" xmlns="http://www.w3.org/2000/svg">
<g clip-path="url(#clip0_6_146)">
<path d="M9.85725 17.8843L17.7022 13.4291L14.1382 11.3873L6.2985 15.8791L9.85725 17.8843ZM18.063 8.77164L14.4952 6.72985V10.7724L18.0637 12.8149L18.063 8.77164ZM18.4192 4.07314L14.8522 6.11493L18.4192 8.15672L21.9855 6.11418L18.4192 4.07314ZM7.43325 14.409L9.50325 13.2231V4.31717L5.93475 6.36045V15.2664L7.43325 14.409ZM5.57775 1.6612L2.01075 3.70373L5.57775 5.74627L9.1425 3.70373L5.57775 1.6612ZM1.653 4.31791V18.0881L9.501 22.5821V18.4993L5.397 16.1888C5.3835 16.1791 5.373 16.1687 5.35875 16.1597C5.34825 16.15 5.33625 16.1425 5.32575 16.1343L5.325 16.1321C5.31375 16.1209 5.304 16.109 5.29575 16.0955L5.295 16.0948C5.2845 16.0851 5.27625 16.0739 5.26875 16.0612L5.268 16.0604H5.26575C5.25975 16.0493 5.25375 16.0343 5.24775 16.0194L5.247 16.0164C5.24175 16.0052 5.23575 15.9925 5.2305 15.9784L5.22975 15.9761C5.22675 15.9612 5.22375 15.9425 5.22225 15.9239V15.9224C5.22 15.9112 5.21775 15.8978 5.21625 15.8843V15.8836V6.36194L3.1485 5.17538L1.653 4.31791ZM18.0637 18.0873V14.041L10.2157 18.4993V22.5813L18.0637 18.0873ZM22.3417 10.7724V6.72985L18.7747 8.77239V12.8149L22.3417 10.7724ZM23.0437 6.02239C23.052 6.05075 23.0572 6.08284 23.0572 6.11642V10.9769C23.0572 11.1082 22.986 11.2224 22.8795 11.2836L22.878 11.2843L18.777 13.6343V18.2918C18.777 18.4224 18.7057 18.5366 18.6 18.5985L18.5985 18.5993L10.0365 23.5022C10.0185 23.5119 9.9975 23.5209 9.97575 23.5269L9.9735 23.5276L9.951 23.5373C9.924 23.5455 9.8925 23.55 9.86025 23.55C9.828 23.55 9.7965 23.5455 9.7665 23.5366L9.76875 23.5373C9.7575 23.5343 9.7485 23.5306 9.7395 23.5254L9.74025 23.5261C9.717 23.5179 9.6975 23.5104 9.67875 23.5015L9.68175 23.503L1.122 18.6C1.014 18.5373 0.942749 18.4231 0.942749 18.2925V3.70448C0.942749 3.67164 0.947999 3.63956 0.956999 3.6097L0.956249 3.61194C0.959249 3.60075 0.965999 3.59329 0.969749 3.58209C0.976499 3.56045 0.983999 3.54254 0.992249 3.52538L0.991499 3.52762C0.997499 3.51567 1.005 3.50523 1.01325 3.49627L1.04475 3.45373L1.08 3.42836C1.0935 3.41717 1.1055 3.40597 1.119 3.39627H1.11975L5.40075 0.94478C5.45175 0.914929 5.51325 0.897018 5.5785 0.897018C5.64375 0.897018 5.70525 0.914929 5.75775 0.945526L5.75625 0.94478L10.0387 3.39627C10.053 3.40597 10.065 3.41642 10.077 3.42761L10.113 3.45299C10.125 3.46642 10.1317 3.48135 10.1445 3.49553C10.1535 3.50448 10.161 3.51493 10.1677 3.52612L10.1685 3.52687C10.176 3.54179 10.1835 3.5597 10.1902 3.57836L10.191 3.58135L10.203 3.6112C10.2112 3.63732 10.2165 3.66791 10.2165 3.69926C10.2165 3.70075 10.2165 3.70224 10.2165 3.70373V12.8142L13.7835 10.7716V6.11418C13.7835 6.11344 13.7835 6.11269 13.7835 6.11269C13.7835 6.0806 13.788 6.04926 13.7962 6.01941L13.7955 6.02164C13.7985 6.01194 13.8052 6.00299 13.8075 5.99179C13.815 5.96941 13.8225 5.9515 13.8315 5.93359L13.83 5.93657C13.8367 5.92538 13.8472 5.91791 13.854 5.90523C13.8652 5.89105 13.8742 5.87687 13.8855 5.86493C13.896 5.85523 13.9072 5.84627 13.9192 5.83881L13.92 5.83806C13.9335 5.82836 13.9447 5.81642 13.959 5.80821H13.9597L18.2407 3.35597C18.2917 3.32612 18.3532 3.30821 18.4185 3.30821C18.4837 3.30821 18.5452 3.32612 18.5977 3.35672L18.5962 3.35597L22.8772 5.80821C22.8923 5.81791 22.9027 5.82836 22.917 5.83732C22.9282 5.84702 22.941 5.85448 22.9515 5.86344C22.9635 5.87687 22.9725 5.89179 22.9837 5.90523C22.992 5.91418 22.9995 5.92463 23.0062 5.93508L23.007 5.93582C23.016 5.95224 23.0235 5.9709 23.0295 5.9903L23.0303 5.99254C23.0362 6.0015 23.0407 6.0112 23.0445 6.02164L23.0437 6.02239Z" fill="black"/>
</g>
<defs>
<clipPath id="clip0_6_146">
<rect width="24" height="23.8806" fill="white" transform="translate(0 0.283585)"/>
</clipPath>
</defs>
</svg>
