<svg width="24" height="25" viewBox="0 0 24 25" fill="none" xmlns="http://www.w3.org/2000/svg">
<g clip-path="url(#clip0_131_53)">
<path d="M9.85737 17.8845L17.7024 13.4293L14.1384 11.3875L6.29862 15.8793L9.85737 17.8845ZM18.0631 8.77184L14.4954 6.73005V10.7726L18.0639 12.8151L18.0631 8.77184ZM18.4194 4.07334L14.8524 6.11513L18.4194 8.15692L21.9856 6.11438L18.4194 4.07334ZM7.43337 14.4092L9.50337 13.2233V4.31737L5.93487 6.36065V15.2666L7.43337 14.4092ZM5.57787 1.6614L2.01087 3.70393L5.57787 5.74647L9.14262 3.70393L5.57787 1.6614ZM1.65312 4.31811V18.0883L9.50112 22.5823V18.4995L5.39712 16.189C5.38362 16.1793 5.37312 16.1689 5.35887 16.1599C5.34837 16.1502 5.33637 16.1427 5.32587 16.1345L5.32512 16.1323C5.31387 16.1211 5.30412 16.1092 5.29587 16.0957L5.29512 16.095C5.28462 16.0853 5.27637 16.0741 5.26887 16.0614L5.26812 16.0606H5.26587C5.25987 16.0495 5.25387 16.0345 5.24787 16.0196L5.24712 16.0166C5.24187 16.0054 5.23587 15.9927 5.23062 15.9786L5.22987 15.9763C5.22687 15.9614 5.22387 15.9427 5.22237 15.9241V15.9226C5.22012 15.9114 5.21787 15.898 5.21637 15.8845V15.8838V6.36214L3.14862 5.17557L1.65312 4.31811ZM18.0639 18.0875V14.0412L10.2159 18.4995V22.5815L18.0639 18.0875ZM22.3419 10.7726V6.73005L18.7749 8.77259V12.8151L22.3419 10.7726ZM23.0439 6.02259C23.0521 6.05095 23.0574 6.08304 23.0574 6.11662V10.9771C23.0574 11.1084 22.9861 11.2226 22.8796 11.2838L22.8781 11.2845L18.7771 13.6345V18.292C18.7771 18.4226 18.7059 18.5368 18.6001 18.5987L18.5986 18.5995L10.0366 23.5024C10.0186 23.5121 9.99762 23.5211 9.97587 23.5271L9.97362 23.5278L9.95112 23.5375C9.92412 23.5457 9.89262 23.5502 9.86037 23.5502C9.82812 23.5502 9.79662 23.5457 9.76662 23.5368L9.76887 23.5375C9.75762 23.5345 9.74862 23.5308 9.73962 23.5256L9.74037 23.5263C9.71712 23.5181 9.69762 23.5106 9.67887 23.5017L9.68187 23.5032L1.12212 18.6002C1.01412 18.5375 0.942871 18.4233 0.942871 18.2927V3.70468C0.942871 3.67184 0.948121 3.63975 0.957121 3.6099L0.956371 3.61214C0.959371 3.60095 0.966121 3.59349 0.969871 3.58229C0.976621 3.56065 0.984121 3.54274 0.992371 3.52557L0.991621 3.52781C0.997621 3.51587 1.00512 3.50543 1.01337 3.49647L1.04487 3.45393L1.08012 3.42856C1.09362 3.41737 1.10562 3.40617 1.11912 3.39647H1.11987L5.40087 0.944978C5.45187 0.915127 5.51337 0.897217 5.57862 0.897217C5.64387 0.897217 5.70537 0.915127 5.75787 0.945724L5.75637 0.944978L10.0389 3.39647C10.0531 3.40617 10.0651 3.41662 10.0771 3.42781L10.1131 3.45319C10.1251 3.46662 10.1319 3.48154 10.1446 3.49572C10.1536 3.50468 10.1611 3.51513 10.1679 3.52632L10.1686 3.52707C10.1761 3.54199 10.1836 3.5599 10.1904 3.57856L10.1911 3.58154L10.2031 3.6114C10.2114 3.63752 10.2166 3.66811 10.2166 3.69946C10.2166 3.70095 10.2166 3.70244 10.2166 3.70393V12.8144L13.7836 10.7718V6.11438C13.7836 6.11363 13.7836 6.11289 13.7836 6.11289C13.7836 6.0808 13.7881 6.04945 13.7964 6.0196L13.7956 6.02184C13.7986 6.01214 13.8054 6.00319 13.8076 5.99199C13.8151 5.9696 13.8226 5.95169 13.8316 5.93378L13.8301 5.93677C13.8369 5.92557 13.8474 5.91811 13.8541 5.90543C13.8654 5.89125 13.8744 5.87707 13.8856 5.86513C13.8961 5.85543 13.9074 5.84647 13.9194 5.83901L13.9201 5.83826C13.9336 5.82856 13.9449 5.81662 13.9591 5.80841H13.9599L18.2409 3.35617C18.2919 3.32632 18.3534 3.30841 18.4186 3.30841C18.4839 3.30841 18.5454 3.32632 18.5979 3.35692L18.5964 3.35617L22.8774 5.80841C22.8924 5.81811 22.9029 5.82856 22.9171 5.83751C22.9284 5.84722 22.9411 5.85468 22.9516 5.86363C22.9636 5.87707 22.9726 5.89199 22.9839 5.90543C22.9921 5.91438 22.9996 5.92483 23.0064 5.93528L23.0071 5.93602C23.0161 5.95244 23.0236 5.9711 23.0296 5.9905L23.0304 5.99274C23.0364 6.00169 23.0409 6.0114 23.0446 6.02184L23.0439 6.02259Z" fill="#077FC8"/>
</g>
<defs>
<clipPath id="clip0_131_53">
<rect width="24" height="23.8806" fill="white" transform="translate(0 0.283691)"/>
</clipPath>
</defs>
</svg>
