<svg width="24" height="24" viewBox="0 0 24 24" fill="none" xmlns="http://www.w3.org/2000/svg">
<path d="M5.89481 2.34949C5.89232 2.51548 5.84082 2.67703 5.74679 2.81384C5.65276 2.95066 5.52038 3.05662 5.36631 3.11843C5.21223 3.18023 5.04332 3.19512 4.88081 3.16121C4.7183 3.12731 4.56943 3.04612 4.45292 2.92787C4.33641 2.80961 4.25746 2.65955 4.22597 2.49655C4.19449 2.33355 4.21189 2.16489 4.27598 2.01175C4.34007 1.85861 4.448 1.72783 4.58619 1.63584C4.72439 1.54386 4.88669 1.49477 5.0527 1.49475C5.27751 1.49708 5.49226 1.58829 5.65004 1.74844C5.80783 1.90859 5.89582 2.12467 5.89481 2.34949Z" fill="black"/>
<path d="M3.36844 2.34949C3.36595 2.51548 3.31445 2.67703 3.22042 2.81384C3.12639 2.95066 2.99402 3.05662 2.83994 3.11843C2.68586 3.18023 2.51696 3.19512 2.35444 3.16121C2.19193 3.12731 2.04307 3.04612 1.92656 2.92787C1.81005 2.80961 1.73109 2.65955 1.69961 2.49655C1.66813 2.33355 1.68552 2.16489 1.74961 2.01175C1.81371 1.85861 1.92163 1.72783 2.05983 1.63584C2.19802 1.54386 2.36033 1.49477 2.52634 1.49475C2.75114 1.49708 2.96589 1.58829 3.12368 1.74844C3.28146 1.90859 3.36946 2.12467 3.36844 2.34949Z" fill="black"/>
<path d="M8.42093 2.34949C8.41844 2.51548 8.36694 2.67703 8.27291 2.81384C8.17888 2.95066 8.04651 3.05662 7.89243 3.11843C7.73835 3.18023 7.56945 3.19512 7.40693 3.16121C7.24442 3.12731 7.09556 3.04612 6.97905 2.92787C6.86254 2.80961 6.78358 2.65955 6.7521 2.49655C6.72062 2.33355 6.73801 2.16489 6.8021 2.01175C6.8662 1.85861 6.97412 1.72783 7.11232 1.63584C7.25051 1.54386 7.41282 1.49477 7.57883 1.49475C7.80363 1.49708 8.01838 1.58829 8.17617 1.74844C8.33395 1.90859 8.42195 2.12467 8.42093 2.34949Z" fill="black"/>
<path d="M23.1579 0H0.842105C0.61897 0.000666411 0.405164 0.089602 0.247383 0.247383C0.089602 0.405164 0.000666411 0.61897 0 0.842105V23.1579C0.000666411 23.381 0.089602 23.5948 0.247383 23.7526C0.405164 23.9104 0.61897 23.9993 0.842105 24H23.1579C23.381 23.9993 23.5948 23.9104 23.7526 23.7526C23.9104 23.5948 23.9993 23.381 24 23.1579V0.842105C23.9993 0.61897 23.9104 0.405164 23.7526 0.247383C23.5948 0.089602 23.381 0.000666411 23.1579 0ZM23.1579 23.1579H0.842105V4.70316H23.1579V23.1579ZM23.1579 3.86105H0.842105V0.842105H23.1579V3.86105Z" fill="black"/>
<path d="M22.1938 2.69893C22.2716 2.77837 22.3149 2.8854 22.3141 2.99664C22.3133 3.10788 22.2686 3.21428 22.1896 3.29261C22.1513 3.3319 22.1054 3.36298 22.0548 3.38397C22.0041 3.40497 21.9497 3.41543 21.8948 3.41472C21.839 3.41506 21.7838 3.40404 21.7324 3.38232C21.681 3.36061 21.6345 3.32865 21.5959 3.2884L21.2633 2.95156L20.9306 3.2884C20.892 3.32865 20.8455 3.36061 20.7941 3.38232C20.7428 3.40404 20.6875 3.41506 20.6317 3.41472C20.5768 3.41543 20.5224 3.40497 20.4718 3.38397C20.4211 3.36298 20.3752 3.3319 20.3369 3.29261C20.258 3.21428 20.2132 3.10788 20.2124 2.99664C20.2116 2.8854 20.2549 2.77837 20.3327 2.69893L20.6738 2.34946L20.3327 2.00419C20.2544 1.92414 20.2109 1.81637 20.2117 1.70438C20.2125 1.59238 20.2575 1.48524 20.3369 1.4063C20.4164 1.32843 20.5234 1.28517 20.6347 1.28596C20.7459 1.28675 20.8523 1.33153 20.9306 1.41051L21.2633 1.75156L21.5959 1.41051C21.6742 1.33153 21.7806 1.28675 21.8919 1.28596C22.0031 1.28517 22.1101 1.32843 22.1896 1.4063C22.269 1.48524 22.314 1.59238 22.3148 1.70438C22.3156 1.81637 22.2721 1.92414 22.1938 2.00419L21.8527 2.34946L22.1938 2.69893Z" fill="black"/>
<path d="M19.3684 2.34946C19.3684 2.46113 19.324 2.56822 19.245 2.64719C19.1661 2.72615 19.059 2.77051 18.9473 2.77051H17.2631C17.1514 2.77051 17.0443 2.72615 16.9654 2.64719C16.8864 2.56822 16.842 2.46113 16.842 2.34946C16.842 2.23779 16.8864 2.13069 16.9654 2.05173C17.0443 1.97277 17.1514 1.92841 17.2631 1.92841H18.9473C19.059 1.92841 19.1661 1.97277 19.245 2.05173C19.324 2.13069 19.3684 2.23779 19.3684 2.34946Z" fill="black"/>
<path d="M7.01065 16.5853L8.53907 15.7053H15.9791C16.2009 15.7041 16.4182 15.6423 16.6075 15.5265C16.7967 15.4108 16.9507 15.2454 17.0528 15.0485L19.4401 10.539C19.5512 10.3264 19.6013 10.0873 19.585 9.84802C19.5686 9.60876 19.4864 9.37867 19.3475 9.18319L19.0443 8.75372C18.9323 8.59641 18.7846 8.46787 18.6134 8.37859C18.4421 8.2893 18.2522 8.24183 18.0591 8.24003H18.0549L8.13065 8.26529L8.06749 7.61687C8.03896 7.29674 7.89273 6.99856 7.65707 6.78001C7.42141 6.56146 7.11307 6.43808 6.7917 6.43372H4.41275C4.30108 6.43372 4.19399 6.47808 4.11502 6.55704C4.03606 6.636 3.9917 6.7431 3.9917 6.85477C3.9917 6.96644 4.03606 7.07353 4.11502 7.1525C4.19399 7.23146 4.30108 7.27582 4.41275 7.27582H6.7917C6.90481 7.28079 7.01209 7.32739 7.09293 7.40667C7.17376 7.48594 7.22243 7.5923 7.22959 7.70529L7.97907 15.0569L6.56012 15.8779C6.38477 16.0014 6.24187 16.1654 6.14363 16.356C6.04539 16.5467 5.9947 16.7582 5.99591 16.9727V17.0906C5.99275 17.4197 6.11356 17.738 6.33433 17.9822C6.5551 18.2264 6.85967 18.3785 7.18749 18.4085C6.97244 18.7314 6.85814 19.111 6.85907 19.499C6.84986 19.7483 6.89102 19.9969 6.98009 20.23C7.06915 20.463 7.20429 20.6758 7.37743 20.8554C7.55056 21.035 7.75814 21.1779 7.98776 21.2755C8.21737 21.3731 8.46431 21.4234 8.7138 21.4234C8.9633 21.4234 9.21024 21.3731 9.43985 21.2755C9.66947 21.1779 9.87704 21.035 10.0502 20.8554C10.2233 20.6758 10.3585 20.463 10.4475 20.23C10.5366 19.9969 10.5777 19.7483 10.5685 19.499C10.5683 19.1144 10.4556 18.7382 10.2443 18.4169H14.0633C13.8501 18.7373 13.7372 19.1141 13.7391 19.499C13.7299 19.7483 13.771 19.9969 13.8601 20.23C13.9492 20.463 14.0843 20.6758 14.2574 20.8554C14.4306 21.035 14.6381 21.1779 14.8678 21.2755C15.0974 21.3731 15.3443 21.4234 15.5938 21.4234C15.8433 21.4234 16.0902 21.3731 16.3199 21.2755C16.5495 21.1779 16.757 21.035 16.9302 20.8554C17.1033 20.6758 17.2385 20.463 17.3275 20.23C17.4166 19.9969 17.4577 19.7483 17.4485 19.499C17.4483 19.1144 17.3356 18.7382 17.1243 18.4169H17.8864C17.9981 18.4169 18.1052 18.3725 18.1842 18.2935C18.2631 18.2146 18.3075 18.1075 18.3075 17.9958C18.3075 17.8842 18.2631 17.7771 18.1842 17.6981C18.1052 17.6191 17.9981 17.5748 17.8864 17.5748H7.28012C7.15751 17.5685 7.04231 17.5142 6.95953 17.4235C6.87676 17.3329 6.83309 17.2132 6.83801 17.0906V16.9727C6.83731 16.8995 6.85236 16.827 6.88215 16.7602C6.91193 16.6933 6.95576 16.6337 7.01065 16.5853ZM16.3117 14.6527C16.2803 14.7144 16.2328 14.7666 16.1743 14.8036C16.1158 14.8407 16.0483 14.8612 15.9791 14.8632H8.80433L8.37065 10.5937L18.4591 10.5895L16.3117 14.6527ZM18.0549 9.08214H18.0591C18.1181 9.08274 18.1761 9.09761 18.2282 9.12547C18.2802 9.15332 18.3248 9.19335 18.358 9.24214L18.6654 9.67161C18.678 9.69266 18.6906 9.71793 18.7033 9.74319L8.28223 9.75161L8.21907 9.1074L18.0549 9.08214ZM15.5917 18.4169C15.8094 18.4016 16.0267 18.4522 16.2153 18.5621C16.4038 18.6721 16.5549 18.8362 16.6489 19.0333C16.7428 19.2303 16.7752 19.451 16.7419 19.6667C16.7086 19.8824 16.6111 20.0831 16.4622 20.2427C16.3132 20.4022 16.1196 20.5132 15.9067 20.5611C15.6938 20.6091 15.4713 20.5918 15.2683 20.5116C15.0654 20.4313 14.8913 20.2918 14.7687 20.1112C14.6461 19.9306 14.5808 19.7172 14.5812 19.499C14.5725 19.2217 14.6739 18.9523 14.8633 18.7495C15.0526 18.5468 15.3145 18.4272 15.5917 18.4169ZM8.7117 18.4169C8.92943 18.4016 9.14673 18.4522 9.33528 18.5621C9.52384 18.6721 9.67493 18.8362 9.76886 19.0333C9.86279 19.2303 9.89522 19.451 9.86192 19.6667C9.82862 19.8824 9.73114 20.0831 9.58217 20.2427C9.43319 20.4022 9.23964 20.5132 9.0267 20.5611C8.81377 20.6091 8.59133 20.5918 8.38835 20.5116C8.18537 20.4313 8.01126 20.2918 7.88869 20.1112C7.76612 19.9306 7.70078 19.7172 7.70117 19.499C7.69253 19.2217 7.79395 18.9523 7.98328 18.7495C8.17262 18.5468 8.43449 18.4272 8.7117 18.4169Z" fill="black"/>
</svg>
