<svg width="24" height="24" viewBox="0 0 24 24" fill="none" xmlns="http://www.w3.org/2000/svg">
<mask id="path-1-inside-1_121_218" fill="white">
<path d="M9.30667 12.1612L10.9395 13.93L14.6133 9.95M8.24533 23.88H15.6747C17.1607 23.88 17.9037 23.88 18.4713 23.5908C18.9705 23.3365 19.3765 22.9305 19.6308 22.4313C19.92 21.8637 19.92 21.1207 19.92 19.6347V4.24533C19.92 2.75933 19.92 2.01632 19.6308 1.44875C19.3765 0.949482 18.9705 0.543575 18.4713 0.2892C17.9037 -1.18613e-07 17.1607 0 15.6747 0H8.24533C6.75933 0 6.01632 -1.18613e-07 5.44875 0.2892C4.94948 0.543575 4.54358 0.949482 4.2892 1.44875C4 2.01632 4 2.75932 4 4.24533V19.6347C4 21.1207 4 21.8637 4.2892 22.4313C4.54358 22.9305 4.94948 23.3365 5.44875 23.5908C6.01632 23.88 6.75932 23.88 8.24533 23.88Z"/>
</mask>
<path d="M10.0415 11.4829C9.66684 11.077 9.03418 11.0518 8.62837 11.4264C8.22256 11.801 8.19727 12.4336 8.57188 12.8395L10.0415 11.4829ZM10.9395 13.93L10.2047 14.6083C10.3941 14.8134 10.6604 14.93 10.9395 14.93C11.2186 14.93 11.485 14.8134 11.6743 14.6083L10.9395 13.93ZM15.3481 10.6283C15.7227 10.2225 15.6974 9.58979 15.2916 9.21519C14.8858 8.84059 14.2531 8.8659 13.8785 9.27172L15.3481 10.6283ZM18.4713 23.5908L18.0174 22.6997L18.0172 22.6998L18.4713 23.5908ZM19.6308 22.4313L18.7398 21.9772L18.7397 21.9774L19.6308 22.4313ZM19.6308 1.44875L18.7397 1.90264L18.7398 1.90276L19.6308 1.44875ZM18.4713 0.2892L18.0173 1.18019L18.0173 1.1802L18.4713 0.2892ZM5.44875 0.2892L5.90272 1.18022L5.90275 1.1802L5.44875 0.2892ZM4.2892 1.44875L5.1802 1.90275L5.18022 1.90272L4.2892 1.44875ZM4.2892 22.4313L5.1802 21.9773L5.18019 21.9773L4.2892 22.4313ZM5.44875 23.5908L5.90276 22.6998L5.90264 22.6997L5.44875 23.5908ZM8.57188 12.8395L10.2047 14.6083L11.6743 13.2517L10.0415 11.4829L8.57188 12.8395ZM11.6743 14.6083L15.3481 10.6283L13.8785 9.27172L10.2047 13.2517L11.6743 14.6083ZM8.24533 24.88H15.6747V22.88H8.24533V24.88ZM15.6747 24.88C16.4012 24.88 17.0062 24.8808 17.4988 24.8405C18.0031 24.7993 18.477 24.7102 18.9253 24.4818L18.0172 22.6998C17.898 22.7606 17.7166 22.8161 17.336 22.8472C16.9437 22.8792 16.4342 22.88 15.6747 22.88V24.88ZM18.9252 24.4818C19.6126 24.1316 20.1716 23.5726 20.5218 22.8852L18.7397 21.9774C18.5813 22.2884 18.3284 22.5413 18.0174 22.6997L18.9252 24.4818ZM20.5218 22.8853C20.7502 22.437 20.8393 21.9631 20.8805 21.4588C20.9208 20.9662 20.92 20.3612 20.92 19.6347H18.92C18.92 20.3942 18.9192 20.9037 18.8872 21.296C18.8561 21.6766 18.8006 21.858 18.7398 21.9772L20.5218 22.8853ZM20.92 19.6347V4.24533H18.92V19.6347H20.92ZM20.92 4.24533C20.92 3.51883 20.9208 2.91381 20.8805 2.42119C20.8393 1.9169 20.7502 1.44299 20.5218 0.994732L18.7398 1.90276C18.8006 2.02207 18.8561 2.20346 18.8872 2.58407C18.9192 2.97635 18.92 3.48583 18.92 4.24533H20.92ZM20.5218 0.99485C20.1716 0.307308 19.6126 -0.251575 18.9253 -0.601801L18.0173 1.1802C18.3284 1.33873 18.5813 1.59166 18.7397 1.90264L20.5218 0.99485ZM18.9253 -0.601794C18.477 -0.83021 18.0031 -0.919327 17.4988 -0.960529C17.0062 -1.00078 16.4012 -1 15.6747 -1V1C16.4342 1 16.9437 1.00078 17.336 1.03283C17.7166 1.06393 17.898 1.11941 18.0173 1.18019L18.9253 -0.601794ZM15.6747 -1H8.24533V1H15.6747V-1ZM8.24533 -1C7.51883 -1 6.91382 -1.00078 6.4212 -0.960529C5.91691 -0.919326 5.44301 -0.830207 4.99475 -0.601803L5.90275 1.1802C6.02206 1.11941 6.20345 1.06393 6.58406 1.03283C6.97635 1.00078 7.48583 1 8.24533 1V-1ZM4.99477 -0.601816C4.30733 -0.251565 3.74844 0.307333 3.39818 0.994774L5.18022 1.90272C5.33871 1.59163 5.59163 1.33871 5.90272 1.18022L4.99477 -0.601816ZM3.3982 0.994748C3.16979 1.44301 3.08067 1.9169 3.03947 2.42119C2.99922 2.91381 3 3.51883 3 4.24533H5C5 3.48583 5.00078 2.97634 5.03283 2.58406C5.06393 2.20345 5.11941 2.02206 5.1802 1.90275L3.3982 0.994748ZM3 4.24533V19.6347H5V4.24533H3ZM3 19.6347C3 20.3612 2.99922 20.9662 3.03947 21.4588C3.08067 21.9631 3.16979 22.437 3.39821 22.8853L5.18019 21.9773C5.11941 21.858 5.06393 21.6766 5.03283 21.296C5.00078 20.9037 5 20.3942 5 19.6347H3ZM3.3982 22.8853C3.74843 23.5726 4.30731 24.1316 4.99485 24.4818L5.90264 22.6997C5.59166 22.5413 5.33872 22.2884 5.1802 21.9773L3.3982 22.8853ZM4.99473 24.4818C5.44299 24.7102 5.91689 24.7993 6.42119 24.8405C6.91381 24.8808 7.51883 24.88 8.24533 24.88V22.88C7.48582 22.88 6.97634 22.8792 6.58406 22.8472C6.20346 22.8161 6.02207 22.7606 5.90276 22.6998L4.99473 24.4818Z" fill="black" mask="url(#path-1-inside-1_121_218)"/>
</svg>
