<svg width="24" height="24" viewBox="0 0 24 24" fill="none" xmlns="http://www.w3.org/2000/svg">
<path d="M22.5 6.90113V15.7516C22.5 17.1587 21.6573 18.429 20.3609 18.9762L13.3609 21.9305C12.4908 22.2978 11.5092 22.2978 10.6391 21.9305L3.63906 18.9762C2.34267 18.429 1.5 17.1587 1.5 15.7516V6.90113C1.5 5.44272 2.40433 4.13717 3.76966 3.6245L10.7697 0.996068C11.5628 0.698232 12.4372 0.698233 13.2303 0.996068L20.2303 3.6245C21.5957 4.13717 22.5 5.44272 22.5 6.90113Z" stroke="black"/>
<path d="M6.23804 7.33331L11.9999 10.4762L17.238 7.33331" stroke="black"/>
<line x1="11.9761" y1="9.95233" x2="11.9761" y2="17.2857" stroke="black"/>
</svg>
