<svg width="24" height="25" viewBox="0 0 24 25" fill="none" xmlns="http://www.w3.org/2000/svg">
<g clip-path="url(#clip0_6_135)">
<path d="M21.15 6.33333L12.85 1.65671C12.584 1.53246 12.2938 1.46804 12 1.46804C11.7062 1.46804 11.416 1.53246 11.15 1.65671L2.85 6.33333C2.59481 6.4799 2.38228 6.68995 2.23327 6.94289C2.08425 7.19582 2.00387 7.48295 2 7.77612V17.0298C2.00387 17.323 2.08425 17.6101 2.23327 17.8631C2.38228 18.116 2.59481 18.3261 2.85 18.4726L5.05 19.7164C5.62473 20.0543 6.28256 20.2266 6.95 20.2139C8.5 20.2139 9.4 19.2687 9.4 17.6766V8.57214C9.4 8.50616 9.37366 8.44289 9.32678 8.39624C9.27989 8.34959 9.2163 8.32338 9.15 8.32338H8.1C8.0337 8.32338 7.97011 8.34959 7.92322 8.39624C7.87634 8.44289 7.85 8.50616 7.85 8.57214V17.6766C7.85 18.4229 7.1 19.1194 5.9 18.5224L3.6 17.2289C3.56895 17.2057 3.54375 17.1756 3.52639 17.1411C3.50904 17.1066 3.5 17.0685 3.5 17.0298V7.77612C3.50344 7.68419 3.53878 7.59629 3.6 7.52736L11.85 2.9005H12.15L20.4 7.52736C20.4612 7.59629 20.4966 7.68419 20.5 7.77612V17.0298C20.5 17.0685 20.491 17.1066 20.4736 17.1411C20.4562 17.1756 20.431 17.2057 20.4 17.2289L12.15 21.8557C12.1044 21.8819 12.0527 21.8957 12 21.8957C11.9473 21.8957 11.8956 21.8819 11.85 21.8557L9.75 20.6617C9.7225 20.6372 9.6869 20.6237 9.65 20.6237C9.6131 20.6237 9.5775 20.6372 9.55 20.6617L8.3 21.209C8.15 21.2587 7.95 21.3085 8.35 21.5572L11.15 23.0995C11.4026 23.2643 11.698 23.3521 12 23.3521C12.302 23.3521 12.5974 23.2643 12.85 23.0995L21.15 18.4726C21.4052 18.3261 21.6177 18.116 21.7667 17.8631C21.9157 17.6101 21.9961 17.323 22 17.0298V7.77612C21.9961 7.48295 21.9157 7.19582 21.7667 6.94289C21.6177 6.68995 21.4052 6.4799 21.15 6.33333Z" fill="black"/>
<path d="M14.55 15.5373C12.35 15.5373 11.9 15.0398 11.7 13.995C11.7 13.9422 11.6789 13.8916 11.6414 13.8543C11.6039 13.817 11.553 13.796 11.5 13.796H10.4C10.3469 13.796 10.296 13.817 10.2585 13.8543C10.221 13.8916 10.2 13.9422 10.2 13.995C10.2 15.3383 10.95 16.9801 14.55 16.9801C17.15 16.9801 18.65 15.9851 18.65 14.2438C18.65 12.5025 17.45 12.005 14.9 11.7065C12.35 11.408 12.1 11.209 12.1 10.6119C12.1 10.0149 12.3 9.51741 14.2 9.51741C16.1 9.51741 16.55 9.86567 16.8 10.9602C16.8116 11.0172 16.8431 11.0684 16.8887 11.1047C16.9344 11.1411 16.9915 11.1604 17.05 11.1592H18.1L18.3 11.0597C18.318 11.0395 18.3318 11.0159 18.3404 10.9902C18.349 10.9645 18.3523 10.9374 18.35 10.9104C18.2 8.97015 16.85 8.07462 14.2 8.07462C11.55 8.07462 10.45 9.06965 10.45 10.6617C10.45 12.2537 11.85 12.9005 14.1 13.1492C16.35 13.398 17.05 13.7463 17.05 14.2935C17.05 14.8408 16.3 15.5373 14.55 15.5373Z" fill="black"/>
</g>
<defs>
<clipPath id="clip0_6_135">
<rect width="24" height="23.8806" fill="white" transform="translate(0 0.462685)"/>
</clipPath>
</defs>
</svg>
