<svg width="24" height="25" viewBox="0 0 24 25" fill="none" xmlns="http://www.w3.org/2000/svg">
<g clip-path="url(#clip0_131_42)">
<path d="M21.15 6.3333L12.85 1.65669C12.584 1.53243 12.2938 1.46802 12 1.46802C11.7062 1.46802 11.416 1.53243 11.15 1.65669L2.85 6.3333C2.59481 6.47987 2.38228 6.68993 2.23327 6.94286C2.08425 7.1958 2.00387 7.48293 2 7.77609V17.0298C2.00387 17.323 2.08425 17.6101 2.23327 17.8631C2.38228 18.116 2.59481 18.326 2.85 18.4726L5.05 19.7164C5.62473 20.0543 6.28256 20.2266 6.95 20.2139C8.5 20.2139 9.4 19.2686 9.4 17.6766V8.57211C9.4 8.50614 9.37366 8.44286 9.32678 8.39621C9.27989 8.34956 9.2163 8.32335 9.15 8.32335H8.1C8.0337 8.32335 7.97011 8.34956 7.92322 8.39621C7.87634 8.44286 7.85 8.50614 7.85 8.57211V17.6766C7.85 18.4229 7.1 19.1194 5.9 18.5224L3.6 17.2288C3.56895 17.2057 3.54375 17.1756 3.52639 17.1411C3.50904 17.1065 3.5 17.0684 3.5 17.0298V7.77609C3.50344 7.68416 3.53878 7.59626 3.6 7.52733L11.85 2.90047H12.15L20.4 7.52733C20.4612 7.59626 20.4966 7.68416 20.5 7.77609V17.0298C20.5 17.0684 20.491 17.1065 20.4736 17.1411C20.4562 17.1756 20.431 17.2057 20.4 17.2288L12.15 21.8557C12.1044 21.8819 12.0527 21.8957 12 21.8957C11.9473 21.8957 11.8956 21.8819 11.85 21.8557L9.75 20.6617C9.7225 20.6372 9.6869 20.6237 9.65 20.6237C9.6131 20.6237 9.5775 20.6372 9.55 20.6617L8.3 21.2089C8.15 21.2587 7.95 21.3084 8.35 21.5572L11.15 23.0995C11.4026 23.2643 11.698 23.3521 12 23.3521C12.302 23.3521 12.5974 23.2643 12.85 23.0995L21.15 18.4726C21.4052 18.326 21.6177 18.116 21.7667 17.8631C21.9157 17.6101 21.9961 17.323 22 17.0298V7.77609C21.9961 7.48293 21.9157 7.1958 21.7667 6.94286C21.6177 6.68993 21.4052 6.47987 21.15 6.3333Z" fill="#077FC8"/>
<path d="M14.5502 15.5374C12.3502 15.5374 11.9002 15.0399 11.7002 13.9951C11.7002 13.9423 11.6791 13.8917 11.6416 13.8544C11.6041 13.8171 11.5532 13.7961 11.5002 13.7961H10.4002C10.3472 13.7961 10.2963 13.8171 10.2588 13.8544C10.2213 13.8917 10.2002 13.9423 10.2002 13.9951C10.2002 15.3384 10.9502 16.9802 14.5502 16.9802C17.1502 16.9802 18.6502 15.9852 18.6502 14.2439C18.6502 12.5026 17.4502 12.0051 14.9002 11.7065C12.3502 11.408 12.1002 11.209 12.1002 10.612C12.1002 10.015 12.3002 9.51749 14.2002 9.51749C16.1002 9.51749 16.5502 9.86575 16.8002 10.9603C16.8119 11.0173 16.8433 11.0685 16.889 11.1048C16.9347 11.1412 16.9917 11.1605 17.0502 11.1593H18.1002L18.3002 11.0598C18.3183 11.0396 18.3321 11.0159 18.3406 10.9903C18.3492 10.9646 18.3525 10.9375 18.3502 10.9105C18.2002 8.97023 16.8502 8.07471 14.2002 8.07471C11.5502 8.07471 10.4502 9.06973 10.4502 10.6618C10.4502 12.2538 11.8502 12.9006 14.1002 13.1493C16.3502 13.3981 17.0502 13.7463 17.0502 14.2936C17.0502 14.8409 16.3002 15.5374 14.5502 15.5374Z" fill="#077FC8"/>
</g>
<defs>
<clipPath id="clip0_131_42">
<rect width="24" height="23.8806" fill="white" transform="translate(0 0.462646)"/>
</clipPath>
</defs>
</svg>
