<svg width="24" height="25" viewBox="0 0 24 25" fill="none" xmlns="http://www.w3.org/2000/svg">
<path d="M12 6.16992C5.37375 6.16992 0 8.97892 0 12.4491C0 15.9192 5.37375 18.7297 12 18.7297C18.6263 18.7297 24 15.9192 24 12.4491C24 8.97892 18.6263 6.16992 12 6.16992ZM12 6.79667C18.4275 6.79667 23.3701 9.49012 23.3701 12.4491C23.3701 15.408 18.4237 18.1029 12 18.1029C5.5725 18.1029 0.629883 15.408 0.629883 12.4491C0.629883 9.49012 5.57625 6.79667 12 6.79667ZM10.5425 8.04142L9.32959 14.2652H10.6831L11.3818 10.6985C12.4836 10.6985 12.9394 10.6549 13.1396 10.8691C13.3474 11.0907 13.2409 11.3338 12.6694 14.2652H14.042C14.636 11.2346 14.8986 10.5915 14.3496 10.0893C13.8269 9.60944 12.7437 9.69429 11.5752 9.69429L11.8975 8.04142H10.5425ZM4.86621 9.69866L3.65186 15.9268H5.01416L5.33643 14.2725C6.86118 14.2725 7.80834 14.3827 8.68359 13.567C9.65184 12.6812 9.90462 11.1048 9.21387 10.3152C8.85387 9.90178 8.27428 9.69866 7.48828 9.69866H4.86621ZM15.5098 9.69866L14.2939 15.9268H15.6592L15.9814 14.2725C17.5842 14.2725 18.4714 14.3648 19.3286 13.567C20.2969 12.6812 20.5496 11.1048 19.8589 10.3152C19.4989 9.90178 18.9193 9.69866 18.1333 9.69866H15.5098ZM7.00195 10.6796C7.85309 10.7035 8.34015 10.8828 8.13428 11.9462C7.84103 13.4417 6.80693 13.2872 5.53418 13.2872L6.04248 10.6811C6.39498 10.6811 6.71824 10.6716 7.00195 10.6796ZM17.647 10.6796C18.4992 10.7035 18.9808 10.8828 18.7749 11.9462C18.4779 13.4634 17.4138 13.2872 16.1748 13.2872L16.6831 10.6811C17.0375 10.6811 17.3629 10.6716 17.647 10.6796Z" fill="#077FC8"/>
</svg>
