<svg width="24" height="25" viewBox="0 0 24 25" fill="none" xmlns="http://www.w3.org/2000/svg">
<path d="M12 6.17013C5.37375 6.17013 0 8.97913 0 12.4493C0 15.9194 5.37375 18.7299 12 18.7299C18.6262 18.7299 24 15.9194 24 12.4493C24 8.97913 18.6262 6.17013 12 6.17013ZM12 6.79688C18.4275 6.79688 23.3701 9.49032 23.3701 12.4493C23.3701 15.4082 18.4237 18.1031 12 18.1031C5.5725 18.1031 0.629883 15.4082 0.629883 12.4493C0.629883 9.49032 5.57625 6.79688 12 6.79688ZM10.5425 8.04163L9.32959 14.2654H10.6831L11.3818 10.6988C12.4836 10.6988 12.9394 10.6551 13.1396 10.8693C13.3474 11.0909 13.2409 11.3341 12.6694 14.2654H14.042C14.636 11.2348 14.8986 10.5917 14.3496 10.0895C13.8269 9.60964 12.7437 9.6945 11.5752 9.6945L11.8975 8.04163H10.5425ZM4.86621 9.69887L3.65186 15.927H5.01416L5.33643 14.2727C6.86118 14.2727 7.80834 14.3829 8.68359 13.5672C9.65184 12.6814 9.90462 11.105 9.21387 10.3154C8.85387 9.90198 8.27428 9.69887 7.48828 9.69887H4.86621ZM15.5098 9.69887L14.2939 15.927H15.6592L15.9814 14.2727C17.5842 14.2727 18.4714 14.365 19.3286 13.5672C20.2969 12.6814 20.5496 11.105 19.8589 10.3154C19.4989 9.90198 18.9193 9.69887 18.1333 9.69887H15.5098ZM7.00195 10.6798C7.85309 10.7037 8.34015 10.883 8.13428 11.9464C7.84103 13.4419 6.80693 13.2874 5.53418 13.2874L6.04248 10.6813C6.39498 10.6813 6.71824 10.6719 7.00195 10.6798ZM17.647 10.6798C18.4992 10.7037 18.9808 10.883 18.7749 11.9464C18.4779 13.4636 17.4138 13.2874 16.1748 13.2874L16.6831 10.6813C17.0375 10.6813 17.3629 10.6719 17.647 10.6798Z" fill="black"/>
</svg>
