<svg width="24" height="25" viewBox="0 0 24 25" fill="none" xmlns="http://www.w3.org/2000/svg">
<path d="M10.6496 17.2174C11.0897 17.2373 11.5395 17.2516 11.9948 17.2516C12.4549 17.2516 12.9095 17.242 13.3552 17.2174C12.9095 17.7907 12.4693 18.2979 12.0036 18.7812L12.01 18.7748C11.5467 18.2971 11.1017 17.7891 10.6824 17.2604L10.6496 17.2174ZM6.08983 16.5803C6.95649 16.7993 8.0136 16.9856 9.09233 17.1003L9.19716 17.1091C9.85736 18.0112 10.5248 18.8051 11.241 19.552L11.2322 19.5424C10.1831 20.7074 8.76743 21.5259 7.16615 21.8197L7.12214 21.8261C7.11894 21.8261 7.11573 21.8261 7.11253 21.8261C6.91407 21.8261 6.72682 21.7775 6.56277 21.6915L6.56917 21.6947C5.90337 21.3165 5.61448 19.8697 5.83935 18.0104C5.89297 17.5526 5.98099 17.0708 6.08903 16.5796L6.08983 16.5803ZM17.9198 16.57C18.0142 16.9474 18.103 17.4284 18.1662 17.9173L18.1735 17.9857C18.4031 19.8442 18.1198 21.2894 17.4596 21.6756C17.3124 21.7568 17.1363 21.8046 16.9491 21.8046C16.9307 21.8046 16.9123 21.8038 16.8939 21.803H16.8963C15.2534 21.5044 13.8386 20.6914 12.7918 19.5408L12.7862 19.5345C13.4896 18.7995 14.1522 18.0072 14.7596 17.1736L14.806 17.1067C15.9872 16.9841 17.0459 16.7945 18.0774 16.5358L17.9198 16.5692V16.57ZM7.02531 13.5984C7.22537 13.9885 7.43503 14.3771 7.6655 14.7673C7.89543 15.1553 8.13044 15.5343 8.37051 15.9043C7.6759 15.8032 7.0053 15.6758 6.36431 15.5205C6.54436 14.8939 6.77003 14.2449 7.02451 13.5968L7.02531 13.5984ZM16.9707 13.5785C17.2356 14.2322 17.4604 14.8843 17.6469 15.5165C17.0067 15.6726 16.3305 15.8048 15.6311 15.9043C15.8712 15.5309 16.1112 15.1463 16.3361 14.7521C16.561 14.3644 16.7714 13.9678 16.9723 13.5777L16.9707 13.5785ZM5.29279 9.31927C5.64169 10.4961 6.0162 11.4803 6.45234 12.4295L6.39232 12.2845C6.01941 13.0848 5.65049 14.0634 5.348 15.0706L5.30639 15.2339C4.74142 15.0611 4.28689 14.8915 3.84435 14.7012L3.93638 14.7362C2.20466 14.0029 1.08433 13.0386 1.08433 12.2742C1.08433 11.5098 2.20466 10.5407 3.93638 9.81056C4.35651 9.6314 4.81744 9.46976 5.29279 9.31927ZM18.688 9.31529C19.1722 9.46419 19.6323 9.6306 20.0628 9.81056C21.7945 10.5471 22.9149 11.5098 22.9149 12.2742C22.9101 13.0386 21.7897 14.0052 20.058 14.737C19.6379 14.9162 19.1778 15.077 18.7032 15.2275C18.3511 14.0467 17.9766 13.0633 17.5421 12.1125L17.6029 12.2622C17.9742 11.4628 18.3439 10.4842 18.6456 9.47693L18.688 9.3129V9.31529ZM15.6247 8.64404C16.3201 8.74676 16.9899 8.87257 17.6309 9.02943C17.4508 9.65847 17.226 10.305 16.9707 10.9532C16.7706 10.5654 16.561 10.1744 16.3305 9.78508C16.1056 9.39491 15.8656 9.0151 15.6255 8.64484L15.6247 8.64404ZM8.36491 8.64404C8.12484 9.01908 7.88477 9.40287 7.6607 9.79862C7.43583 10.1864 7.22537 10.5766 7.02531 10.9667C6.76043 10.3138 6.53556 9.66325 6.3491 9.02943C6.9893 8.88053 7.6639 8.74755 8.36411 8.64563L8.36491 8.64404ZM11.9996 8.39083C12.7398 8.39083 13.4768 8.42427 14.2019 8.4832C14.6078 9.06234 15.0021 9.67918 15.3846 10.3337C15.7565 10.9707 16.0958 11.6162 16.4025 12.2702C16.0944 12.9223 15.7567 13.5737 15.3894 14.2107C15.0093 14.8676 14.6164 15.4927 14.2091 16.0715C13.4808 16.1344 12.743 16.1687 11.9988 16.1687C11.2586 16.1687 10.5216 16.1336 9.79654 16.0763C9.39082 15.4974 8.9947 14.8779 8.61378 14.2258C8.24194 13.5888 7.90264 12.9433 7.59588 12.2893C7.89917 11.6356 8.24167 10.9827 8.60898 10.3448C8.9891 9.68793 9.38201 9.06526 9.78934 8.48638C10.5176 8.42268 11.2554 8.38924 11.9996 8.38924V8.39083ZM11.9844 5.7783C12.4485 6.25606 12.8935 6.76328 13.312 7.29199L13.344 7.33419C12.9039 7.31429 12.4541 7.30075 11.9988 7.30075C11.5387 7.30075 11.0841 7.31031 10.6384 7.33419C11.0833 6.76089 11.5235 6.25367 11.99 5.77034L11.9836 5.77671L11.9844 5.7783ZM7.10213 2.74297C8.74502 3.04236 10.159 3.85534 11.2066 5.00514L11.2122 5.01151C10.5088 5.74725 9.84615 6.53953 9.23877 7.3748L9.19236 7.44169C8.012 7.56352 6.95329 7.75143 5.92258 8.01022L6.07942 7.97677C5.96739 7.48946 5.88416 7.01728 5.82575 6.56421C5.59608 4.70574 5.87936 3.26053 6.53956 2.87594C6.70441 2.7987 6.89727 2.75093 7.10053 2.74456H7.10293L7.10213 2.74297ZM16.8731 2.72306V2.72943C16.8835 2.72943 16.8955 2.72863 16.9083 2.72863C17.0995 2.72863 17.2796 2.77561 17.438 2.85842L17.4316 2.85524C18.0974 3.23505 18.3863 4.68106 18.1614 6.54112C18.1078 6.99897 18.0198 7.4815 17.9118 7.97359C17.0435 7.75223 15.9864 7.56511 14.9077 7.45124L14.8052 7.44249C14.1442 6.53953 13.4768 5.74566 12.7606 4.99797L12.7702 5.00753C13.8193 3.84499 15.2326 3.02643 16.8306 2.73102L16.8755 2.72386L16.8731 2.72306ZM16.8779 1.63856C14.9237 1.93397 13.232 2.87833 11.9964 4.24073L11.99 4.2479C10.7456 2.88629 9.05392 1.9483 7.14774 1.66404L7.10293 1.65846C7.09253 1.65846 7.07972 1.65846 7.06692 1.65846C6.674 1.65846 6.30509 1.76118 5.9858 1.94113L5.997 1.93556C4.62219 2.72465 4.31409 5.1835 5.02391 8.269C1.97979 9.20461 0 10.7 0 12.2758C0 13.8579 1.9902 15.3573 5.04311 16.2857C4.3389 19.3832 4.6534 21.846 6.03141 22.6343C6.3339 22.8071 6.69721 22.9082 7.08373 22.9082C7.10133 22.9082 7.11894 22.9082 7.13574 22.9074H7.13334C9.08753 22.612 10.7792 21.6669 12.0148 20.3037L12.0212 20.2965C13.2656 21.6589 14.9573 22.5969 16.8635 22.8811L16.9083 22.8867C16.9203 22.8867 16.9355 22.8867 16.9499 22.8867C17.3404 22.8867 17.7077 22.7848 18.0254 22.6072L18.0142 22.6128C19.3882 21.8245 19.6971 19.3657 18.9873 16.2794C22.0202 15.3517 24 13.8532 24 12.275C24 10.6928 22.0098 9.19346 18.9569 8.26263C19.6611 5.16837 19.3466 2.70315 17.9686 1.91406C17.6629 1.73968 17.2964 1.63696 16.9059 1.63696C16.8955 1.63696 16.8851 1.63696 16.8747 1.63696H16.8763L16.8779 1.63856ZM14.2299 12.2758C14.2299 13.5044 13.2288 14.5005 11.994 14.5005C10.7592 14.5005 9.75813 13.5044 9.75813 12.2758C9.75813 11.0471 10.7592 10.051 11.994 10.051C12.6118 10.051 13.1704 10.3003 13.5753 10.7024C13.9802 11.1053 14.2299 11.6611 14.2299 12.2758Z" fill="#077FC8"/>
</svg>
