<svg width="24" height="25" viewBox="0 0 24 25" fill="none" xmlns="http://www.w3.org/2000/svg">
<path d="M10.6496 17.2172C11.0897 17.2371 11.5395 17.2515 11.9948 17.2515C12.4549 17.2515 12.9095 17.2419 13.3552 17.2172C12.9095 17.7905 12.4693 18.2977 12.0036 18.7811L12.01 18.7747C11.5467 18.2969 11.1017 17.7889 10.6824 17.2602L10.6496 17.2172ZM6.08983 16.5802C6.95649 16.7992 8.0136 16.9855 9.09233 17.1002L9.19716 17.1089C9.85736 18.0111 10.5248 18.805 11.241 19.5518L11.2322 19.5423C10.1831 20.7072 8.76743 21.5258 7.16615 21.8196L7.12214 21.826C7.11894 21.826 7.11573 21.826 7.11253 21.826C6.91407 21.826 6.72682 21.7774 6.56277 21.6914L6.56917 21.6946C5.90337 21.3163 5.61448 19.8695 5.83935 18.0103C5.89297 17.5524 5.98099 17.0707 6.08903 16.5794L6.08983 16.5802ZM17.9198 16.5699C18.0142 16.9473 18.103 17.4282 18.1663 17.9171L18.1735 17.9856C18.4031 19.8441 18.1198 21.2893 17.4596 21.6755C17.3124 21.7567 17.1363 21.8045 16.9491 21.8045C16.9307 21.8045 16.9123 21.8037 16.8939 21.8029H16.8963C15.2534 21.5043 13.8386 20.6913 12.7918 19.5407L12.7862 19.5343C13.4896 18.7994 14.1522 18.0071 14.7596 17.1734L14.806 17.1065C15.9872 16.9839 17.0459 16.7944 18.0774 16.5356L17.9198 16.5691V16.5699ZM7.02531 13.5982C7.22537 13.9884 7.43503 14.377 7.6655 14.7671C7.89543 15.1552 8.13044 15.5342 8.37051 15.9042C7.6759 15.8031 7.0053 15.6757 6.36431 15.5204C6.54436 14.8937 6.77003 14.2448 7.02451 13.5966L7.02531 13.5982ZM16.9707 13.5783C17.2356 14.232 17.4604 14.8842 17.6469 15.5164C17.0067 15.6725 16.3305 15.8046 15.6311 15.9042C15.8712 15.5307 16.1112 15.1461 16.3361 14.752C16.561 14.3642 16.7714 13.9677 16.9723 13.5775L16.9707 13.5783ZM5.29279 9.31912C5.64169 10.496 6.0162 11.4802 6.45234 12.4293L6.39232 12.2844C6.01941 13.0846 5.6505 14.0632 5.348 15.0705L5.30639 15.2337C4.74142 15.0609 4.28689 14.8913 3.84435 14.701L3.93638 14.7361C2.20466 14.0027 1.08433 13.0384 1.08433 12.274C1.08433 11.5096 2.20466 10.5406 3.93638 9.81041C4.35651 9.63125 4.81744 9.46961 5.29279 9.31912ZM18.688 9.31514C19.1722 9.46404 19.6323 9.63046 20.0628 9.81041C21.7945 10.547 22.9149 11.5096 22.9149 12.274C22.9101 13.0384 21.7897 14.0051 20.058 14.7369C19.6379 14.916 19.1778 15.0769 18.7032 15.2274C18.3511 14.0465 17.9766 13.0631 17.5421 12.1124L17.6029 12.2621C17.9742 11.4626 18.3439 10.484 18.6456 9.47678L18.688 9.31275V9.31514ZM15.6247 8.64389C16.3201 8.74661 16.9899 8.87242 17.6309 9.02928C17.4508 9.65833 17.226 10.3049 16.9707 10.953C16.7706 10.5653 16.561 10.1743 16.3305 9.78493C16.1056 9.39476 15.8656 9.01495 15.6255 8.64469L15.6247 8.64389ZM8.36491 8.64389C8.12484 9.01893 7.88477 9.40273 7.6607 9.79847C7.43583 10.1862 7.22537 10.5764 7.02531 10.9666C6.76043 10.3136 6.53556 9.6631 6.3491 9.02928C6.9893 8.88038 7.6639 8.74741 8.36411 8.64549L8.36491 8.64389ZM11.9996 8.39068C12.7398 8.39068 13.4768 8.42413 14.2019 8.48305C14.6079 9.06219 15.0021 9.67903 15.3846 10.3336C15.7565 10.9706 16.0958 11.6161 16.4025 12.2701C16.0944 12.9222 15.7567 13.5735 15.3894 14.2105C15.0093 14.8675 14.6164 15.4925 14.2091 16.0714C13.4808 16.1343 12.743 16.1685 11.9988 16.1685C11.2586 16.1685 10.5216 16.1335 9.79654 16.0762C9.39082 15.4973 8.9947 14.8778 8.61378 14.2257C8.24194 13.5887 7.90264 12.9432 7.59588 12.2892C7.89917 11.6354 8.24167 10.9825 8.60898 10.3447C8.9891 9.68779 9.38201 9.06511 9.78934 8.48623C10.5176 8.42253 11.2554 8.38909 11.9996 8.38909V8.39068ZM11.9844 5.77816C12.4485 6.25591 12.8935 6.76313 13.312 7.29185L13.344 7.33405C12.9039 7.31414 12.4541 7.3006 11.9988 7.3006C11.5387 7.3006 11.0841 7.31016 10.6384 7.33405C11.0833 6.76074 11.5235 6.25352 11.99 5.7702L11.9836 5.77657L11.9844 5.77816ZM7.10213 2.74282C8.74502 3.04221 10.159 3.85519 11.2066 5.00499L11.2122 5.01136C10.5088 5.7471 9.84615 6.53938 9.23877 7.37466L9.19236 7.44154C8.012 7.56337 6.95329 7.75129 5.92258 8.01007L6.07942 7.97663C5.96739 7.48932 5.88416 7.01714 5.82575 6.56406C5.59608 4.7056 5.87936 3.26039 6.53956 2.87579C6.70441 2.79856 6.89727 2.75078 7.10053 2.74441H7.10293L7.10213 2.74282ZM16.8731 2.72291V2.72928C16.8835 2.72928 16.8955 2.72849 16.9083 2.72849C17.0995 2.72849 17.2796 2.77547 17.438 2.85828L17.4316 2.85509C18.0974 3.23491 18.3863 4.68091 18.1614 6.54097C18.1078 6.99882 18.0198 7.48136 17.9118 7.97344C17.0435 7.75208 15.9864 7.56496 14.9077 7.4511L14.8052 7.44234C14.1442 6.53938 13.4768 5.74551 12.7606 4.99782L12.7702 5.00738C13.8193 3.84484 15.2326 3.02629 16.8307 2.73088L16.8755 2.72371L16.8731 2.72291ZM16.8779 1.63841C14.9237 1.93382 13.232 2.87818 11.9964 4.24058L11.99 4.24775C10.7456 2.88615 9.05392 1.94815 7.14774 1.66389L7.10293 1.65831C7.09253 1.65831 7.07972 1.65831 7.06692 1.65831C6.674 1.65831 6.30509 1.76103 5.9858 1.94099L5.997 1.93541C4.62219 2.72451 4.31409 5.18335 5.02391 8.26885C1.97979 9.20446 0 10.6998 0 12.2756C0 13.8578 1.9902 15.3572 5.04311 16.2856C4.3389 19.383 4.6534 21.8459 6.03141 22.6342C6.3339 22.8069 6.69721 22.9081 7.08372 22.9081C7.10133 22.9081 7.11894 22.9081 7.13574 22.9073H7.13334C9.08753 22.6119 10.7792 21.6667 12.0148 20.3035L12.0212 20.2963C13.2656 21.6587 14.9573 22.5967 16.8635 22.881L16.9083 22.8866C16.9203 22.8866 16.9355 22.8866 16.9499 22.8866C17.3404 22.8866 17.7077 22.7847 18.0254 22.6071L18.0142 22.6127C19.3882 21.8244 19.6971 19.3655 18.9873 16.2792C22.0202 15.3516 24 13.853 24 12.2748C24 10.6927 22.0098 9.19331 18.9569 8.26249C19.6611 5.16822 19.3466 2.70301 17.9686 1.91391C17.6629 1.73953 17.2964 1.63682 16.9059 1.63682C16.8955 1.63682 16.8851 1.63682 16.8747 1.63682H16.8763L16.8779 1.63841ZM14.2299 12.2756C14.2299 13.5043 13.2288 14.5004 11.994 14.5004C10.7592 14.5004 9.75813 13.5043 9.75813 12.2756C9.75813 11.047 10.7592 10.0509 11.994 10.0509C12.6118 10.0509 13.1704 10.3001 13.5753 10.7022C13.9802 11.1051 14.2299 11.6609 14.2299 12.2756Z" fill="black"/>
</svg>
