<svg width="24" height="24" viewBox="0 0 24 24" fill="none" xmlns="http://www.w3.org/2000/svg">
<path d="M0.734701 4.67575L0.734708 4.67573C0.941145 4.27056 1.27056 3.94115 1.67573 3.73471L1.67575 3.7347C1.8773 3.632 2.13182 3.56811 2.54335 3.53449C2.96071 3.50039 3.49408 3.5 4.24533 3.5H19.6347C20.3859 3.5 20.9193 3.50039 21.3367 3.53449C21.7482 3.56811 22.0027 3.632 22.2043 3.7347L22.4313 3.2892L22.2043 3.7347C22.6094 3.94115 22.9389 4.27057 23.1453 4.6757L23.1453 4.67575C23.248 4.8773 23.3119 5.13182 23.3455 5.54334C23.3796 5.96071 23.38 6.49408 23.38 7.24533V17.328C23.38 18.0792 23.3796 18.6126 23.3455 19.03C23.3119 19.4416 23.248 19.6961 23.1453 19.8976L23.1453 19.8977C22.9389 20.3028 22.6094 20.6322 22.2043 20.8386L22.2043 20.8386C22.0027 20.9413 21.7482 21.0052 21.3367 21.0388C20.9193 21.0729 20.3859 21.0733 19.6347 21.0733H4.24533C3.49408 21.0733 2.96071 21.0729 2.54334 21.0388C2.13182 21.0052 1.8773 20.9413 1.67575 20.8386L1.6757 20.8386C1.27057 20.6322 0.94115 20.3028 0.734701 19.8976L0.3295 20.1041L0.734697 19.8976C0.632005 19.6961 0.568114 19.4416 0.534489 19.03C0.500389 18.6126 0.5 18.0792 0.5 17.328V7.24533C0.5 6.49408 0.500389 5.96071 0.534489 5.54334C0.568113 5.13181 0.632003 4.8773 0.734701 4.67575Z" stroke="#077FC8" stroke-linecap="round" stroke-linejoin="round"/>
<mask id="path-2-inside-1_121_236" fill="white">
<path d="M9.28664 8.30664L5.30664 12.2866L9.28664 16.2666M14.5933 8.30664L18.5733 12.2866L14.5933 16.2666"/>
</mask>
<path d="M9.99375 9.01375C10.3843 8.62322 10.3843 7.99006 9.99375 7.59953C9.60322 7.20901 8.97006 7.20901 8.57953 7.59953L9.99375 9.01375ZM5.30664 12.2866L4.59953 11.5795C4.412 11.7671 4.30664 12.0214 4.30664 12.2866C4.30664 12.5519 4.412 12.8062 4.59953 12.9937L5.30664 12.2866ZM8.57953 16.9737C8.97006 17.3643 9.60322 17.3643 9.99375 16.9737C10.3843 16.5832 10.3843 15.9501 9.99375 15.5595L8.57953 16.9737ZM15.3004 7.59953C14.9099 7.20901 14.2767 7.20901 13.8862 7.59953C13.4957 7.99006 13.4957 8.62322 13.8862 9.01375L15.3004 7.59953ZM18.5733 12.2866L19.2804 12.9937C19.4679 12.8062 19.5733 12.5519 19.5733 12.2866C19.5733 12.0214 19.4679 11.7671 19.2804 11.5795L18.5733 12.2866ZM13.8862 15.5595C13.4957 15.9501 13.4957 16.5832 13.8862 16.9737C14.2767 17.3643 14.9099 17.3643 15.3004 16.9737L13.8862 15.5595ZM8.57953 7.59953L4.59953 11.5795L6.01375 12.9937L9.99375 9.01375L8.57953 7.59953ZM4.59953 12.9937L8.57953 16.9737L9.99375 15.5595L6.01375 11.5795L4.59953 12.9937ZM13.8862 9.01375L17.8662 12.9937L19.2804 11.5795L15.3004 7.59953L13.8862 9.01375ZM17.8662 11.5795L13.8862 15.5595L15.3004 16.9737L19.2804 12.9937L17.8662 11.5795Z" fill="#077FC8" mask="url(#path-2-inside-1_121_236)"/>
</svg>
