<svg width="24" height="24" viewBox="0 0 24 24" fill="none" xmlns="http://www.w3.org/2000/svg">
<path d="M0 11.3914V11.3584C0.299472 7.49506 1.69879 4.59732 4.12974 2.76532C6.52765 0.900277 9.12592 0.000793655 11.9565 0.000793655C14.9203 -0.0322442 17.6849 0.966353 20.1499 2.96461C22.648 4.92983 23.88 7.86061 23.88 11.6568V11.8902C23.88 15.7204 22.648 18.5841 20.1499 20.5493C17.6518 22.5476 14.8873 23.5472 11.9235 23.5472H11.7903C8.89252 23.5142 6.22817 22.5145 3.76419 20.5163C1.29914 18.551 0.0341036 15.5201 0.00106574 11.3903L0 11.3914ZM11.2233 6.16289V0.900277H10.424C10.2577 1.10064 10.1245 1.33297 9.9913 1.53333C9.85808 1.73368 9.72486 1.93298 9.59164 2.16637C9.45843 2.36673 9.29217 2.63317 9.19199 2.83246C9.05878 3.03282 8.9586 3.23211 8.85842 3.46551C8.65806 3.79909 8.4918 4.1316 8.35859 4.43107C8.19233 4.73054 8.05911 5.03108 7.95893 5.29751C8.15929 5.43073 8.39162 5.59699 8.65806 5.69717C8.95753 5.79734 9.25807 5.89752 9.55754 5.9636C9.89112 6.03074 10.1906 6.06378 10.457 6.09682C10.7565 6.12985 11.0229 6.16396 11.2233 6.16396V6.16289ZM12.6226 0.901343V6.12986C12.7889 6.12986 12.9892 6.16289 13.1885 6.12986C13.3889 6.12986 13.6212 6.09682 13.8216 6.06271C14.1882 5.99557 14.6209 5.89646 14.9544 5.79628C15.3211 5.66306 15.6536 5.49681 15.887 5.29645C15.4873 4.33089 15.0546 3.56462 14.6209 2.83139C14.1871 2.09817 13.6883 1.46618 13.1555 0.933315V0.900277H12.6226V0.901343ZM9.02574 1.20081V1.16778C8.79234 1.26796 8.55894 1.43421 8.29251 1.53439C8.05911 1.63457 7.75964 1.76779 7.52624 1.90101C7.05945 2.1344 6.59372 2.40084 6.12693 2.70031C5.69424 2.99978 5.26048 3.33336 4.89494 3.66587C5.02815 3.79908 5.19441 3.9323 5.32763 4.03248C5.46084 4.13266 5.6271 4.26588 5.79442 4.3991C5.92764 4.46624 6.09389 4.56535 6.26121 4.69857C6.42747 4.79875 6.62783 4.93197 6.82712 5.06518C7.09355 4.46517 7.35999 3.83319 7.69356 3.26622C8.02714 2.6662 8.39269 2.1003 8.7593 1.60047C8.79234 1.53333 8.82644 1.46725 8.89252 1.40011C8.92556 1.36707 8.95966 1.26796 9.02574 1.20081ZM19.2163 3.6648V3.63176C18.384 2.99872 17.6508 2.46585 16.9186 2.13334C16.1864 1.80083 15.4532 1.46725 14.7871 1.20081C15.32 1.73368 15.7868 2.39977 16.0863 3.03282C16.4198 3.69891 16.7523 4.39803 17.0188 5.06412C17.152 4.99698 17.3182 4.9309 17.5186 4.79768C17.6849 4.6975 17.9183 4.59732 18.1186 4.49821C18.319 4.36499 18.4852 4.23177 18.6845 4.09856C18.8849 3.9323 19.0842 3.79908 19.2174 3.66587L19.2163 3.6648ZM18.6504 11.0919H22.4807C22.4807 9.85994 22.2142 8.69402 21.7144 7.49507C21.2476 6.32915 20.5815 5.36359 19.7492 4.53125V4.49821C19.5829 4.76464 19.3495 4.99804 19.1161 5.1643C18.8497 5.33055 18.6163 5.46377 18.3499 5.59699C18.1836 5.69717 18.0163 5.83038 17.8501 5.89646C17.6838 5.99664 17.4504 6.06271 17.2841 6.16289C17.4174 6.42933 17.5506 6.7288 17.6838 6.99524C17.784 7.29471 17.9502 7.62828 18.0174 7.92776C18.2177 8.46063 18.3509 9.02653 18.4842 9.5935C18.5843 10.0933 18.6504 10.6262 18.6504 11.0919ZM6.59479 6.16289V6.12986C6.32835 5.99664 6.02888 5.89646 5.79549 5.76324C5.56209 5.59699 5.32869 5.42967 5.1294 5.29645C4.92904 5.19627 4.72975 5.06305 4.56349 4.92983C4.39724 4.79662 4.26402 4.6634 4.1308 4.53018C3.26436 5.36252 2.63237 6.29504 2.23272 7.39489C1.80003 8.49366 1.49949 9.72672 1.36628 11.0589H5.46297C5.46297 10.1264 5.59619 9.22689 5.82959 8.32741C6.02995 7.39489 6.32835 6.69576 6.59479 6.16289ZM11.2233 11.0589V7.22863C10.9569 7.26167 10.6233 7.26167 10.3238 7.22863C9.99023 7.19559 9.65772 7.09541 9.35825 6.99524C9.09181 6.92809 8.75824 6.86202 8.4918 6.76184C8.19233 6.6947 7.89179 6.56148 7.65946 6.42826C7.4591 6.76184 7.29285 7.16149 7.15963 7.59418C6.99337 7.99383 6.8932 8.42652 6.79302 8.82617C6.72587 9.22582 6.69284 9.65851 6.6598 10.0251C6.62676 10.3917 6.59266 10.7584 6.59266 11.0578H11.2222L11.2233 11.0589ZM12.6226 7.29577V11.0589H17.5516C17.5516 10.8585 17.5516 10.6262 17.5186 10.3598C17.4515 10.1264 17.4184 9.8269 17.3854 9.56047C17.2852 9.16081 17.185 8.72813 17.0518 8.32847C16.9186 7.96186 16.7854 7.59525 16.6191 7.29577C16.552 7.12952 16.4859 6.92916 16.4188 6.79594C16.3186 6.62969 16.2184 6.52951 16.1523 6.42933C15.7857 6.69576 15.2859 6.86202 14.6869 6.99524C14.121 7.12845 13.4549 7.26167 12.8549 7.29471H12.6215L12.6226 7.29577ZM5.46191 12.1577H1.36521C1.36521 12.7236 1.46539 13.3566 1.63165 14.1229C1.7979 14.9222 2.13148 15.6554 2.49809 16.4547C2.66435 16.8544 2.8647 17.254 3.064 17.6537C3.29739 18.0203 3.56383 18.42 3.83026 18.7866C4.03062 18.6533 4.22992 18.5532 4.39617 18.453C4.59653 18.3528 4.82886 18.2196 5.02922 18.1194C5.26262 18.0192 5.49601 17.9191 5.76245 17.7858C5.99584 17.6857 6.29532 17.5524 6.59479 17.4192C6.32835 16.5869 6.02888 15.7876 5.82852 14.8881C5.59513 14.0216 5.46191 13.1563 5.46191 12.1907V12.1577ZM11.2233 16.054V12.1577H6.59372C6.59372 12.4241 6.62676 12.8238 6.6939 13.2234C6.72694 13.6231 6.82712 14.0557 6.89426 14.4895C7.02748 14.9563 7.12766 15.422 7.26088 15.8217C7.39409 16.2213 7.52731 16.5549 7.66053 16.8544C8.26054 16.621 8.85948 16.4547 9.25913 16.3545C9.69182 16.2213 10.0915 16.1212 10.4911 16.0881H10.8577C10.991 16.0551 11.1242 16.0551 11.2244 16.0551L11.2233 16.054ZM12.6226 12.1577V16.021C12.856 16.054 13.1224 16.0881 13.3889 16.1212C13.6883 16.1542 14.055 16.2213 14.3544 16.2874L14.8543 16.3876C15.0205 16.4547 15.2209 16.4878 15.3871 16.5208C15.5875 16.5879 15.7868 16.621 15.9871 16.6871C16.1534 16.7542 16.3207 16.7872 16.4539 16.8533C16.8866 15.7545 17.1531 14.8551 17.3204 14.0888C17.4866 13.3556 17.5538 12.7236 17.5538 12.1907V12.1577H12.6247H12.6226ZM22.4807 12.1907V12.1577H18.6504V12.358C18.6174 12.9911 18.5172 13.7232 18.384 14.4895C18.2508 15.2227 17.9513 16.0881 17.5516 17.1539C18.0845 17.4203 18.5843 17.6867 18.984 17.9532C19.3836 18.2196 19.7503 18.5191 20.0167 18.7855C20.5826 18.2196 21.0824 17.4533 21.5151 16.4537C21.9478 15.4881 22.2484 14.4884 22.4146 13.4227C22.4476 13.2223 22.4476 13.0231 22.4817 12.8227V12.1896L22.4807 12.1907ZM11.2233 22.3152V17.1197C10.3909 17.253 9.69076 17.4192 9.15789 17.5524C8.62502 17.6857 8.22537 17.8189 7.95893 17.9521C8.15929 18.4519 8.35859 18.8846 8.55894 19.2843C8.7593 19.6509 8.99163 20.0505 9.19199 20.383C9.25913 20.5163 9.39235 20.6495 9.49147 20.8157C9.59164 20.9489 9.65772 21.1152 9.7579 21.2484C9.85808 21.4147 9.95826 21.615 10.0574 21.8143C10.1906 21.9806 10.2908 22.1809 10.424 22.3142L11.2233 22.3152ZM12.6226 22.3152H13.3889C13.6883 22.0818 13.9889 21.7493 14.2212 21.3827C14.4876 21.0161 14.7871 20.5834 14.9875 20.2168C15.2209 19.7841 15.4543 19.3844 15.6536 18.9848C15.8529 18.5851 16.0202 18.2185 16.1534 17.9521C15.7868 17.8189 15.287 17.6857 14.7882 17.5524C14.2894 17.4192 13.5892 17.286 12.6237 17.1528V22.3152H12.6226ZM19.2163 19.5848V19.5518C19.1492 19.4516 19.016 19.3184 18.9169 19.2182C18.8177 19.118 18.6504 18.9848 18.4842 18.8846C18.3509 18.7844 18.1847 18.6843 17.9843 18.5851C17.784 18.486 17.5175 18.3517 17.2852 18.2185C17.152 18.485 16.9186 18.9518 16.5861 19.5837C16.2866 20.2168 15.7537 20.9831 15.0877 21.8154C15.92 21.6822 16.6532 21.3827 17.3193 20.9831C18.0525 20.6164 18.6845 20.1166 19.2174 19.5837L19.2163 19.5848ZM6.82712 18.5191V18.486C6.59372 18.6192 6.22711 18.7855 5.86156 18.9528C5.46191 19.1191 5.02922 19.3194 4.62957 19.5859C4.86296 19.7862 5.09636 19.9855 5.29565 20.1187C5.49601 20.285 5.72834 20.4182 5.9287 20.5514C6.29532 20.7848 6.72801 21.0182 7.1607 21.2175C7.59339 21.4168 8.12625 21.6172 8.79234 21.8175C8.55894 21.5511 8.39269 21.2175 8.22643 20.9511C8.06018 20.6846 7.85982 20.4182 7.69356 20.1518C7.52731 19.8853 7.39409 19.5859 7.26088 19.3194C7.09462 19.053 6.9614 18.7866 6.82819 18.5201L6.82712 18.5191Z" fill="#077FC8"/>
</svg>
