<svg width="220" height="45" viewBox="0 0 220 45" fill="none" xmlns="http://www.w3.org/2000/svg">
<g clip-path="url(#clip0_105_2638)">
<path fill-rule="evenodd" clip-rule="evenodd" d="M29.9996 15.9893H51.7096V10.0672H29.9996V15.9893ZM29.9996 27.2382H51.7096V21.1104H29.9996V27.2382ZM72.6317 13.6213L82.5018 0.197021H74.2118L68.4866 8.07563L64.3416 13.8007L71.2485 23.0756L74.4087 27.2207H82.6988L72.6317 13.6213ZM66.1187 4.539L62.9585 0.197021H54.6728L61.9737 10.2641L66.1187 4.539ZM29.9996 6.12786H51.7096V0.197021H29.9996V6.12786ZM54.6728 27.2469H62.9585L66.1187 22.9049L61.9737 17.1798L54.6728 27.2469Z" fill="white"/>
<path d="M166.979 32.7661H166.388V44.8073H166.979V32.7661Z" fill="white"/>
<path fill-rule="evenodd" clip-rule="evenodd" d="M169.937 39.0825V44.8032H169.347V37.5024H169.937V37.8963C170.51 37.2942 171.296 36.9406 172.126 36.9115C172.525 36.8889 172.924 36.9471 173.3 37.0824C173.677 37.2178 174.021 37.4276 174.314 37.6994C174.581 37.9519 174.789 38.2592 174.925 38.5999C175.061 38.9407 175.121 39.307 175.102 39.6734V44.6063H174.511V39.6734C174.508 39.2365 174.376 38.8104 174.133 38.4475C173.889 38.0846 173.545 37.801 173.142 37.6315C172.74 37.4621 172.296 37.4143 171.867 37.494C171.437 37.5737 171.04 37.7775 170.725 38.0801C170.403 38.3579 170.136 38.6934 169.937 39.0694" fill="white"/>
<path fill-rule="evenodd" clip-rule="evenodd" d="M178.424 38.0801V44.79H177.816V38.0801H177.023V37.4892H177.816V35.5152C177.827 34.9951 178.038 34.4995 178.406 34.1317C178.774 33.7639 179.27 33.5523 179.79 33.5411C180.067 33.512 180.346 33.5818 180.578 33.7381L180.381 34.329C180.184 34.329 179.987 34.132 179.79 34.132C179.422 34.138 179.07 34.2799 178.801 34.5303C178.554 34.8 178.414 35.15 178.407 35.5152V37.4892H180.004V38.0801H178.424Z" fill="white"/>
<path fill-rule="evenodd" clip-rule="evenodd" d="M182.373 38.2901C181.89 38.7928 181.567 39.4262 181.441 40.1115C181.316 40.7968 181.395 41.5038 181.668 42.1446C181.942 42.7854 182.397 43.3317 182.978 43.7157C183.56 44.0997 184.241 44.3045 184.938 44.3045C185.634 44.3045 186.315 44.0997 186.897 43.7157C187.478 43.3317 187.934 42.7854 188.207 42.1446C188.48 41.5038 188.559 40.7968 188.434 40.1115C188.309 39.4262 187.985 38.7928 187.502 38.2901C186.859 37.6852 186.017 37.3351 185.135 37.3052C184.122 37.2704 183.135 37.6225 182.373 38.2901ZM184.938 36.7143C185.869 36.7375 186.763 37.0814 187.47 37.6879C188.177 38.2943 188.653 39.1263 188.818 40.0431C188.982 40.9599 188.825 41.9054 188.373 42.7199C187.921 43.5343 187.202 44.1678 186.337 44.5133C185.472 44.8588 184.514 44.8951 183.626 44.6161C182.737 44.3371 181.972 43.7599 181.459 42.982C180.947 42.2042 180.719 41.2733 180.814 40.3466C180.908 39.42 181.32 38.5544 181.979 37.8961C182.366 37.5082 182.828 37.2033 183.336 37.0001C183.845 36.7969 184.39 36.6997 184.938 36.7143Z" fill="white"/>
<path fill-rule="evenodd" clip-rule="evenodd" d="M191.848 37.3052V34.145H192.439V37.3052H194.019V37.8961H192.439V44.6061H191.848V37.8961H190.268V37.3052H191.848Z" fill="white"/>
<path fill-rule="evenodd" clip-rule="evenodd" d="M213.559 32.7661H214.145V37.699C214.398 37.4328 214.705 37.2246 215.046 37.0885C215.387 36.9525 215.753 36.892 216.119 36.9111C216.518 36.8886 216.918 36.9467 217.294 37.0821C217.67 37.2175 218.015 37.4273 218.308 37.699C218.574 37.9516 218.782 38.2588 218.918 38.5996C219.054 38.9404 219.115 39.3066 219.096 39.673V44.6059H218.505V39.673C218.492 39.2442 218.357 38.828 218.114 38.474C217.872 38.1201 217.533 37.8433 217.137 37.6768C216.742 37.5102 216.307 37.4609 215.884 37.5347C215.462 37.6085 215.069 37.8023 214.754 38.0929C214.557 38.2899 214.36 38.4869 214.36 38.6838V44.6059H213.769L213.559 32.7661Z" fill="white"/>
<path fill-rule="evenodd" clip-rule="evenodd" d="M213.16 18.7511C213.16 16.5626 210.792 16.3831 210.004 16.3831H207.816C209.199 14.803 210.578 13.026 211.961 11.4502L212.552 10.855C212.737 10.9513 212.937 11.0178 213.143 11.0519C216.106 11.8442 218.671 14.2121 219.27 17.368C219.494 18.5209 219.487 19.7065 219.252 20.857C219.017 22.0076 218.558 23.1005 217.9 24.0735C217.235 25.1691 216.277 26.0573 215.134 26.6385C213.755 27.2293 212.372 27.2294 210.989 27.2294H195.201V21.513H210.004C210.398 21.316 213.16 21.316 213.16 18.7511ZM156.911 27.0411H149.803V10.0671H156.907L156.911 27.0411ZM109.342 18.1602C109.565 19.8937 109.144 21.6487 108.16 23.0931C106.974 25.0671 104.803 26.0563 102.632 26.6472C100.461 27.2381 98.0931 27.2381 95.9221 27.2381H84.0779V21.316H100.273C100.864 21.316 101.656 21.316 102.05 20.9221C102.342 20.6791 102.58 20.3782 102.749 20.0384C102.919 19.6986 103.016 19.3273 103.035 18.9481C103.035 16.1862 101.061 16.1862 100.273 16.1862H84.2792V10.0671H99.2792C100.264 10.0671 101.468 10.0671 102.041 9.67319C102.615 9.27926 103.026 8.68398 102.632 7.10825C102.435 6.31602 101.253 6.31602 100.658 6.31602H84.0779V0.393928H97.1082C99.1589 0.327068 101.211 0.460471 103.236 0.792237C105.21 1.18617 107.175 2.36796 108.173 4.14503C108.924 5.6026 109.2 7.25877 108.961 8.88095C108.719 10.4836 108.036 11.9871 106.987 13.2229C108.173 14.6061 109.176 16.1862 109.355 17.9632L109.342 18.1602ZM117.435 15.7922C117.041 15.5953 116.844 15.3939 116.45 15.197C114.708 13.9875 113.504 12.1479 113.093 10.0671C112.699 7.50219 112.896 4.93288 112.896 2.56492V0.196971H119.602V7.30522C119.57 7.96935 119.636 8.63455 119.799 9.27926C119.919 9.59365 120.104 9.87903 120.343 10.1167C120.581 10.3543 120.867 10.5388 121.182 10.658H127.104V16.3831H121.58C120.178 16.3799 118.783 16.181 117.435 15.7922ZM135.989 24.0735C135.433 24.825 134.768 25.4889 134.015 26.0432C132.041 27.2294 129.87 27.2294 127.502 27.2294C123.16 27.2294 118.818 27.2294 114.476 27.0324C114.082 27.0324 113.29 27.0324 113.093 26.8354C112.896 26.4415 113.093 25.6493 113.093 25.2553C113.061 23.9392 113.127 22.6224 113.29 21.316H128.487C129.279 21.316 130.067 21.316 130.461 20.5282C130.622 20.1545 130.689 19.7475 130.658 19.342V0H137.569C137.569 4.73592 137.766 9.67319 137.766 14.4091C137.766 16.5976 137.766 18.7511 137.372 20.7251C137.372 22.1083 136.777 23.0931 135.989 24.0735ZM157.682 5.72512H142.108V0H165.201V5.72512H157.682ZM168.952 0H190.662V5.72512H168.952V0ZM168.952 10.0671H190.662V15.7922H168.952V10.0671ZM168.952 21.316H190.662V27.0411H168.952V21.316ZM200.533 7.87861C200.533 9.45871 201.123 10.0671 201.714 10.4435C202.088 10.6044 202.495 10.672 202.9 10.6405H206.84C205.658 12.2206 202.104 16.3656 202.104 16.3656C202.104 16.3656 197.565 15.5778 195.394 12.4263C194.208 10.6493 194.011 8.28129 194.606 6.1103C195.038 4.35426 196.089 2.81277 197.565 1.76831C199.933 0.188215 202.896 0.188208 205.658 0.188208H218.487V5.71637H202.699C202.141 5.76377 201.618 6.00668 201.221 6.40227C200.825 6.79785 200.581 7.32071 200.533 7.87861Z" fill="white"/>
<path fill-rule="evenodd" clip-rule="evenodd" d="M1.37876 4.53882H0V3.16007H1.37876V4.53882ZM0 5.92196H1.37876V7.3051H0V5.92196ZM0 10.067V8.68385H1.37876V10.067H0ZM0 13.0258V11.6471H1.37876V13.0258H0ZM0 15.7921V14.409H1.37876V15.7921H0ZM0 18.751V17.3678H1.37876V18.751H0ZM0 24.4761V23.093H1.37876V24.4761H0ZM0 27.238V25.8549H1.37876V27.238H0ZM2.76189 27.238V25.8549H4.34199V27.238H2.76189ZM2.76189 23.093H4.34199V24.4761H2.76189V23.093ZM2.76189 25.8549H1.37876V24.4761H2.76189V25.8549ZM2.76189 18.751V17.3678H4.34199V18.751H2.76189ZM2.76189 15.7921V14.409H4.34199V15.7921H2.76189ZM2.76189 13.0258V11.6471H4.34199V13.0258H2.76189ZM2.76189 10.067V8.68385H4.34199V10.067H2.76189ZM2.76189 20.3311H1.37876V18.751H2.76189V20.3311ZM2.76189 17.3678H1.37876V15.7921H2.76189V17.3678ZM2.76189 14.409H1.37876V13.0258H2.76189V14.409ZM2.76189 11.6471H1.37876V10.067H2.76189V11.6471ZM1.37876 8.68385V7.3051H2.76189V8.68385H1.37876ZM5.72075 3.16007H4.34199V4.53882H5.72075V3.16007ZM4.34199 1.77693H2.76189V3.16007H4.34199V1.77693ZM26.0519 18.554C25.8754 19.2432 25.6106 19.9067 25.2641 20.528C23.9254 23.2587 21.5964 25.3764 18.7511 26.4501C17.0285 27.0002 15.2279 27.2663 13.4199 27.238H5.72075V25.8549H4.34199V24.4761H5.72075V23.093H4.34199V21.7098H2.76189V23.093H1.37876V21.7098H0V20.3311H1.37876V21.7098H2.76189V20.3311H4.34199V21.7098H11.0519C13.4199 21.7098 15.5909 21.5129 17.368 20.3311C18.3753 19.7007 19.2095 18.829 19.7949 17.795C20.3803 16.7609 20.6986 15.5971 20.7207 14.409C20.6828 11.9938 19.7717 9.67396 18.1558 7.87848C17.368 7.09062 16.3788 6.29838 15.197 6.10142C14.4188 5.93826 13.6234 5.87209 12.829 5.90445H4.34199V7.28758H2.76189V5.90445H4.34199V4.52131H2.76189V5.90445H1.37876V4.52131H2.76189V3.14256H1.37876V1.75942H0V0.393799H1.37876V1.77693H2.76189V0.393799H12.0368C15.197 0.393799 18.3528 0.792106 20.9221 2.5823C23.8809 4.55633 25.658 8.11046 26.2489 11.6646C26.8398 13.8181 26.6428 16.1948 26.0519 18.554Z" fill="white"/>
<path fill-rule="evenodd" clip-rule="evenodd" d="M199.543 37.1083C200.388 37.1594 201.204 37.4311 201.911 37.8961L196.781 42.829C196.313 42.1904 196.038 41.4308 195.989 40.6405C195.987 40.1735 196.078 39.7108 196.256 39.279C196.434 38.8473 196.696 38.4551 197.026 38.125C197.357 37.795 197.749 37.5337 198.181 37.3562C198.613 37.1787 199.076 37.0884 199.543 37.0908M202.327 43.026C202.006 43.4558 201.59 43.8048 201.11 44.0449C200.63 44.2851 200.101 44.4098 199.565 44.4091C199.124 44.4128 198.688 44.3274 198.281 44.1582C197.874 43.989 197.505 43.7394 197.197 43.4243L202.327 38.487L202.725 38.0931C202.338 37.6387 201.852 37.2785 201.304 37.0396C200.757 36.8007 200.162 36.6895 199.565 36.7143C199.01 36.6963 198.456 36.7901 197.938 36.9901C197.42 37.1902 196.947 37.4925 196.547 37.879C196.148 38.2654 195.831 38.7283 195.614 39.2399C195.397 39.7515 195.285 40.3015 195.285 40.8572C195.285 41.4128 195.397 41.9628 195.614 42.4745C195.831 42.9861 196.148 43.4489 196.547 43.8354C196.947 44.2219 197.42 44.5241 197.938 44.7242C198.456 44.9243 199.01 45.0181 199.565 45C200.226 44.997 200.877 44.8342 201.461 44.5255C202.046 44.2169 202.547 43.7715 202.922 43.2273L202.327 43.026Z" fill="white"/>
<path fill-rule="evenodd" clip-rule="evenodd" d="M211.19 43.0257C210.868 43.4554 210.451 43.8042 209.971 44.0443C209.49 44.2844 208.961 44.4092 208.424 44.4089C206.45 44.4089 205.071 42.6318 205.071 40.8547C205.058 39.943 205.401 39.062 206.027 38.3991C206.653 37.7362 207.513 37.3437 208.424 37.305C209.61 37.305 210.398 37.8959 211.19 38.6838L211.978 38.4868C211.587 37.9582 211.083 37.5244 210.502 37.2175C209.92 36.9106 209.278 36.7386 208.621 36.7141C208.066 36.696 207.512 36.7898 206.994 36.9899C206.475 37.19 206.003 37.4922 205.603 37.8787C205.204 38.2652 204.887 38.728 204.67 39.2396C204.453 39.7513 204.341 40.3013 204.341 40.8569C204.341 41.4126 204.453 41.9626 204.67 42.4742C204.887 42.9859 205.204 43.4487 205.603 43.8352C206.003 44.2216 206.475 44.5239 206.994 44.724C207.512 44.924 208.066 45.0178 208.621 44.9998C209.278 44.9753 209.92 44.8032 210.502 44.4964C211.083 44.1895 211.587 43.7557 211.978 43.2271L211.19 43.0257Z" fill="white"/>
</g>
<defs>
<clipPath id="clip0_105_2638">
<rect width="219.428" height="45" fill="white"/>
</clipPath>
</defs>
</svg>
